<?xml version="1.0" standalone="no"?>
<!DOCTYPE svg PUBLIC "-//W3C//DTD SVG 1.1//EN" "http://www.w3.org/Graphics/SVG/1.1/DTD/svg11.dtd" >
<svg xmlns="http://www.w3.org/2000/svg" xmlns:xlink="http://www.w3.org/1999/xlink" version="1.1">
<metadata>
Created by FontForge 20170731 at Sun Oct  2 09:23:17 2022
 By Aleksey,,,
(c)Perspectype Studio 2021. All Rights Reserved
</metadata>
<defs>
<font id="AnthonyHunter" horiz-adv-x="679" >
  <font-face 
    font-family="Anthony Hunter"
    font-weight="400"
    font-style="italic"
    font-stretch="normal"
    units-per-em="2048"
    panose-1="2 0 6 0 0 0 0 9 0 0"
    ascent="1638"
    descent="-410"
    x-height="648.5"
    cap-height="1741"
    bbox="-2008.6 -940.094 13553.2 2306.38"
    underline-thickness="102"
    underline-position="-255"
    slope="-13"
    unicode-range="U+0020-FB02"
  />
<missing-glyph horiz-adv-x="843" 
d="M823 0h-823l330 1434h825zM784 49l310 1335h-725l-308 -1335h723zM483 455h-32q-12 95 0 147q14 73 131 217q117 148 131 217q14 57 -11.5 90t-85.5 33q-58 0 -137 -55l10 45q98 72 187 72q93 0 138.5 -46t25.5 -128q-10 -50 -46.5 -101t-115.5 -129q-89 -85 -129 -131
q-52 -55 -60 -98q-9 -40 -6 -133zM416 213q-12 0 -19 10l-45 72q-4 9 -2 16q0 9 17 23l69 57q10 10 23 10q8 0 18 -10l43 -59q7 -13 4 -21q-3 -11 -14 -22l-72 -62q-14 -14 -22 -14z" />
    <glyph glyph-name="a_t" unicode="at" horiz-adv-x="1462" 
d="M1141 604q-12 -6 -37 -31q-300 -294 -563 -507q-66 -54 -101 -74q-76 -40 -143 -4q-20 12 -23 47q0 9 4.5 31.5t4.5 35.5q-13 -4 -33 -24q-51 -47 -84 -70q-70 -56 -141 -20q-63 28 -50 112q15 91 70 185q85 138 158 219q70 80 145 121q65 35 123 31.5t98 -44.5
q2 -2 6.5 -7t6.5 -7q7 -7 20 2q5 5 15.5 16.5t15.5 16.5q23 20 51 10q18 -9 31 -22q23 -27 0 -60q-70 -102 -103 -153q-124 -181 -184 -314q-12 -20 -12 -33q27 14 73 50q134 110 302 272q204 201 450 420q18 17 55 50.5t56 49.5q-3 5 -6.5 5.5t-9 -0.5t-7.5 -1
q-221 -25 -371 -30q-141 -6 -262 2q-85 3 -149 36q-36 14 -58 46q-10 13 -12 22q-9 17 4 25q7 5 21 -4q72 -57 211 -60q187 -3 381 12q45 4 135 14.5t135 14.5q4 2 10 2q54 10 62.5 15t42.5 49q175 227 204 266q21 30 54 18q62 -24 24 -92q-18 -36 -75 -119
q-10 -14 -31 -43.5t-31 -44.5q4 -5 8.5 -5.5t11.5 0.5t9 1q256 48 530 76q169 18 277 16q59 -3 118 -18q86 -26 107 -107q14 -64 -37 -137q-8 -8 -14 -12q-16 -16 -27 -12q-3 5 -3.5 7t2.5 8.5t3 8.5q20 36 31 58q36 73 -25 106q-35 20 -96 23q-102 4 -287 -15
q-261 -29 -436 -59q-36 -5 -107.5 -17.5t-107.5 -17.5q-37 -6 -53 -37q-41 -60 -125 -179.5t-125 -180.5q-193 -289 -277 -426q-200 -326 -311 -566q-45 -103 -67 -172q-1 -3 -3 -8t-3.5 -8.5t-2.5 -7.5t0 -7t4 -5q3 -4 9 -1.5t9 4.5t9 7.5t8 7.5q104 86 289 279
q75 79 151.5 163.5t184.5 205.5t147 165q25 29 55.5 60.5t68.5 70t57 57.5q20 20 47 37q16 6 16 -8q-3 -24 -18 -45q-11 -19 -52 -65q-85 -95 -235 -272t-209 -245q-242 -273 -395 -411q-50 -47 -92 -72q-60 -35 -125 -22q-56 12 -62 71q-3 59 19 123q40 118 131 299
q13 26 29 55t35 63t30 54q136 250 358 588q8 13 17.5 27t21.5 30.5t19 26.5v8zM96 66q6 1 11.5 4t12 7.5t9.5 6.5q24 19 67 59.5t50 46.5q9 9 58.5 56t68 66t50 57t52.5 73q4 8 19 23q35 35 28 90q-2 19 -6 21.5t-24 -3.5q-65 -15 -132 -79q-73 -70 -124 -150
q-89 -140 -127 -227q-14 -38 -13 -51z" />
    <glyph glyph-name="e_t" unicode="et" horiz-adv-x="1462" 
d="M1319 893q-12 2 -26 2t-23 -1t-25 -3.5t-22 -3.5q-75 -10 -181 -17q-191 -9 -251 -6q-140 8 -197 25q-60 19 -96 53q-23 23 -23 45q0 9 8 14q7 3 13 0q2 -1 6 -4t6 -4q59 -48 158 -55q12 0 53 -3t54 -2.5t56 3.5h27q72 -2 279 16q52 4 150.5 16.5t113.5 14.5q39 5 65 39
q32 43 107.5 138.5t114.5 148.5q12 18 23 22t28 -4q65 -27 24 -96q-15 -26 -32.5 -52.5t-44.5 -65t-37 -52.5q-1 -2 -7.5 -10.5t-7.5 -11.5t0 -11q6 -10 35 0q278 49 520 72q173 18 279 16q74 -3 133 -26q53 -20 78 -74q29 -66 -19 -148q-8 -12 -12 -16l-5 -5l-6 -6t-6 -5.5
t-6 -4t-6 -2t-6 1.5q-3 2 -4.5 4.5t0 7l2.5 7.5t4 9t4 7q2 5 14 26.5t17 33.5q23 54 -16 82q-36 28 -105 32q-103 5 -239 -8q-297 -31 -523 -71q-29 -4 -86.5 -13.5t-85.5 -13.5q-47 -6 -71 -45q-41 -61 -125 -183.5t-125 -183.5q-194 -287 -287 -442q-207 -336 -313 -584
q-39 -94 -47 -127q-9 -26 -7 -37q4 -1 8.5 1t7 3.5t8 6.5t7.5 6q53 42 168 153q56 55 120 122.5t107.5 116t116.5 130t109 121.5q18 20 75 83t84 93t72.5 78.5t83.5 87.5q28 28 64 53q12 8 18 4q5 -5 2 -18q-5 -22 -43 -70q-5 -6 -84 -96q-61 -70 -181.5 -211.5
t-180.5 -212.5q-245 -277 -389 -412q-70 -66 -125 -98q-58 -37 -117 -25q-65 14 -68 82q0 64 31 148q28 76 69.5 164t75 149.5t88.5 159.5q90 161 191 323q178 277 258 388q5 5 8 14q-18 -13 -36 -29t-41 -39l-33 -33q-220 -212 -471 -407q-117 -88 -222 -141
q-87 -48 -166 -56q-109 -9 -176 49q-76 65 -32 197q39 115 149 232q117 126 275 188q86 37 141 27q53 -11 90 -54q47 -53 -4 -129q-66 -98 -160 -151q-121 -68 -215 -60q-35 3 -65 15q-15 8 -25 -9q-39 -55 -59 -99.5t-19 -90.5q0 -18 6 -33q13 -32 49 -26q64 10 144 53
q74 39 225 143q42 30 92 70.5t75 61.5t92 80.5t77 68.5q80 72 225 205t180 165q6 4 21 19zM285 334q46 7 75 16q113 43 209 150q21 21 31 51q4 17 0.5 21t-20.5 -1q-19 -6 -78 -34q-121 -61 -223 -177q-14 -14 -13 -20q2 -6 19 -6z" />
    <glyph glyph-name="f_f" unicode="ff" horiz-adv-x="1173" 
d="M582 287q-13 0 -29 -8q-66 -25 -125 -39q-22 -4 -27 -9.5t-10 -25.5q-18 -61 -39 -123q-59 -168 -147 -320q-121 -209 -205 -319q-62 -79 -90 -107q-48 -48 -103 -75q-80 -44 -163 -21q-34 11 -47 51q-11 38 -5 88q19 120 70 228q140 309 291 545q221 347 274 423
l40.5 58.5t42.5 61.5t39.5 57t43.5 61t41.5 56.5t45.5 60t44 54.5t49 58.5t48 53.5q5 5 14 15t14 15q25 25 56 13q53 -23 20 -84q-7 -14 -47 -72q-54 -75 -111 -159t-128 -190.5l-107 -160.5q-2 -3 -6.5 -9t-6.5 -9q-13 -20 5 -29q18 -10 47 -39q30 -37 32 -70q0 -22 23 -16
q78 19 197 64q19 8 41 38q152 217 282 351q138 142 268 225q51 33 99 41q28 4 43 -4q40 -17 53.5 -62.5t-6.5 -91.5q-19 -43 -72 -104q-83 -99 -182 -170q-165 -128 -307 -197q-17 -7 -19.5 -13t4.5 -18q29 -45 35 -102q0 -25 27 -25q15 1 82 11q143 31 274 82q11 3 41 16
q4 2 12.5 6t12.5 6q26 7 30 -6q6 -19 -14 -33q-13 -11 -47 -28q-73 -36 -178 -68q-147 -47 -215 -47q-23 0 -29 -22q0 -4 -1 -9t-2.5 -11t-2.5 -9q-68 -318 -303 -617q-22 -29 -51 -51q-57 -49 -116.5 -40t-78.5 69q-17 56 0 149q40 209 180 480q47 86 86 147q1 2 5 7.5
t6 11t2 10.5zM301 160q1 5 4 18t4 21q5 22 2.5 26t-22.5 8q-53 13 -72 21q-11 4 -14 5t-8 -1t-7.5 -5.5t-9.5 -14.5q-9 -14 -54 -85.5t-61 -97.5t-49.5 -81.5t-57.5 -99t-46 -87.5q-10 -20 -36 -71t-39.5 -78t-32 -68.5t-31.5 -75.5q-38 -86 -43 -162q0 -1 -1 -11.5t1 -14.5
t8 -6q4 -1 9.5 0.5t9 4t9.5 7t9 6.5q73 53 147 147q184 229 295 461q61 134 86 234zM408 -401q-1 -9 -7.5 -38.5t-5.5 -43.5q0 -2 -1.5 -8.5t-1 -10.5t4.5 -6q3 -3 8.5 0t6.5 3.5t6 6t6 6.5q92 83 176 213q75 119 143 310q27 71 37 125q7 25 -10 30q-34 12 -61 33
q-13 9 -23 -8q-4 -8 -8 -12q-101 -168 -168 -314q-61 -142 -102 -286zM1331 911q-19 -2 -47 -18q-77 -48 -121 -90q-100 -91 -229 -248q-21 -26 -23 -33q2 1 6 2t5 2q201 144 303 246q57 57 86 100q16 25 20 39zM289 287q23 0 29.5 5.5t3.5 24.5q-3 21 -15 43
q-15 25 -24 23.5t-29 -33.5q-18 -26 -14.5 -39.5t30.5 -21.5q15 0 19 -2zM778 338q-8 -2 -16 -10q-3 -5 -10.5 -15.5t-10.5 -15.5q-12 -20 -10 -29t21 -18q12 -4 20 -6q23 -3 23 20q0 32 -17 74z" />
    <glyph glyph-name="i_t" unicode="it" horiz-adv-x="1187" 
d="M938 713q-26 -25 -77.5 -74.5t-76.5 -73.5q-311 -292 -467 -434q-73 -66 -145 -113q-64 -42 -123 -28q-59 15 -65 73q-5 53 24 134q34 95 105 196q11 16 45.5 68t58.5 85t51 64q7 4 15 17q19 17 31.5 20t31.5 -6q14 -7 23 -16q19 -19 21 -37.5t-15 -48.5
q-32 -58 -99 -156q-81 -124 -135 -217q-30 -55 -41 -86q-5 -19 0 -25q21 9 54 35q128 101 282 242q70 65 210.5 194t209.5 193q36 33 103 92.5t90 79.5q8 8 8 12q-6 1 -227.5 -15.5t-239.5 -19.5q3 -10 3 -21t-1.5 -18.5t-8 -20t-9 -17t-13 -19.5t-12.5 -18q-29 -39 -86 -60
q-24 -12 -48.5 7.5t-19.5 46.5q7 39 39 86q24 36 20 40q-1 2 -34 5q-107 7 -170 47q-33 20 -43 37q-12 20 -12 30q0 13 6 17q8 4 12 0q3 -2 9 -6.5t9 -6.5q50 -36 119 -45q113 -15 189 -8h28q66 -1 287 17q39 3 83.5 8t99 12t85.5 10q36 6 62 39q32 42 107 138t114 149
q12 17 23 21t28 -3q19 -8 29 -18t13 -29.5t-15 -46.5q-24 -41 -72 -108q-22 -32 -53 -76q-11 -17 -8 -22.5t22 -2.5q22 3 65 11.5t64 11.5q313 49 522 63q143 11 224 0q35 -5 77 -22q67 -30 82 -103q11 -65 -41 -133l-5 -5t-5.5 -6t-5.5 -5t-6 -3.5t-6 -2t-6 1.5
q-3 2 -4.5 4.5t-0.5 6.5t2.5 7t4.5 8.5t4 7.5q3 7 13.5 27t14.5 31q26 60 -18 88q-37 26 -104 29q-97 5 -234 -9q-291 -32 -487 -65q-36 -5 -107.5 -17.5t-107.5 -17.5q-39 -3 -62 -39q-45 -67 -132 -193.5t-126 -183.5q-201 -298 -325 -508q-182 -305 -271 -512
q-39 -94 -47 -127q-8 -24 -6 -34q11 -6 27 10q59 47 137 125q31 30 62 60.5t65 66t57.5 60.5t62.5 68t56.5 62t62.5 68.5t58 64.5q47 51 130.5 146.5t112.5 128.5q24 25 72.5 73.5t71.5 73.5q22 22 55 45q12 8 18 4q6 -6 3 -18q-5 -22 -43 -70q-5 -6 -84 -96
q-60 -70 -181.5 -211.5t-181.5 -212.5q-245 -277 -389 -412q-66 -63 -125 -98q-57 -36 -117 -24q-65 14 -65 81q-3 65 28 148q62 173 183 383q195 340 264 448q166 258 242 361q4 5 11 16.5t11 16.5q-1 0 -2 1t-2 1z" />
    <glyph glyph-name="l_l" unicode="ll" horiz-adv-x="1032" 
d="M-252 -639q7 2 13 5.5t14.5 11t9.5 8.5q117 99 287 276q136 146 475 528q89 98 127 134q68 65 121 157q123 212 297 414q10 11 129 158q8 9 24.5 27.5t24.5 27.5q1 1 7.5 8.5t8.5 9.5t8 7.5t10 7t10 3t13 1.5q48 -3 66 -41q8 -16 -4 -39q-4 -7 -13.5 -21.5t-13.5 -21.5
q-40 -62 -178 -248q-121 -157 -240 -334q-81 -121 -135 -211q-44 -72 -111 -211q-20 -35 -10 -43q4 -5 11 -2t10.5 6t10 10t9.5 9q126 98 262 215q62 52 213 176q13 13 37 21q19 4 25 -4q5 -10 -2 -25q-8 -12 -29 -33q-42 -40 -120.5 -114t-115.5 -109q-15 -14 -46 -43.5
t-49.5 -47t-45.5 -41t-51 -42.5q-25 -20 -66 -45q-83 -48 -161 -8q-32 13 -35 59q-4 49 30 135q18 45 23 64q-4 -5 -12.5 -15.5t-12.5 -15.5q-222 -262 -286 -334q-229 -260 -373 -393q-50 -44 -102 -84q-58 -38 -123 -35q-75 10 -78 82q0 64 20 123q57 165 166 362
q202 367 404 672q155 229 348 481q36 47 127 162.5t139 179.5q12 18 22 22t27 -3q69 -25 27 -96q-41 -72 -133 -195q-160 -220 -471 -686q-182 -273 -307 -500q-136 -242 -203 -413q-18 -42 -25 -68q-9 -28 -4 -41z" />
    <glyph glyph-name="m_t" unicode="mt" horiz-adv-x="1736" 
d="M1937 1055q14 0 30 2t35.5 5.5t29.5 4.5q254 44 469 66q150 12 221 16q96 3 176 -23q100 -37 100 -137q0 -48 -41 -102q-7 -11 -18 -19q-11 -11 -19 -6q-10 5 0 19q12 27 27 51q26 50 17.5 79t-52.5 46q-65 23 -170 16q-102 -5 -360 -35q-216 -28 -461 -71
q-9 -2 -20.5 -3.5t-16 -2.5t-10.5 -2t-9 -3t-6.5 -4t-6.5 -7t-6.5 -9t-10 -13.5t-12.5 -17.5q-302 -432 -498 -747q-168 -264 -311 -555q-49 -111 -78 -195q-10 -23 -10 -47q7 0 13 3t12.5 8t9.5 7q59 48 196 185q74 74 285 303q33 37 134 152t171 191t141 146q30 35 68 62
q12 8 18 4q8 -3 4 -16q-3 -23 -24 -52q-1 -1 -41 -47q-87 -97 -242 -279.5t-196 -230.5q-233 -264 -379 -399q-27 -25 -103 -84q-58 -41 -121 -35q-37 3 -57 24t-22 56q-3 55 20 125q60 173 166 360q220 399 403 672q31 48 93.5 136.5t72.5 103.5q11 15 19 28
q-30 -17 -92 -75q-238 -218 -359 -324q-10 -9 -58.5 -51.5t-67 -59t-55.5 -50.5t-65 -61.5t-55 -56.5q-30 -30 -100 -88q-68 -54 -154 -41q-29 4 -43 28.5t-8 55.5q2 12 6 25.5t7.5 23.5t11 25t11 22.5t13 25t12.5 22.5q19 34 43.5 73t42.5 65.5t50.5 72.5t46.5 67
q10 15 41 74q-19 -4 -39 -20q-114 -88 -219 -218q-27 -32 -71.5 -97.5t-64.5 -90.5q-6 -8 -18 -24.5t-18 -24.5q-22 -33 -70 -37q-26 0 -53 10q-24 12 -21 43q4 23 31 72q120 182 229 309q22 33 23 37q-66 -46 -111 -88q-128 -128 -207 -219q-20 -23 -38.5 -49t-42 -63.5
t-33.5 -51.5q-25 -37 -49.5 -47.5t-61.5 -1.5q-3 1 -10 3t-10 3q-22 8 -26.5 21t5.5 38l60 111q65 121 129 209q142 200 153 215q9 13 35 43q24 27 55 18q26 -4 62 -36q13 -10 2 -39q-2 -5 -23 -43q-1 -2 -4.5 -7t-5 -9.5t-0.5 -8.5q8 0 20 12q14 12 42 34.5t42 33.5
q40 28 45 31q51 34 91.5 23t52.5 -62q4 -4 6 -8q14 9 42 28.5t42 28.5q40 25 84 16q71 -19 82 -65q11 -38 -4 -86q-16 -45 -49 -99q-116 -175 -158 -241q-3 -6 -13.5 -22.5t-16 -28.5t-9.5 -25q15 3 39 27q85 79 166 151q12 11 33.5 31.5t39.5 36t35 28.5q48 33 93 74
t106.5 103t83.5 83q145 139 311 277q3 3 10 8.5t12 11t9 11.5q-27 3 -57 -4q-252 -33 -527 -23q-141 7 -213 62q-24 17 -32 38q-5 7 -5 21q0 17 17 14q8 -4 12 -8q65 -52 209 -59q122 -5 307 6q133 9 365 39q54 9 86 51q28 36 101 130t112 146q15 20 26 23.5t29 -4.5
q63 -28 21 -96q-17 -30 -115 -172q-19 -24 -19 -35z" />
    <glyph glyph-name="n_t" unicode="nt" horiz-adv-x="1443" 
d="M1348 920q-27 1 -32 1.5t-31.5 -3.5t-31.5 -5q-246 -32 -526 -22q-137 7 -209 61q-24 17 -35 39q-2 6 -2 23q0 15 17 12q8 -4 12 -8q67 -53 209 -60q110 -4 307 7q179 15 365 39q4 1 13 3t13 3q25 3 45 26q24 30 71.5 91t70.5 92q27 34 88 116q12 15 22 19t25 -2
q37 -17 42.5 -41.5t-16.5 -57.5q-24 -40 -114 -172q-20 -25 -21 -34q15 0 30.5 2t34.5 5.5t29 4.5q244 42 471 65q185 15 222 17q96 3 176 -23q100 -37 100 -139q0 -49 -41 -100q-3 -4 -20 -21q-11 -7 -17 -4q-7 2 -2 16q17 34 25 48q30 54 21 84.5t-62 50.5q-53 18 -156 14
q-164 -11 -362 -37q-157 -18 -463 -72q-56 -9 -61 -12t-37 -49q-320 -458 -500 -747q-188 -304 -309 -558q-45 -91 -80 -192q-9 -36 -6 -47q5 0 9.5 2t7.5 4.5t8 7t7 6.5q75 61 199 185q44 44 87 90t111 120.5t85 92.5q46 51 136.5 153.5t163 182t142.5 149.5q41 41 70 62
q15 10 22 6q5 -3 0 -21q-5 -27 -35 -61q-94 -105 -157 -180q-234 -276 -320 -373q-230 -261 -366 -387q-51 -45 -107 -86q-55 -38 -119 -35q-77 6 -80 82q-3 57 19 121q58 165 168 364q217 393 405 674q25 38 72 105.5t61 87.5q1 2 5 6t5.5 7t0.5 7q-7 0 -19 -12
q-54 -54 -109 -106.5t-145 -136t-112 -103.5q-33 -30 -125 -131q-67 -73 -193 -189q-62 -57 -147 -63q-55 -3 -74.5 22.5t-1.5 87.5q20 77 98 203q43 70 168 227q14 19 15 25q-16 -7 -31.5 -17.5t-34.5 -24.5t-27 -20q-158 -116 -278 -239q-45 -48 -68 -82
q-72 -107 -88 -129q-29 -38 -57 -49.5t-74 0.5q-18 3 -22.5 13t2.5 30q12 31 24 51q135 231 318 479q53 65 77 88q25 28 56 19q22 -6 37 -21q34 -31 8 -74q-3 -8 -12.5 -26.5t-14.5 -30.5q7 3 13 7t13 10t9 8q109 83 121 90q34 24 67 37q50 18 93 0q73 -34 26 -117
q-58 -100 -112 -176q-104 -147 -150 -242q-21 -37 -24 -57q9 3 16 7t16.5 13t10.5 10q49 45 103 97.5t120 118t102 100.5q227 227 418 389q71 60 113 109z" />
    <glyph glyph-name="o_t" unicode="ot" horiz-adv-x="1417" 
d="M1120 641q-27 -25 -159 -152q-174 -160 -314 -256q-116 -80 -215 -83q-22 0 -39 -21q-40 -43 -96 -86q-7 -5 -22.5 -15.5t-22.5 -15.5q-66 -36 -119.5 -29.5t-87.5 42.5q-43 43 -29 129q37 222 220 358q77 61 106 86q68 59 144.5 51t105.5 -76q25 -61 -10 -161
q-37 -89 -86 -160q-1 -2 -5 -6t-6 -7.5t-2 -7.5q5 -3 6.5 -3.5t7.5 2.5t7 3q58 21 153 89q65 49 238 204q102 92 315 289q50 43 68 66q-36 2 -119 -11q-124 -12 -180 -16q-223 -11 -352 0q-79 6 -140 35q-34 14 -61 47q-10 13 -12 25q-5 16 4 22q9 7 20 -4q70 -55 211 -59
q187 -3 377 12q47 4 137.5 14.5t134.5 14.5q4 2 11 2q58 10 66 16q7 4 35 40q2 4 5 7q127 160 205 266q13 17 24.5 21t28.5 -2q63 -24 25 -92q-20 -37 -78 -121q-12 -18 -35 -51t-26 -37q10 -5 36 0q292 51 529 73q176 19 272 17q59 -3 119 -19q89 -29 106 -110
q14 -65 -38 -133q-4 -6 -15 -17q-16 -12 -24 -8q-6 6 2 23q18 32 28 55q22 41 16 67.5t-40 45.5q-34 16 -94 20q-111 5 -293 -14q-73 -8 -383 -52q-45 -7 -136.5 -22.5t-136.5 -22.5q-24 -4 -43 -34q-136 -193 -176 -254q-242 -358 -350 -533q-190 -310 -301 -545
q-58 -126 -78 -192q-1 -3 -3 -8.5t-3 -9t-2 -7.5t0 -7t4 -5q3 -4 9 -1.5t9 4.5t9 7.5t8 7.5q96 77 289 279q74 78 153 165t180.5 202t149.5 168q26 30 55 60.5t68.5 70.5t56.5 57q11 11 39 31q15 10 21 6q3 -3 3.5 -6.5t-0.5 -9t-1 -7.5q-6 -17 -19 -37q-31 -39 -49 -59
q-76 -85 -222 -257t-222 -257q-235 -269 -394 -412q-41 -38 -94 -73q-58 -36 -123 -23q-57 12 -63 72q-3 57 16 119q42 126 127 290q215 409 463 779q17 24 50.5 72.5t49.5 72.5q-2 2 -4 2zM362 244l7 2q8 8 10 12q76 87 127 231q11 32 8 64q-3 21 -27 12q-29 -12 -55 -41
q-53 -54 -75.5 -133t-2.5 -137q4 -9 8 -10zM240 303q-32 -50 -56 -117q-25 -59 -30 -100q-3 -24 18 -12q74 48 127 98q14 17 2 29q-29 23 -47 71q-1 3 -3 9.5t-4.5 12t-6.5 9.5z" />
    <glyph glyph-name="s_s" unicode="ss" horiz-adv-x="913" 
d="M238 285q-15 -59 -15 -138q0 -17 4 -19t21 7q39 20 115.5 61t115.5 62q28 16 82 44t62 32q27 12 30 39q6 108 78 200q54 71 139 113q60 28 115 19q68 -11 88 -84q12 -43 -29 -84q-46 -51 -112 -95q-63 -42 -152 -86q-28 -11 -28 -39q-4 -10 -1.5 -54t3 -53t6 -52t6.5 -52
q5 -32 15.5 -95t15.5 -95q11 -93 0 -156q-5 -42 -35 -90q-51 -72 -135 -69q-82 6 -135 43q-76 48 -113 100q-27 40 -33 90q-3 48 31 62q37 12 49 -33q1 -7 2.5 -19.5t3.5 -22.5t6 -18q27 -66 103 -112q32 -19 65.5 -5.5t55.5 54.5q23 39 26 94q8 112 -16 248
q-19 110 -21 180q0 15 -1.5 19t-6.5 3.5t-20 -8.5q-68 -38 -193 -106t-172 -94q-23 -12 -26.5 -18t-2.5 -29q7 -130 -36 -234q-54 -131 -185 -164q-133 -34 -209 19q-29 21 -37 37q-30 50 17 125q42 61 100 102q63 47 146 96q22 12 26 19t4 30q-4 133 11 209q32 186 172 299
q87 68 186 109q75 29 143 8t99 -59q29 -40 8 -88q-62 -128 -162 -187q-62 -39 -113 -22l-12 6q-20 8 -16 22q2 13 24 17q126 51 178 200q9 28 1 35t-39 -2q-65 -20 -146 -86q-71 -61 -110 -127q-33 -57 -41 -108zM43 -160q10 39 10 94q3 23 -18 11q-95 -58 -141 -113
q-21 -30 -27 -45q-18 -64 43 -96q22 -12 37 -8.5t35 26.5q44 52 61 131zM770 410q27 5 47 22q12 9 46 35.5t57 45.5t43 38q19 16 32 39q1 2 5 8t4.5 7.5t-0.5 6.5q-3 6 -25 2q-65 -14 -127.5 -74t-81.5 -130z" />
    <glyph glyph-name="s_t" unicode="st" horiz-adv-x="1439" 
d="M1204 719q-5 0 -24 -14q-63 -52 -187 -142t-143 -104q-92 -69 -442 -312q-25 -18 -73 -49.5t-59 -38.5q-20 -14 -23 -20.5t1 -26.5q18 -119 18 -157q0 -96 -43 -172q-79 -145 -233 -148q-135 -3 -207 66q-52 52 -41 129q10 52 72 104q17 16 35 30.5t47.5 35.5t36.5 26
q56 41 108 76q26 14 23 39q-2 18 -6.5 56.5t-6.5 56.5q-9 102 27 204q3 9 9.5 33.5t12.5 38.5q46 103 142 173.5t203 76.5q136 9 192 -113q21 -45 -10 -102q-72 -126 -213 -180q-48 -19 -82 20q-19 19 12 35q52 24 91.5 62t86.5 98q38 42 21 67q-3 5 -7.5 7.5t-9 3.5t-12 0
t-12 -2t-13 -3.5t-12.5 -3.5q-149 -42 -223 -207q-35 -78 -27 -206q1 -17 5.5 -18.5t21.5 9.5q41 26 115 76t102 68q222 146 404 282q43 31 119 89t104 79q88 65 158 121q12 8 12 15q-12 4 -41 0q-145 -18 -293 -27q-123 -4 -182 -2q-140 4 -203 24q-58 16 -96 54
q-20 17 -23 43q0 11 8 14q4 4 13 0q2 -1 5 -3t5 -3q56 -45 151 -55q8 -1 37 -3.5t42 -3t36.5 -0.5t42.5 3q12 2 37 2q95 -2 283 14q51 5 146.5 16.5t117.5 14.5q39 5 65 41q178 226 222 286q12 17 22 21t27 -2q69 -25 26 -97q-18 -33 -82 -124q-37 -53 -45 -66
q-12 -18 11 -18q4 0 20 4q262 46 494 69q213 21 305 19q81 -3 135 -27q74 -29 86 -102q15 -66 -41 -135q-21 -27 -33 -21q-3 2 -4.5 5t-0.5 6.5t2.5 7t3.5 8t3 6.5q5 11 17 32t16 31q22 51 -16 82q-35 27 -105 31q-104 5 -239 -8q-250 -25 -484 -64q-37 -6 -110.5 -18.5
t-110.5 -18.5q-33 -3 -55 -34q-224 -325 -258 -377q-217 -322 -328 -512q-185 -312 -272 -512q-4 -11 -15.5 -39.5t-18 -48.5t-11.5 -39q-8 -24 -6 -37q7 0 12.5 2.5t13 9.5t8.5 8q57 47 166 152q62 61 124 127t152.5 166.5t119.5 132.5q35 39 112 125t136 150.5t116 121.5
q41 41 70 62q12 7 17.5 3t2.5 -16q-3 -23 -41 -71q-14 -16 -42.5 -49t-43.5 -50q-21 -24 -157 -183.5t-209 -242.5q-218 -250 -387 -409q-57 -54 -105 -86q-68 -49 -133 -35q-68 12 -68 82q-2 52 29 147q29 77 70.5 164.5t75 149t88.5 159.5q21 35 57.5 98.5t67.5 116.5
t59 99q154 245 299 444q14 19 14 27zM78 -211q15 60 8 115q-2 14 -6 15t-19 -9q-63 -43 -129 -103q-36 -34 -57 -79q-22 -49 4 -93q10 -18 37 -18q35 0 66 25q72 55 96 147z" />
    <glyph glyph-name="t_t" unicode="tt" horiz-adv-x="1052" 
d="M377 772q-173 -20 -201 -24q-78 -10 -190 -17q-173 -12 -258 -8q-180 7 -279 51q-157 65 -199 203q-26 92 9.5 189t124.5 173q63 56 112 72q42 12 55 -20q11 -20 -12 -37q-7 -5 -21.5 -14.5t-21.5 -14.5q-142 -108 -184 -256q-28 -102 41 -162q63 -55 180 -76
q133 -22 385 -10q106 8 256 25q98 9 262 35q31 3 49 30q94 121 332 432q15 19 25.5 22.5t29.5 -5.5q62 -27 23 -92q-39 -69 -98 -148q-22 -33 -64.5 -91t-54.5 -75q-19 -24 -14 -32q2 -3 6 -4t7.5 -0.5t9 2.5t7.5 2q164 27 455 71q31 5 51 31q40 50 84 96q18 21 34.5 25.5
t37.5 -4.5l9 -4.5t10.5 -6.5t8.5 -6q25 -25 7 -61q-2 -3 -6.5 -10.5t-6.5 -10.5q-3 -12 6 -12q3 0 9 1t8 1q350 45 424 51q147 14 252 19q260 11 290 10q340 -9 424 -18q103 -11 164 -25q49 -15 62 -22q43 -24 37 -76q-3 -15 -13.5 -26.5t-25.5 -14.5q-17 -4 -23 2
q-2 2 -1 6t1 5t2.5 5t3.5 6q11 20 9.5 24.5t-21.5 10.5q-64 16 -150 23q-267 15 -540 6q-157 -7 -424 -37q-187 -19 -531 -68q-48 -6 -55 -10.5t-39 -46.5q-179 -231 -344 -479q-105 -160 -198 -348q-6 -12 -15 -39q0 -14 2 -15q4 -1 17 5q46 32 65 49q28 26 82 70t76 63
q43 36 130 108.5t130 108.5q32 27 49 31q21 8 27 0q10 -13 -4 -31q-13 -20 -27 -31q-22 -21 -107.5 -101t-130.5 -124q-121 -117 -196 -174q-28 -25 -66 -45q-83 -45 -162 0q-22 12 -26 53t29 137q4 11 14 32t14 30q-8 -2 -18 -17q-150 -179 -303 -354q-231 -259 -361 -379
q-68 -61 -108 -88q-55 -40 -117 -37q-81 6 -84 82q0 62 20 121q57 167 166 366q208 378 406 670q24 37 74 109.5t75 109.5q18 23 21 33zM1069 870q-8 6 -27 2q-299 -49 -426 -65q-48 -6 -75 -47q-75 -114 -275 -412q-207 -312 -364 -614q-93 -176 -142 -316q-13 -40 -10 -53
q7 0 12.5 3t13.5 10t9 8q70 55 197 182q58 58 116.5 121t143 157t112.5 125q32 34 144.5 162t179.5 193q70 67 123 159q96 166 250 359q16 16 18 26z" />
    <glyph glyph-name="u_t" unicode="ut" horiz-adv-x="1435" 
d="M596 -672q7 2 13 5.5t14.5 11t9.5 8.5q104 86 264 254q54 56 111.5 119.5t129.5 144t109 121.5q20 22 75 83t83.5 92.5t73.5 79.5t84 87q33 33 59 49q16 10 20 6q7 -5 3 -20q-9 -28 -41 -68q-15 -16 -43.5 -48t-42.5 -48q-60 -70 -181 -212t-182 -212
q-211 -241 -389 -412q-50 -47 -109 -88q-66 -48 -133 -33q-65 12 -65 80q-2 55 28 148q64 173 185 387q185 325 280 473q152 232 209 311q3 6 11 16.5t10 14.5q-11 -2 -25 -16q-18 -18 -139 -137.5t-187 -180.5q-19 -19 -92 -91t-121.5 -116t-99.5 -84q-43 -37 -88 -53
q-48 -19 -92 -10q-66 13 -66 76q0 12 -4 18q-4 1 -20 -10q-70 -56 -76 -60q-70 -50 -145 -28q-44 14 -47 67q0 49 20 107q44 126 135 258q31 44 91.5 123.5t74.5 97.5q24 33 42 39t48 -8q20 -10 23 -13q20 -15 22 -28.5t-12 -42.5q-38 -73 -105 -172q-106 -168 -151 -256
q-20 -40 -21 -49q11 -2 25 12q26 22 80 65.5t80 65.5q15 11 35 43q11 16 35.5 55t39.5 60q58 82 187 219q38 39 63.5 42.5t55.5 -26.5q15 -15 16 -25t-14 -34q-62 -76 -123 -156q-123 -157 -207 -313q-20 -39 -21 -51q-1 -9 3 -11.5t10 2.5q5 3 15 10.5t15 10.5
q95 78 224 211q283 290 536 510q12 10 49.5 43t59.5 53q-20 2 -56 -2q-159 -21 -319 -27q-139 -6 -256 2q-106 7 -170 45q-25 14 -45 37q-12 20 -12 31q-4 11 6 18q6 6 14 -2q8 -4 12 -8q59 -42 174 -53q15 -6 146.5 -2t146.5 4q26 0 74.5 4.5t67.5 5.5q53 3 151.5 16.5
t128.5 16.5q43 6 68 41q213 276 221 287q19 27 47 18q68 -24 29 -96q-15 -29 -72 -109q-6 -10 -24 -35t-27 -40q-11 -15 -8.5 -20.5t20.5 -2.5q22 3 65 10t64 10q323 50 522 64q143 11 224 0q31 -5 77 -23q67 -28 82 -98q12 -69 -41 -137q-22 -27 -34 -21q-3 2 -4.5 4.5t0 7
l2.5 7.5t4 9t4 7q17 31 28 58q26 60 -18 88q-36 25 -100 28q-104 5 -238 -8q-283 -29 -524 -69q-161 -27 -178 -29q-40 -6 -60 -39q-50 -74 -145 -211t-115 -166q-232 -351 -325 -508q-66 -114 -100.5 -175.5t-85 -159t-85.5 -179.5q-37 -85 -47 -127q-8 -24 -4 -39z" />
    <glyph glyph-name=".notdef" horiz-adv-x="843" 
d="M823 0h-823l330 1434h825zM784 49l310 1335h-725l-308 -1335h723zM483 455h-32q-12 95 0 147q14 73 131 217q117 148 131 217q14 57 -11.5 90t-85.5 33q-58 0 -137 -55l10 45q98 72 187 72q93 0 138.5 -46t25.5 -128q-10 -50 -46.5 -101t-115.5 -129q-89 -85 -129 -131
q-52 -55 -60 -98q-9 -40 -6 -133zM416 213q-12 0 -19 10l-45 72q-4 9 -2 16q0 9 17 23l69 57q10 10 23 10q8 0 18 -10l43 -59q7 -13 4 -21q-3 -11 -14 -22l-72 -62q-14 -14 -22 -14z" />
    <glyph glyph-name=".null" horiz-adv-x="0" 
 />
    <glyph glyph-name="nonmarkingreturn" horiz-adv-x="682" 
 />
    <glyph glyph-name="space" unicode=" " horiz-adv-x="407" 
 />
    <glyph glyph-name="space" unicode="&#xa0;" horiz-adv-x="407" 
 />
    <glyph glyph-name="exclam" unicode="!" horiz-adv-x="903" 
d="M1241 1548q-1 -2 -18 -35q-12 -22 -37.5 -61.5t-30.5 -46.5q-66 -100 -182.5 -285.5t-153.5 -242.5q-116 -183 -327 -521.5t-271 -433.5q-24 -40 -41 -55q-31 -31 -59 -19q-11 6 -15.5 21t0.5 33q7 21 37 75q213 389 414 736q149 265 231 401q113 188 345 490
q22 28 38.5 31t38.5 -17q14 -11 27 -31q8 -20 4 -39zM39 -276q31 0 49 -18t18 -48q0 -6 1.5 -18.5t1.5 -18.5q3 -28 -25 -53q-73 -65 -129 -17q-2 2 -6 6.5t-6 6.5q-41 44 -11 94q17 28 47.5 46t59.5 20z" />
    <glyph glyph-name="quotedbl" unicode="&#x22;" horiz-adv-x="428" 
d="M287 1245q8 31 28 64q37 67 97 155q19 30 34 43q29 26 52 11q33 -18 47 -66q4 -20 -25 -53q-23 -26 -65 -78.5t-47 -58.5t-15.5 -18.5t-15.5 -18.5q-18 -31 -23 -45q-12 -35 -37 -17q-41 33 -30 82zM475 1245q7 28 29 64q41 75 96 155q18 28 35 43q28 25 51 11
q33 -18 47 -66q4 -21 -24 -53q-4 -4 -113 -137q-5 -6 -15.5 -18.5t-15.5 -18.5q-15 -26 -22 -45q-12 -35 -37 -17q-42 34 -31 82z" />
    <glyph glyph-name="numbersign" unicode="#" horiz-adv-x="1320" 
d="M410 449h-23.5t-24.5 -4t-24 -5q-18 -1 -49.5 -7t-42.5 -7q-29 -4 -48 14.5t-14 46.5q3 27 35 45q43 25 88 37q104 33 193 41q54 6 86 49q28 35 106 117q31 31 49 43q19 12 30 13t26 -9q14 -10 28 -30q14 -21 12 -36t-22 -38q-38 -44 -57 -68q-8 -9 -6 -14t12 -4
q37 4 109.5 5t109.5 5q24 3 37 16q5 5 27 25.5t32 32.5q80 80 123 117q26 23 42.5 23.5t35.5 -21.5q2 -3 7 -9.5t7 -9.5q13 -21 11.5 -37.5t-21.5 -40.5q-12 -13 -34 -38t-33 -39q-7 -9 -8.5 -14t2.5 -7t14 -2q49 -2 118 -21q47 -15 68 -59q13 -22 2 -35q-15 -17 -37 -10
q-27 5 -60 7t-56.5 2t-64 -0.5t-58.5 -0.5q-38 3 -64 -30q-49 -63 -151 -189q-13 -13 -15 -22q7 -7 33 -7q95 3 184 -12q49 -6 80 -37q15 -15 6 -32q-10 -15 -32 -19h-17q-30 1 -64.5 0t-76 -3t-64.5 -3q-20 -1 -60.5 -3t-61.5 -3q-24 -3 -43 -25q-33 -43 -103 -129
q-114 -141 -219 -291q-15 -22 -27.5 -27.5t-35.5 -0.5q-18 4 -27 8q-19 9 -22 20t8 33q7 15 22.5 40.5t18.5 31.5q25 41 182 278q1 2 5.5 6.5t6 7t5 7.5t3 7.5t-1.5 6.5q-2 4 -7 5.5t-9 1t-12 -2.5t-11 -2q-48 -6 -51 -6q-35 0 -70 -35q-32 -33 -68 -69t-80.5 -80t-68.5 -68
q-6 -5 -17 -16.5t-17 -16.5q-23 -21 -44.5 -24.5t-48.5 8.5q-23 9 -29.5 24t-0.5 42q3 15 8 29t13.5 32t12.5 25.5t16.5 31.5t14.5 27q22 27 17 35q-3 6 -9 6.5t-16.5 -3t-13.5 -3.5q-29 -4 -41 -10q-22 -10 -35 10q-17 26 -2 47q16 23 41 35q68 39 133 51q43 9 68 49
q20 30 60 85.5t52 72.5q2 2 4.5 5t4 5t4 5t3.5 5.5t2 6t1 6.5zM836 502q-42 -4 -112.5 -11t-78.5 -8q-30 -3 -51 -30q-15 -20 -43 -58t-43 -57q-7 -10 -22.5 -31t-22.5 -31q-8 -12 -6.5 -16t16.5 -4q60 6 64 6q29 0 57 25q15 13 43 37t43 36q7 7 66 59t90 83zM803 406
q-106 -82 -156 -132q7 -4 27 -4q31 -5 55 29q8 12 26.5 36.5t26.5 37.5q20 25 21 33zM274 8q15 9 31.5 21.5t27 21.5t29 26t25.5 23q12 8 2 15q-7 5 -25 0.5t-24 -13.5q-11 -15 -32.5 -46.5t-33.5 -47.5z" />
    <glyph glyph-name="dollar" unicode="$" horiz-adv-x="856" 
d="M295 -143q-35 0 -62 8q-21 8 -38 -19l-30 -45t-40 -61q-12 -16 -21 -25q-17 -20 -41 -10q-20 9 -10 33q7 19 33 63q21 41 45 78q14 26 -4 39q-52 39 -74 86q-27 48 -24 100q3 43 34 52q17 6 30.5 -2t19.5 -27q1 -4 1 -9.5t-0.5 -12t-0.5 -9.5q-3 -66 47 -116
q10 -12 18.5 -10.5t20.5 18.5q78 127 94 153q29 50 51 82q17 28 0 51q-45 54 -70 127q-26 90 9 158q21 47 71 90q128 119 312 152q51 6 77 49q6 9 20 25t19 22q18 18 41 8q45 -22 15 -74q-11 -16 -10.5 -23t20.5 -15q90 -37 115 -136q20 -70 -52 -133q-76 -63 -116 -88
t-62 4q-17 26 12 49q51 48 82 95q15 18 27 49q7 15 4 20.5t-20 5.5q-56 -3 -111 -18q-19 -6 -35 -35q-8 -12 -149 -237q-22 -35 -58 -84q-19 -28 -4 -52q45 -61 58 -124q21 -96 -41 -166q-68 -79 -176 -86h-27zM547 559q-90 -41 -135 -110q-40 -59 4 -103q9 15 131 213z
M299 2q55 20 85.5 66t16.5 88q-5 -7 -43.5 -65t-58.5 -89z" />
    <glyph glyph-name="percent" unicode="%" horiz-adv-x="1169" 
d="M1311 1565q-95 3 -217 -43q-1 0 -4.5 -1t-4.5 -1q-38 -17 -43.5 -29t9.5 -43q24 -54 26 -59q38 -93 -39 -203q-57 -81 -137 -125q-62 -28 -110.5 -1t-51.5 75q-4 35 35 96q74 107 184 145q19 6 23 12t-2 23q-5 11 -16.5 34t-16.5 34q-12 28 -14 45q-3 41 35 63
q39 22 55 27q142 54 274 51q91 0 144 -53q71 -68 28 -178q-33 -77 -104 -177q-183 -255 -446 -561q-84 -99 -408 -458q-56 -61 -122.5 -136t-109.5 -124.5t-123.5 -143t-111.5 -129.5q-17 -22 -34 -26.5t-40 6.5q-23 10 -26.5 24.5t8.5 40.5q20 39 78 113q224 290 299 379
q30 36 109 130t120 142.5t106.5 124.5t122.5 141t113 127q176 195 365 441q62 80 106 170q3 11 10 22q6 25 -14 25h-55zM395 -215q6 28 23 56t32.5 45.5t43.5 45.5q43 43 84 64q31 17 49 15t39 -21q44 -44 57 -119q10 -78 -59 -129q-68 -53 -148 -74q-53 -15 -95.5 25
t-25.5 92zM492 -240q56 24 94 68t35 78q-31 -22 -71.5 -68t-57.5 -78z" />
    <glyph glyph-name="ampersand" unicode="&#x26;" horiz-adv-x="1249" 
d="M641 35q28 4 78 28q198 92 350 191q77 54 131 108q19 19 8 35q-13 16 6 35q17 17 41 10q34 -14 43 -48t-12 -72q-19 -39 -69 -89q-93 -99 -236 -170q-173 -89 -395 -157q-48 -15 -68 -58q-38 -87 -45 -122q-3 -19 0 -23t21 -4q20 0 22 -12q0 -16 -16 -29q-11 -8 -21 -10
q-31 -12 -64 1.5t-42 41.5q-9 37 2 102q9 46 3 52.5t-52 0.5q-138 -13 -222 43q-96 58 -86 158q5 69 76 143q66 73 191 127q106 47 217 68q1 0 14 3t19 9q-2 12 -19 29q-35 45 -47 98q-18 75 41 144q46 55 131 106q211 124 399 119q107 0 144 -100q22 -63 -37 -119
q-77 -74 -186 -127q-24 -7 -35 2q-16 13 2 31q8 8 35 26q67 45 112 105q2 2 9 11t9 11.5t7.5 11.5t4 11.5t-0.5 11.5q-2 6 -6.5 9t-11.5 3t-12.5 -0.5t-14 -2t-12.5 -1.5q-98 -11 -207 -61q-85 -35 -176 -97q-56 -34 -86 -77q-17 -26 -16.5 -41.5t20.5 -32.5q53 -44 127 -59
q22 -5 57.5 -23t40.5 -20q43 -20 4 -78q-110 -155 -152 -217q-16 -20 -18 -35zM637 268q-10 6 -29 2q-147 -27 -289 -98q-90 -44 -139 -98q-39 -45 -45 -74q-8 -31 -0.5 -43.5t37.5 -15.5q111 -12 234 16q22 6 34 29q33 77 138 211q7 9 27.5 32.5t31.5 38.5z" />
    <glyph glyph-name="quotesingle" unicode="'" horiz-adv-x="239" 
d="M287 1245q8 31 28 64q37 67 97 155q19 30 34 43q29 26 52 11q33 -18 47 -66q4 -20 -25 -53q-23 -26 -65 -78.5t-47 -58.5t-15.5 -18.5t-15.5 -18.5q-18 -31 -23 -45q-12 -35 -37 -17q-41 33 -30 82z" />
    <glyph glyph-name="parenleft" unicode="(" horiz-adv-x="940" 
d="M188 98q-33 -139 -30 -295q0 -59 24 -133q10 -29 41 -53q11 -11 6 -20q-5 -13 -24 -13q-78 -6 -119 43q-39 50 -57 148q-29 165 6 350q4 14 8.5 47.5t9.5 52.5q32 134 105 283q99 207 200 362q171 268 342 437q173 169 332 260q69 40 131 51q77 14 107 -21q22 -25 -8 -45
q-11 -8 -23 -4q-17 5 -43 -10q-61 -30 -145 -96q-286 -231 -549 -643q-167 -269 -273 -561q-30 -82 -41 -140z" />
    <glyph glyph-name="parenright" unicode=")" horiz-adv-x="940" 
d="M1010 1108q36 150 30 295q0 63 -24 133q-10 29 -41 53q-12 12 -6 23q7 10 24 10q78 6 119 -43q39 -51 57 -147q29 -166 -6 -349q-4 -17 -8 -51t-8 -51q-34 -130 -107 -283q-94 -196 -200 -362q-170 -267 -342 -434q-163 -163 -332 -262q-59 -36 -131 -52q-73 -13 -107 21
q-22 25 9 45q13 10 22 4q17 -5 43 10q61 30 145 96q285 230 549 644q168 271 273 563q30 79 41 137z" />
    <glyph glyph-name="asterisk" unicode="*" horiz-adv-x="538" 
d="M735 1462q9 0 13 4q24 14 45.5 7.5t35.5 -27.5q7 -13 4 -20.5t-20 -16.5q-58 -36 -115 -68q7 -6 15 -10t19.5 -7.5t15.5 -4.5q42 -19 53 -33q9 -13 2 -20q-7 -10 -23 -2q-39 13 -114 28q-3 0 -9.5 1t-9.5 1q-17 0 -14 -16q4 -14 24 -76q9 -23 9 -33q0 -9 -7 -14t-16 -2
q-11 2 -27 18q-6 6 -11 15t-8.5 16t-8.5 18.5t-8 18.5q-4 7 -7 9t-7 -0.5t-11 -10.5q-9 -11 -27.5 -33.5t-27.5 -34.5q-8 -12 -13 -18t-14.5 -11t-21.5 -3q-15 3 -22.5 17t-4.5 34v8q-14 -4 -28 -11t-31.5 -16t-26.5 -14q-34 -15 -53 4q-18 24 10 41q4 3 76 49q53 30 104 62
q-5 4 -10 5t-13.5 0t-9.5 -1q-10 0 -14.5 -3t-3.5 -14q0 -12 -18 -12q-57 10 -78 51q-8 13 -1 26.5t27 20.5q20 9 56 13q12 0 86 -11q13 0 16 3t3.5 5.5t-0.5 6t-1 4.5q-17 41 -27 74q0 1 -1 4.5t-1.5 5l-1.5 4.5t-1 5v5t1 5t2.5 4.5t3.5 5t5 4.5q6 4 12 3.5t9.5 -2
t10.5 -5.5t9 -5q20 -15 38 -47q9 -14 14 -13t17 20q17 20 31 40q27 30 53 15q35 -15 41 -53q0 -11 6 -13z" />
    <glyph glyph-name="plus" unicode="+" horiz-adv-x="606" 
d="M209 399q44 0 67 -2q25 0 41 25q31 49 97 143q20 34 45 53q22 22 43 11q60 -37 18 -97q-13 -18 -35.5 -52.5t-35.5 -51.5q-19 -26 -17.5 -31t29.5 -4q45 0 131 -8q35 -3 59 -27q11 -10 6.5 -21.5t-22.5 -17.5q-19 -8 -41 -8q-32 1 -97.5 -3t-97.5 -3q-42 0 -67 -37
q-10 -14 -109 -151q-27 -36 -55 -27q-18 6 -22.5 23t6.5 37q13 29 51 90l18 30q11 20 -10 23q-11 0 -23.5 1t-27.5 2.5t-23 2.5q-28 3 -37.5 21t-11.5 49q0 25 35 28q13 1 27 1t31 -0.5t26 -0.5z" />
    <glyph glyph-name="comma" unicode="," horiz-adv-x="167" 
d="M143 41q4 -10 4 -33q-6 -34 -22 -65q-39 -79 -90 -148q-20 -29 -53 -26q-19 2 -23.5 10t4.5 28q8 18 30.5 62.5t33.5 69.5q35 67 28 108q-2 16 21 21q17 6 38 -3t29 -24z" />
    <glyph glyph-name="hyphenminus" unicode="-" horiz-adv-x="645" 
d="M393 391q6 0 61 1t93.5 0t75.5 -5q36 -3 65 -25q12 -10 8.5 -23t-22.5 -22q-7 -3 -33 -8q-90 -6 -266 -18q-132 -8 -197 -6q-23 0 -35 2q-57 9 -57 65q0 28 29 33q30 6 63 6h215z" />
    <glyph glyph-name="hyphenminus" unicode="&#xad;" horiz-adv-x="645" 
d="M393 391q6 0 61 1t93.5 0t75.5 -5q36 -3 65 -25q12 -10 8.5 -23t-22.5 -22q-7 -3 -33 -8q-90 -6 -266 -18q-132 -8 -197 -6q-23 0 -35 2q-57 9 -57 65q0 28 29 33q30 6 63 6h215z" />
    <glyph glyph-name="period" unicode="." horiz-adv-x="184" 
d="M74 -84q-28 0 -51 19t-25 42v11q3 20 24.5 41t49.5 32q42 17 63 -18q1 -3 7 -12t8 -15q11 -33 -11 -61q-25 -32 -65 -39z" />
    <glyph glyph-name="slash" unicode="/" horiz-adv-x="1411" 
d="M1722 1458l-12 -16t-14 -19q-44 -47 -90 -90q-195 -194 -732 -737q-156 -156 -440 -447t-364 -372q-36 -36 -54 -47q-38 -21 -57 -2q-9 8 -9 25t9 32q23 36 55 68q314 359 578 647q186 205 600 630q176 184 448 412q26 23 43 21.5t31 -27.5q13 -26 15 -39q3 -19 -7 -39z
" />
    <glyph glyph-name="zero" unicode="0" horiz-adv-x="868" 
d="M772 963q-38 -22 -82 -66q-43 -43 -139 -156q-195 -244 -305 -487q-67 -141 -84 -225q-11 -55 -8 -92q1 -29 9 -32.5t36 11.5q89 48 168 121q286 262 452 571q88 162 96 305q6 71 -32 127q-9 19 -33 19q-25 -4 -39 8q-17 13 -10 29q9 20 30 20q28 4 46 -4
q174 -72 159 -266q-5 -58 -41 -139q-110 -245 -311 -486q-136 -161 -248 -256q-68 -59 -141 -102q-126 -70 -229 -13q-35 24 -43 58q-11 37 -11 84q6 110 54 235q78 203 202 385q87 127 199 242q8 8 35 35.5t40 40t35 32.5t41 35q66 46 89 54q40 15 81 4.5t58 -41.5
q17 -27 -2 -58q-10 -10 -21 -28q-2 -2 -4.5 -6t-4.5 -6.5t-5 -5t-6 -4t-6 -1.5q-22 3 -25 29q0 2 1.5 8t1.5 11.5t-3 9.5z" />
    <glyph glyph-name="one" unicode="1" horiz-adv-x="757" 
d="M979 1042q-4 -8 -16 -28q-238 -356 -385 -547q-131 -168 -431 -592q-71 -99 -73 -102q-24 -35 -62 -43q-35 -6 -49.5 12.5t0.5 50.5q21 49 68 127q116 191 387 612q88 137 287 381q110 133 151 172q2 2 7 7.5t7 7.5q23 20 39.5 22t36.5 -10q41 -23 33 -70z" />
    <glyph glyph-name="two" unicode="2" horiz-adv-x="1099" 
d="M451 -57q44 -18 118 -29q128 -18 267 6q8 2 29 7t34 7q47 10 64 -24q8 -25 -17 -45q-28 -16 -45 -21q-196 -52 -338 -22q-63 13 -172 51q-36 12 -72 -12q-89 -59 -169 -86q-49 -15 -95.5 1t-66.5 54q-14 26 -9.5 44t31.5 42q62 53 133 68q41 11 68 8q26 -2 61 22
q128 92 314 252q161 141 286 269q161 168 238 292q37 59 51 115q8 29 3 40.5t-31 18.5q-73 19 -172 -4q-179 -45 -340 -172q-52 -38 -97 -104q-34 -49 -39 -92q-3 -20 1.5 -27t23.5 -10q29 -3 45 -19q9 -14 6 -22q-5 -10 -22 -14q-42 -7 -68 6q-54 23 -71.5 77.5t8.5 120.5
q27 80 88 144q249 252 553 258q86 3 145 -56q115 -124 49 -301q-63 -174 -239 -362q-185 -202 -433 -391q-32 -25 -88 -64q-30 -24 -32 -26z" />
    <glyph glyph-name="three" unicode="3" horiz-adv-x="1120" 
d="M782 438q2 -5 6 -8t10.5 -5t8.5 -3q65 -37 104 -86q58 -72 39 -173.5t-110 -185.5q-199 -187 -445 -196q-177 -6 -307 121q-62 62 -68 145q-3 37 15 72q24 44 69 53q15 2 22 -2.5t11 -17.5q3 -23 -6 -48q-30 -119 74 -196q16 -10 55 -10q88 0 191 41q169 67 286 192
q64 67 74 131q4 25 2 35q-3 20 -10 27t-29 8q-65 3 -156 -25q-52 -13 -100 6.5t-65 61.5q-14 31 16 57q10 8 35.5 30.5t40.5 33.5q287 220 432 340q67 55 133 118q21 21 29 31q18 20 16.5 26.5t-25.5 8.5q-196 19 -389 -64q-127 -54 -219 -133q-52 -46 -86 -96
q-40 -64 -18 -125q10 -30 39 -33l30 -6q33 -7 48 -20q8 -12 4 -21q-6 -12 -19 -12q-47 -4 -69 2q-139 39 -142 197q0 74 60 153q67 91 200 166q216 124 432 139q151 11 230 -53q63 -50 80 -119q14 -55 -21 -114q-20 -33 -59 -76q-103 -105 -299 -256q-24 -19 -74.5 -55.5
t-75.5 -55.5z" />
    <glyph glyph-name="four" unicode="4" horiz-adv-x="1142" 
d="M899 399q22 5 59.5 14.5t42.5 10.5q21 5 64 16.5t65 16.5q27 4 39 2q35 -4 37 -21q3 -20 -39 -37q-5 -2 -14 -5t-14 -5q-50 -17 -291 -90q-40 -11 -66 -47q-40 -55 -84 -117.5t-97.5 -139t-82.5 -118.5q-11 -14 -32 -43t-33 -43q-26 -32 -65 -40t-64 14q-15 12 -5 38
q21 45 39 76q49 92 172 295q16 27 17 33q-3 3 -7 3.5t-6.5 0t-7.5 -2t-6 -1.5q-16 -4 -54.5 -14t-66.5 -16t-55 -9q-137 -17 -217 29q-30 20 -35 24q-32 25 -22 78q11 46 49 98q69 105 180 213q5 5 33.5 33t36.5 35.5t33.5 32.5t37 35.5t34 31.5t38 34.5t35.5 30.5t39 32
q72 58 157 112q3 2 8.5 5t8.5 5q46 26 81 19t54 -47q8 -15 -4 -27q-3 -3 -9.5 -9t-9.5 -9q-42 -33 -90 -75.5t-79 -72.5t-87.5 -84.5t-80.5 -77.5q-122 -119 -236 -251q-39 -48 -53 -78q-10 -19 -7.5 -24t21.5 -3q126 15 342 66q23 5 37 30q10 16 29.5 49t29.5 50
q98 161 320 450q68 88 158 195q43 50 73 76q22 15 35.5 16.5t32.5 -8.5q8 -4 10 -6q38 -28 40.5 -51t-28.5 -70q-258 -404 -424 -625q-14 -19 -16 -33z" />
    <glyph glyph-name="five" unicode="5" horiz-adv-x="1198" 
d="M557 508q17 4 49.5 12t48.5 12q130 30 205 13q146 -33 185 -157t-56 -275q-60 -93 -172 -174q-186 -132 -360 -156q-93 -16 -174 2q-157 31 -232 115q-24 24 -33 61q-10 42 18.5 90t76.5 70q11 6 37 10q15 1 19.5 -3t4.5 -19q-3 -27 -16 -60q-1 -4 -6.5 -16t-6.5 -19
q-13 -47 2.5 -80t57.5 -47q65 -21 143 -6q288 55 477 277q52 60 84 139q20 50 17 102q-1 23 -8 29t-31 8q-61 5 -154 -16q-107 -28 -278 -101q-36 -16 -54 -22q-54 -20 -105.5 -0.5t-68.5 65.5q-7 25 6 44q8 13 31 45q114 161 283 337q81 87 170 179q34 36 98 82
q43 35 90.5 48t112.5 19q86 8 127 12q120 7 188 -20q38 -12 64 -45q7 -11 10 -19q11 -24 -8 -40q-22 -15 -41 4q-12 14 -39 14q-39 0 -117 -12q-98 -18 -158 -35q-56 -14 -112 -57q-66 -53 -160 -158q-51 -56 -205 -232q-10 -15 -10 -20z" />
    <glyph glyph-name="six" unicode="6" horiz-adv-x="1148" 
d="M37 164q31 134 125 285q182 282 442 481q191 144 348 192q104 31 178 15q69 -12 107 -66q10 -13 10 -29q2 -14 -6.5 -21.5t-21.5 -4.5q-21 7 -78 -6q-105 -27 -248 -115q-188 -117 -365 -307q-151 -157 -237 -312q-57 -100 -82 -186q-23 -89 0 -156q26 -80 127 -71
q215 20 434 170q119 81 195 172q77 89 94 184q0 6 2 10q9 59 -10.5 80t-79.5 17q-29 -3 -58 -13q-325 -111 -516 -368q-16 -19 -26 -43q-21 -42 -17 -64q6 -24 -22 -24q-33 3 -53 25t-17 54q3 50 37 107q81 135 207 252q121 115 272 170q96 35 178.5 22t140 -53.5
t87.5 -97.5q46 -87 -19 -213q-53 -103 -161 -193q-183 -162 -414 -241q-225 -77 -402 -4q-206 86 -155 331q1 3 2 10.5t2 10.5z" />
    <glyph glyph-name="seven" unicode="7" horiz-adv-x="1118" 
d="M969 1237q113 3 207 -49q79 -44 124 -146q31 -81 -18 -168q-32 -60 -94 -129q-114 -132 -314 -315q-185 -170 -352 -303q-141 -114 -321 -277q-4 -4 -12.5 -12t-12.5 -12q-18 -26 -51 -19q-22 4 -55 33q-13 16 0 39q16 26 41 55q27 31 80 87.5t61 64.5q257 274 321 338
q126 128 326 305q149 134 221 223q44 61 51 78q11 22 7.5 32t-23.5 17q-88 31 -184 25q-103 -6 -221 -31q-191 -39 -359 -131q-60 -35 -86 -65q-17 -20 -17 -27.5t15 -22.5q13 -10 16 -24q3 -9 -2 -15t-16 -6q-6 0 -22 4q-50 19 -70 80q-6 24 8 56q24 53 70 90
q101 84 213 127q241 98 469 98z" />
    <glyph glyph-name="eight" unicode="8" horiz-adv-x="1079" 
d="M205 -168q-113 0 -174 64q-44 44 -29 112q13 59 55 131q78 130 230 279q86 86 223 186q17 12 18 17t-10 18q-47 59 -65 135q-18 92 51 176q28 35 76 76q252 203 546 240q104 14 166 -64q39 -52 4 -115q-23 -52 -57 -88q-88 -99 -158 -159q-204 -172 -317 -244
q-4 -4 -12 -8q-12 -11 -13 -16t9 -13q20 -17 38 -27q83 -65 123 -116q12 -18 33 -60q22 -43 17.5 -89t-25.5 -86.5t-57 -78.5q-63 -71 -183 -127q-234 -116 -444 -141q-3 0 -11 -1t-12 -1h-22zM178 -82q38 3 90 16q225 50 406 170q95 65 139 144q38 73 6 139q-7 12 -35 45
q-19 18 -57.5 44t-48.5 34q-23 14 -49 -4q-77 -52 -144 -113q-183 -166 -278 -309q-52 -78 -62 -123q-6 -28 -0.5 -35.5t33.5 -7.5zM580 797q-12 -56 18 -115q12 -16 27 -4q80 59 114 88q52 48 82 74q77 62 223 192q62 55 95 92q19 24 16 31q-1 3 -3.5 5t-6.5 1.5t-7 -1
t-7.5 -2t-6.5 -1.5q-203 -46 -362 -156q-75 -49 -115 -92q-56 -63 -67 -112z" />
    <glyph glyph-name="nine" unicode="9" horiz-adv-x="1042" 
d="M727 616q-11 -5 -28.5 -17.5t-20.5 -14.5q-117 -94 -240 -174q-49 -31 -84 -45q-70 -26 -121 -7q-40 13 -67 37q-51 39 -37 137q10 74 64 166q91 163 235 289q110 98 240 168q126 68 219 68q94 0 153 -62q31 -27 43 -51q6 -15 21 0q9 12 20 23q17 17 29 20t31 -6
q45 -19 71 -72q14 -20 -6 -51q-5 -7 -14 -21.5t-14 -21.5q-72 -91 -196.5 -264.5t-166.5 -229.5q-143 -192 -278 -329q-180 -177 -412 -273q-67 -25 -127 -22q-32 4 -47 16q-20 12 -10 31q11 19 32 16q5 -4 17.5 -2t17 2t16.5 5.5t16.5 7.5t17 8t16.5 8q132 74 256 211
q82 90 239 291q70 90 103 135q14 14 12 24zM977 1096q-67 -3 -150 -45q-92 -44 -227 -158q-166 -141 -276 -332q-26 -43 -33 -72q-3 -15 1 -18t19 6q112 72 115 74q233 170 487 381q15 13 44.5 39t43.5 39q17 15 20 33.5t-1 33.5q-1 6 -4 9.5t-8 5.5t-9 2.5t-11.5 1
t-10.5 0.5z" />
    <glyph glyph-name="colon" unicode=":" horiz-adv-x="358" 
d="M74 -84q-28 0 -51 19t-25 42v11q3 20 24.5 41t49.5 32q42 17 63 -18q1 -3 7 -12t8 -15q11 -33 -11 -61q-25 -32 -65 -39zM401 588q-26 0 -49 19t-24 42v10q3 20 24 42t49 32q40 18 62 -18q12 -16 14 -27q14 -32 -8 -61q-25 -32 -68 -39z" />
    <glyph glyph-name="semicolon" unicode=";" horiz-adv-x="393" 
d="M143 41q4 -10 4 -33q-6 -34 -22 -65q-39 -79 -90 -148q-20 -29 -53 -26q-19 2 -23.5 10t4.5 28q8 18 30.5 62.5t33.5 69.5q35 67 28 108q-2 16 21 21q17 6 38 -3t29 -24zM436 588q-26 0 -49.5 19t-24.5 42v10q3 20 24.5 42t49.5 32q40 18 62 -18q12 -16 14 -27
q14 -32 -8 -61q-25 -32 -68 -39z" />
    <glyph glyph-name="less" unicode="&#x3c;" horiz-adv-x="696" 
d="M86 328q3 73 55 147q68 96 181 203q135 130 333 272q8 6 36.5 28t45.5 34q44 33 84 6q33 -22 45 -49q8 -18 4.5 -32.5t-22.5 -31.5q-22 -21 -63.5 -56t-55.5 -48q-179 -151 -307 -287q-101 -113 -133 -174q-37 -70 -8 -139q18 -39 57 -82q64 -67 154 -119q48 -23 77 -29
q27 -3 58 -18q12 -6 20 -14q11 -11 6 -25q-6 -14 -24 -18q-12 -2 -35 -2q-41 3 -82 16q-231 91 -371 264q-47 55 -53 137q0 3 -1 9t-1 8z" />
    <glyph glyph-name="equal" unicode="=" horiz-adv-x="669" 
d="M375 293q156 0 207 -6q44 -3 73 -35q17 -21 4 -45q-13 -21 -43 -21q-47 -3 -135.5 -11t-160.5 -13t-136 -6q-21 0 -61 4q-48 6 -60 53q-12 46 43 61q71 19 136 19q0 1 66 0.5t67 -0.5zM307 389q-33 0 -53 2q-35 1 -57 29.5t-17 64.5q6 27 31 35q12 4 37 4q79 2 231 -10
q21 -2 64 -5t65 -5q43 -3 80 -12t49 -39q16 -40 -30 -50h-17q-46 1 -133 -3.5t-125 -4.5q-16 0 -57.5 -3.5t-67.5 -2.5z" />
    <glyph glyph-name="greater" unicode="&#x3e;" horiz-adv-x="696" 
d="M803 596q-3 -77 -55 -147q-61 -88 -181 -203q-135 -130 -331 -273q-14 -10 -42 -30.5t-42 -30.5q-44 -32 -82 -8q-35 24 -47 49q-8 20 -4.5 34t22.5 31q39 35 121 105q186 158 305 287q101 113 133 174q39 73 8 139q-18 39 -57 82q-64 67 -154 119q-45 21 -78 26
q-25 5 -57 21q-8 4 -20 12q-11 11 -6 27q7 12 26 18q10 2 33 2q45 -3 82 -18q230 -87 371 -262q50 -59 53 -140q0 -2 1 -7t1 -7z" />
    <glyph glyph-name="question" unicode="?" horiz-adv-x="1449" 
d="M1341 1704q119 -3 193 -41q67 -32 111 -99.5t52.5 -162t-40.5 -203.5q-65 -145 -207 -287q-139 -144 -393 -301q-36 -22 -139 -84t-158 -98q-148 -93 -340 -262q-126 -112 -180 -189q-33 -47 -39 -61q-13 -24 -35 -16q-29 10 -38 35t5 57q47 112 143 233q45 55 152 150
q178 151 465 321q19 12 74.5 45.5t83.5 51t71.5 46.5t77.5 54q185 133 285 260q91 120 114 223q4 12 9 56q9 100 -82 131q-117 47 -256 12q-253 -63 -418 -272q-109 -136 -94 -293q6 -52 45 -72q16 -7 47.5 -22.5t48.5 -22.5q28 -16 39 -31q8 -12 2 -20q-6 -9 -20 -4
q-126 13 -192.5 86t-68.5 198q0 194 181 361q142 132 284 180q109 41 217 41zM33 -274q28 7 51 -19q35 -40 37 -78q0 -25 -23 -41q-49 -42 -96 -28q-43 15 -63 51q-22 46 6 82q29 36 78 33h10z" />
    <glyph glyph-name="at" unicode="@" horiz-adv-x="1056" 
d="M637 244q-7 -6 -22.5 -18.5t-22.5 -18.5q-44 -39 -103 -64q-61 -28 -110.5 1.5t-44.5 91.5q6 63 41 126q58 107 139 185q13 13 25 22q72 64 144.5 63.5t123.5 -63.5q11 -16 27 0q0 2 4 6q11 7 20.5 10.5t20.5 0.5t14.5 -4t16.5 -9l14 -8q36 -22 16 -61q-20 -36 -59 -101
q-85 -137 -113 -200q-16 -40 -16 -62q10 -2 30 13q79 49 172 168q78 110 101 229q13 68 -16 131t-92 98.5t-140 24.5q-122 -19 -252 -117q-116 -89 -217 -235q-123 -177 -148 -342q-19 -131 39 -217q56 -87 181 -68q155 23 270 102q25 19 59 33q15 6 21.5 1t1.5 -19
q-11 -26 -27 -39q-30 -26 -53 -39q-203 -111 -414 -86q-195 26 -223 229q-21 167 61 344q108 233 304 385q104 77 208 115q228 76 404 -45q62 -45 92 -96q66 -111 16 -246q-78 -202 -249 -346q-72 -59 -142 -56q-5 1 -15 3.5t-15 3.5q-46 11 -63.5 38t-10.5 78q1 7 4 25.5
t4 28.5q-1 1 -3 2t-3 2zM461 240q10 -2 18 6q127 93 254 217q18 21 15 37q-3 21 -9 39q-5 19 -30 10q-41 -20 -78 -57q-81 -81 -142 -187q-20 -33 -28 -65z" />
    <glyph glyph-name="A" unicode="A" horiz-adv-x="1873" 
d="M389 -78q-1 5 -16 10q-96 21 -162 111q-53 70 -82 166q-35 111 9 230t151 216q174 154 405 176q241 24 465 -100q11 -7 19 -10q13 -8 20.5 -6.5t22.5 14.5q41 36 87 76t102 88.5t87 75.5q113 102 301 260q241 198 459 340q68 42 113 63q73 32 131 -20q44 -41 16 -113
q-30 -75 -86 -168q-74 -120 -322 -489q-53 -80 -206 -330q-152 -244 -308 -557q-66 -129 -100 -256q-41 -147 -27 -266q10 -43 15 -54q9 -17 19.5 -20.5t33.5 2.5q7 2 47 12q17 4 21 -2q5 -10 -7 -26q-29 -29 -69 -35q-64 -7 -105 10t-65 74q-11 26 -15 61q-21 120 -2 256
q15 129 74 260q34 81 21 168q-36 255 -179 422q-26 29 -35.5 28.5t-43.5 -32.5q-32 -30 -157 -148t-192 -182q-76 -71 -226 -215t-226 -215q-86 -84 -252 -219q-31 -25 -66 -43q-47 -27 -88 -6q-9 6 -7.5 15.5t11.5 13.5q10 3 19.5 7t20 10.5t16.5 10t18 13.5l15 12.5
t16.5 15t15.5 13.5q114 97 271 254q2 2 6.5 6t7 6.5t5 7t3.5 8.5zM811 758q-53 0 -100 -8q-222 -40 -365 -201q-134 -149 -119 -324q11 -124 105 -221q29 -29 78 -45q16 -5 32 10l66 66q75 78 326 325q15 14 63.5 57.5t73.5 69.5q7 8 28 30t31.5 32.5t28.5 28t34 30.5t33 25
q1 1 3.5 3t3.5 3q9 11 10 16t-8 13q-3 3 -13 8q-144 85 -311 82zM1520 195q11 22 20 34q119 212 205 346q33 52 72 109.5t86 126.5t73 107q42 62 120.5 173.5t109.5 157.5q121 176 159 238q1 2 5 7.5t6 9t3.5 8.5t0.5 10q-12 -4 -23 -9.5t-26.5 -16t-20.5 -13.5
q-167 -104 -424 -309q-116 -89 -332 -275q-18 -15 -63.5 -53.5t-76.5 -66.5t-58 -56q-12 -15 -41 -39q-31 -26 -32 -34.5t22 -33.5q123 -132 178 -292q5 -17 17 -60t20 -69z" />
    <glyph glyph-name="B" unicode="B" horiz-adv-x="2095" 
d="M1421 496q4 -2 31 -2q183 -3 313 -56q147 -62 201 -190q53 -137 -47 -279q-84 -119 -221 -207q-73 -45 -113 -67q-140 -75 -325 -117q-230 -47 -429 -14q-155 23 -243 108q-54 54 -74 103q-4 8 -10 10q-6 0 -17 -16q-17 -21 -50.5 -64.5t-51.5 -64.5q-25 -33 -33 -62
q-18 -57 -65 -33q-65 35 -25 111q38 72 94 147q42 57 107 140q18 24 24 51q24 139 144 332q6 10 61 90q15 23 13 29.5t-25 7.5q-119 14 -191 57q-169 97 -221 268q-14 46 -14 105q0 110 108 237q96 108 228 183q18 10 51.5 31.5t50.5 31.5q29 15 81.5 41t70.5 35
q61 32 168 71q226 83 418 117q11 2 51.5 10t58.5 11.5t49 8t56 5.5q196 12 294 12q220 0 385 -57q164 -59 170 -238q3 -110 -98 -233q-85 -101 -178 -170q-164 -124 -211 -154q-187 -117 -399 -227q-71 -39 -172 -90q-13 -4 -15 -12zM1155 543q17 0 37 12q269 128 635 336
q218 127 327 215q116 91 187 178q43 52 67 113q12 36 -12 57q-39 28 -82 43q-187 65 -454 55q-263 -6 -514 -69q-262 -65 -445 -148q-171 -76 -340 -194q-67 -49 -119 -103q-168 -180 -71 -346q67 -116 221 -162q24 -6 74 -12t73 -12q15 -4 31 16q60 78 100 125
q267 310 641 621q12 9 27 18q18 15 37 2q26 -15 35 -59t-6 -76q-45 -83 -115 -176q-23 -29 -143.5 -189.5t-190.5 -244.5zM1587 373q-22 4 -129 4q-229 -6 -479 -66q-29 -10 -45 -28q-96 -110 -119 -136q-39 -44 -116.5 -132t-116.5 -132q-18 -21 -15 -41q9 -79 74 -123
q66 -42 166 -55q232 -34 483 43q256 77 439 227q101 81 147 170q65 125 -29 191q-3 2 -10 6t-10 6q-79 49 -240 66zM1169 799q-29 -19 -96.5 -87t-138.5 -151q-68 -79 -129 -163t-64 -105q80 102 239.5 286.5t188.5 219.5z" />
    <glyph glyph-name="C" unicode="C" horiz-adv-x="1767" 
d="M502 -463q-224 0 -357 94q-179 123 -135 367q36 211 217 485q104 156 303 355q140 140 285 256q313 245 543 360q208 107 366 129q132 21 207 -14q122 -55 151 -170t-40 -246q-58 -113 -178 -223q-262 -239 -609 -352q-144 -50 -262 -27q-60 14 -86 43l-5 6q-5 5 -5.5 7
t-2.5 6.5t-0.5 8.5t5.5 9q14 18 41 2q6 -4 12.5 -6.5t14.5 -4t14 -2t15.5 0t14 0.5t16 2.5t14.5 3t16.5 3.5t15.5 3q131 24 295 104q208 98 371 240q153 138 219 295q27 61 24 133q0 68 -67 74q-59 6 -113 -2q-103 -18 -239 -82q-231 -105 -506 -320q-230 -174 -424 -377
q-207 -214 -328 -411q-110 -174 -145 -363q-17 -116 22 -192q50 -96 162 -111q172 -27 389 33q309 87 606 313q116 90 191 162q4 4 14.5 14t15 15t13 14t13 16t10 16.5t8.5 18.5q5 18 24 15q28 -5 38 -29.5t-5 -52.5q-21 -41 -64 -84q-245 -257 -546 -391
q-228 -102 -412 -132q-76 -12 -137 -12z" />
    <glyph glyph-name="D" unicode="D" horiz-adv-x="2082" 
d="M1837 1692q198 -4 299 -43q160 -64 227 -187q101 -179 21 -411q-72 -211 -146 -334q-168 -292 -313 -463q-143 -168 -291 -305q-165 -153 -346 -254q-137 -77 -258 -111q-223 -60 -381 101q-17 18 -53 69q-7 9 -12.5 8.5t-12.5 -10.5q-22 -38 -77 -113.5t-78 -117.5
q-19 -30 -19 -51q0 -30 -35 -33q-24 0 -41.5 15t-17.5 38q0 21 4 33q40 138 101 233q26 35 102 158q14 20 14 45q-12 131 68 332q0 1 1 3t1 3q19 35 16.5 44t-45.5 17q-198 44 -311 193q-114 149 -6 360q97 193 307 346q198 148 414 242q323 143 671 182q39 3 108 6.5
t89 4.5zM1915 1593q-219 -3 -387 -32q-332 -60 -637 -213q-240 -120 -410 -293q-130 -133 -168 -238q-56 -148 9 -248q44 -66 124 -112q24 -13 55 -23t68.5 -20t57.5 -17q17 -6 26 13q2 4 7.5 12t7.5 12q45 76 127 184q139 185 346 396q99 99 215 186q55 38 90 55
q35 22 67 0q34 -25 38.5 -56t-19.5 -75q-37 -69 -78 -127q-105 -152 -508 -716q-34 -48 -131.5 -182.5t-148.5 -209.5q-25 -40 -11 -67q31 -67 68 -109q57 -69 160 -51q43 7 112 29q176 65 328 184q147 110 305 272q214 217 408 510q141 216 219 398q67 164 65 270
q-3 139 -106 193q-49 26 -70 34q-104 41 -229 41zM651 127q413 562 658 897q-9 2 -21 -10q-66 -61 -82 -80q-138 -141 -241 -266q-182 -216 -285 -457q-27 -72 -29 -84z" />
    <glyph glyph-name="E" unicode="E" horiz-adv-x="1804" 
d="M524 315q-48 12 -102 43q-44 26 -70 62q-57 82 -4 205q42 95 144 221q130 155 325 303q179 136 377 248q189 107 377 176q165 56 319 59q178 7 252 -114q40 -59 35 -137.5t-57 -149.5q-51 -71 -121 -135q-149 -136 -389 -273q-158 -90 -324 -145q-135 -43 -227 -31
q-42 3 -76 33q-8 8 -14 20q-4 13 4 21q6 8 22 4q84 -22 217 27q336 131 619 333q167 122 229 267q25 55 25 104q3 39 -33 51q-67 25 -160 11q-206 -22 -479 -166q-196 -102 -350 -211q-300 -220 -463 -418q-89 -106 -127 -195q-13 -33 -16 -65q-2 -24 6 -34.5t31 -14.5
q62 -12 124 -15q120 -4 181 4q65 11 104 -38q18 -20 12 -33.5t-36 -22.5q-38 -14 -108.5 -37t-102.5 -34q-174 -64 -322 -160q-119 -76 -192 -172q-36 -47 -43 -111q-9 -64 47 -82q50 -15 102 -18q147 -9 315 31q458 106 844 364q106 69 176 139q28 28 31 43q8 20 31 17
q25 -6 31 -26.5t-9 -45.5q-18 -27 -26 -35q-71 -74 -131 -119q-129 -101 -336 -206q-255 -129 -473 -187q-155 -41 -305 -53q-160 -10 -271 35q-87 36 -129 100q-55 87 -2 187q59 110 180 200q43 33 100.5 65t91.5 47t107 46q15 6 27 12z" />
    <glyph glyph-name="F" unicode="F" horiz-adv-x="1675" 
d="M1534 1624q41 3 170.5 14t198.5 13q36 1 75.5 3t88 5t75.5 4q28 0 60 14q143 58 315 68q56 3 96 -8q49 -12 68 -60q13 -33 -29 -53q-30 -13 -88 -20q-57 -13 -106 -13q-18 -1 -76.5 -6t-89.5 -4q-24 0 -64 -16q-144 -64 -293 -193q-213 -187 -419 -461
q-177 -234 -256 -364q-1 -1 -4.5 -6.5t-4.5 -8.5q-1 -1 -5.5 -8.5t-4 -9t1.5 -8.5l7.5 -2.5t9.5 2t10 2.5q25 4 105.5 22t125.5 21q25 3 37 24q27 42 57 68q15 13 37.5 13.5t39.5 -11t18 -29.5q2 -9 -15 -34q-21 -35 -78 -121q-39 -60 -55 -111q-8 -31 12 -35q9 -3 12 -11
t-3 -17q-9 -15 -33 -15q-31 5 -52 32t-20 61q0 28 8 49q2 7 7.5 22.5t7.5 22.5q8 20 4 24.5t-27 1.5q-22 -4 -74 -16q-65 -18 -172 -37q-31 -6 -47 -33q-106 -173 -151 -241q-14 -21 -57 -86t-65 -97t-58.5 -81.5t-69.5 -88.5q-110 -130 -203 -202q-130 -101 -248 -119
q-135 -19 -237 31q-53 27 -53 94q0 28 17.5 55.5t43.5 42.5q23 13 29 -6q8 -16 8 -45q0 -35 2 -51q5 -29 26.5 -46.5t53.5 -17.5q71 3 149 49q116 66 211 174q86 101 215 304q21 34 58.5 93.5t68.5 109.5t58 94q8 8 10 14q9 14 7 18.5t-19 3.5q-40 -4 -125 0
q-239 10 -385 123q-164 123 -193 324q-25 162 109 332q64 82 194 161q174 108 420 177q99 26 307 67q45 9 129 21t117 18zM1968 1552q-11 11 -31 7q-120 -12 -233 -21q-315 -29 -592 -92q-233 -53 -403 -141q-159 -83 -256 -205q-100 -131 -97 -254q12 -236 209 -322
q34 -13 86 -26q127 -30 357 -23q27 0 49 31q139 221 325 455q169 215 291 337l26 26l28 28t26 25.5t28.5 27.5t27 24.5t30 25.5t28.5 22.5t31 23.5q13 9 37 26.5t33 24.5z" />
    <glyph glyph-name="G" unicode="G" horiz-adv-x="1638" 
d="M201 233q-24 -72 -21 -122q3 -53 51 -64q52 -13 125 -6q137 14 244 49q203 67 389 156q39 17 62 53q112 160 213 256q127 120 249 162q65 21 109 16q37 -3 67 -38.5t27 -73.5q-3 -32 -28 -60q-41 -48 -119 -108q-185 -141 -381 -238q-34 -16 -55 -51q-40 -60 -107.5 -174
t-91.5 -152q-165 -266 -275 -393q-101 -113 -170 -158q-85 -58 -161 -61q-54 -3 -101 20q-162 80 -204 271q-6 22 -3 47q4 37 36 62t69 20q14 -2 18.5 -8t3.5 -21q-3 -28 -18 -51q-27 -51 -8 -101q11 -32 45 -79q42 -45 97.5 -44t111.5 37q90 60 178 164q90 107 227 324
q22 34 60 97.5t45 74.5q2 2 14 20q3 9 0 13.5t-12 1.5q-15 -6 -29 -13q-197 -75 -340 -106q-132 -27 -227 -14q-160 25 -221 159q-25 61 -7 160q22 121 113 281q203 348 533 633q261 228 530 358q250 119 449 137q148 17 235 -33q133 -71 121 -235q-5 -47 -47 -115
q-67 -102 -189 -199q-276 -216 -608 -309q-116 -34 -201 -24q-68 10 -98 53q-7 7 -10 16q-13 32 4 43q17 10 41 -6q9 -3 12 -12q9 -25 53 -21q48 6 101 25q265 93 416 174q167 88 280 199q104 100 150 198q2 5 6 15.5t6 15.5q7 25 2 37.5t-27 21.5q-58 28 -157 21
q-167 -13 -385 -107q-268 -121 -533 -340q-220 -183 -393 -401q-137 -170 -213 -324q-36 -66 -53 -129zM1495 553q-44 -22 -82 -57q9 6 37.5 26.5t44.5 30.5z" />
    <glyph glyph-name="H" unicode="H" horiz-adv-x="2070" 
d="M1980 602q14 3 40 10.5t40 10.5q28 8 41 6q17 -3 23 -13q16 -20 -8 -32q-18 -10 -43 -21q-77 -31 -138 -49q-30 -9 -47 -35q-38 -58 -113.5 -172.5t-113.5 -173.5q-148 -226 -197 -317q-142 -255 -213 -486q-16 -66 -18 -98q-4 -41 29 -41q7 -1 10 -2.5t5.5 -5t0.5 -10.5
q-2 -14 -25 -23q-47 -19 -94 4.5t-53 67.5q-8 71 16 166q68 263 240 602q68 132 217 360q36 60 37 62q8 14 5.5 17.5t-17.5 0.5l-57 -9t-56 -9q-22 -2 -101 -11.5t-129 -14t-98 -5.5q-22 0 -87.5 -5.5t-98.5 -2.5q-28 3 -45 -23q-17 -24 -63 -84t-70 -94q-7 -9 -217 -313
q-75 -107 -113 -248q-4 -12 -4 -21q-4 -23 1 -27.5t28 1.5q2 0 4 2q3 0 7.5 1.5t7.5 2t6.5 0.5t6 -2t4.5 -6q4 -15 -20 -39q-30 -26 -74 -15q-59 12 -71 74q-13 82 30 195q77 214 219 422q20 31 60 86t51 71t13 21.5t-2 8.5t-21 5q-143 21 -264 76q-175 84 -236 219
q-54 121 2 256q57 141 174 258q195 200 490 338q175 81 323 117q140 32 228 18q85 -14 136.5 -76t47.5 -145q-5 -72 -49 -172q-32 -73 -123 -219q-86 -133 -264 -375q-23 -31 -69.5 -94.5t-70.5 -95.5q-5 -10 -8 -13q-12 -18 8 -18h19q171 3 344 24q106 11 242 31q12 4 20 4
q32 3 53 37q162 239 344 481q237 314 394 492q99 110 161 162q2 2 6.5 5t6.5 5q41 33 64 35t61 -31q31 -31 -2 -70q-7 -11 -35 -38q-163 -191 -379 -484q-140 -188 -340 -481q-19 -24 -19 -35zM315 817q0 -5 -3 -28t-3 -35q5 -132 129 -205q116 -64 342 -82q25 -2 49 29
q52 69 196 250.5t218 283.5q158 217 223 361q29 68 37 131q4 30 -4.5 42t-38.5 17q-59 11 -133 -2q-234 -45 -438 -158q-269 -148 -434 -342q-113 -133 -140 -262z" />
    <glyph glyph-name="I" unicode="I" horiz-adv-x="1245" 
d="M1006 389q-54 -11 -86 -20q-226 -51 -426 24q-136 49 -201 137q-122 163 -53 367q50 147 200 287q175 157 455 278q271 117 575 191q173 42 312 63q59 8 141 25q52 11 81.5 -17.5t35.5 -68.5q5 -23 -19 -58q-10 -14 -65 -79q-166 -194 -369 -498q-109 -162 -301 -467
q-229 -365 -412 -619q-128 -178 -256 -296q-112 -104 -194 -142q-157 -70 -287 -51q-52 9 -92 43q-29 29 -29 70q-3 45 31 82q17 22 29 18q8 -2 8 -25q2 -12 2 -36q-8 -55 29 -84t86 -27q92 6 172 68q91 72 192 192q144 165 320 442q21 31 59 92.5t45 71.5q2 4 7 11.5
t7.5 13.5t2.5 12zM1903 1636q-13 5 -43 0q-23 -4 -69 -13t-69 -13q-214 -44 -389 -97q-345 -105 -590 -253q-177 -108 -294 -248q-135 -165 -127 -318q6 -156 124 -209q72 -30 119 -41q208 -47 461 31q51 16 74 57q147 249 284 447q194 291 471 600q5 7 22 25.5t26 31.5z
" />
    <glyph glyph-name="J" unicode="J" horiz-adv-x="1509" 
d="M1010 2q32 42 139 203q42 63 91.5 141.5t77 123.5t90.5 150.5t79 131.5q194 315 358 530q110 150 279 293q51 46 112 94q14 10 19 21q-6 3 -27 -2q-72 -15 -215 -46t-215 -47q-474 -105 -819 -276q-268 -131 -444 -315q-113 -116 -148 -228q-57 -168 68 -250
q78 -53 229 -75q62 -9 172 -9q8 1 17 1t20.5 -0.5t17.5 -0.5q21 0 39 -12q8 -8 6 -18q-5 -9 -16 -13q-25 -8 -35 -10q-303 -45 -487 86q-88 64 -125 168q-37 92 12 205q71 174 227 315q93 86 162 133q172 118 393 205q196 77 484 150q169 41 409 88q52 9 157 29.5t157 29.5
q22 4 135 29q31 7 57 24q29 17 51 -2q30 -23 35 -57q6 -31 -26 -47q-16 -8 -31.5 -16.5t-33 -20t-29 -18.5t-31.5 -22l-28 -21t-30.5 -24t-27 -21.5t-30.5 -24.5t-28 -23q-150 -129 -278 -288q-39 -48 -172 -240q-76 -109 -232 -373q-144 -243 -155 -260q-21 -34 -78 -121
q-23 -36 -66 -107.5t-65 -107.5q-200 -299 -375 -467q-128 -115 -223 -165q-259 -138 -469 -9q-86 52 -107 144t25 202q113 260 367 359q211 81 397 33q95 -24 151 -101q18 -25 13 -51q-19 3 -49 33q-51 51 -132 63q-63 6 -139 -4q-229 -25 -387 -203q-128 -141 -139 -286
q-5 -88 59.5 -142t165.5 -30q85 21 164 75q140 97 272 252q107 122 185 242z" />
    <glyph glyph-name="K" unicode="K" horiz-adv-x="1734" 
d="M1987 -668q-119 0 -248 54q-198 84 -342 208q-162 136 -254 359q-46 108 -88 252q-2 8 -5.5 24.5t-5.5 22.5q0 1 -1 4.5t-1.5 5t-2 3t-3.5 1.5q-8 2 -18 -14q-70 -96 -131 -176q-26 -36 -80 -108.5t-80 -108.5q-30 -39 -98 -160q-11 -18 -11 -35q0 -31 -30 -41
q-44 -17 -84 -4q-34 8 -27 51q5 29 35 109q134 289 297 495q3 4 8 11.5t8 11.5q13 19 13 25t-13 18q-47 44 -32 119q4 23 0 26t-29 -4q-231 -54 -408 60q-110 72 -143 194q-31 122 57 275q70 119 205 237q192 171 488 297q184 72 329 96q219 38 342 -71q118 -103 56 -273
q-71 -204 -258 -481q-100 -148 -256 -348q0 -1 -2 -2q-1 -1 -1.5 -1t-1.5 -1q-1 -2 -4 -6l-4.5 -6t-3 -5t-2 -5.5t0.5 -5.5t3 -5q2 -3 4.5 -4t6 0t6.5 2t7.5 3t6.5 3q156 72 348 189q333 198 424 256q146 90 397 241q273 161 424 234q93 47 176 69q51 15 80 -26q6 -6 6 -19
q0 -12 -7.5 -18t-16.5 0q-8 7 -20 7t-18.5 -3t-21.5 -10q-89 -41 -231 -129q-365 -228 -770 -473q-326 -199 -487 -285q-124 -67 -242 -117q-4 0 -8 -4q-17 -8 -20 -12.5t3 -18.5q4 -9 47 -104q73 -162 168 -313q127 -200 318 -324q127 -81 217 -115q87 -32 153 -32
q37 0 68 28q9 9 27.5 26.5t27.5 26.5q33 23 33 -12q0 -17 -12 -35q-20 -33 -55 -57q-110 -78 -213 -72zM358 831q-25 -80 11 -157q55 -118 170 -131q120 -12 237 14q81 14 117 64q0 2 6 8q49 49 109 33q30 -8 49 -21q20 -11 35 10q2 7 10 15q215 297 270 378
q102 155 160 277q36 78 41 131q6 53 -13.5 77t-66.5 30q-71 6 -147 -9q-217 -37 -459 -166q-229 -125 -371 -278q-125 -132 -158 -275zM893 393q10 7 10 8q11 15 34 44t34 44q21 23 10 52q-9 23 -27 2q-34 -37 -53 -86q-15 -37 -8 -64z" />
    <glyph glyph-name="L" unicode="L" horiz-adv-x="1251" 
d="M426 -449q46 15 70 21q304 102 667 149q303 41 502 39q93 -3 178 -18q58 -11 107 -51q24 -24 32 -51q8 -15 5 -25t-11 -14q-10 -5 -14 2l-6 6q-19 44 -92 55q-90 16 -209 6q-155 -9 -303 -30q-281 -36 -578 -121q-134 -37 -332 -107q-14 -4 -41.5 -12t-42.5 -12
q-42 -11 -75 6q-53 26 -70 65q-10 23 2 49q26 54 57 93q207 291 414 542q36 44 101 126.5t79 99.5q2 3 7.5 9t7.5 9q10 13 -7 16h-38q-196 -3 -322 33q-81 23 -135.5 47t-97.5 62q-114 96 -95 241q9 67 66 164q70 119 207 236q277 241 633 381q184 70 309 92q102 18 190 4
q81 -18 127 -82q84 -125 2 -303q-59 -137 -182 -309q-125 -183 -369 -490q-207 -264 -723 -893q-19 -23 -20 -35zM829 477h93q30 -3 53 27q123 153 147 182q237 289 379 490q64 89 111 176q42 74 51 145q4 23 -0.5 31t-24.5 16q-16 6 -49 10q-73 12 -188 -10
q-336 -67 -647 -264q-232 -143 -369 -317q-95 -124 -115 -230q-18 -100 58 -145q57 -37 129 -58q168 -53 372 -53z" />
    <glyph glyph-name="M" unicode="M" horiz-adv-x="2320" 
d="M1550 1362q16 11 44.5 32t31.5 23q66 46 164 96q72 34 118 25.5t81 -63.5q34 -54 18 -134q-14 -80 -74 -200q-145 -309 -272 -561q-117 -239 -172 -361l-4 -12q8 2 18 16q162 205 381 473q119 144 326 365q233 243 452 412q100 74 236 149q1 0 3 1t3 1q3 1 17.5 8t20 9
t16 5t18.5 1t16 -7q55 -41 47 -102q-3 -39 -28 -78q-39 -69 -156 -231q-10 -14 -227 -311q-191 -265 -301 -449q-196 -320 -281 -551q-74 -195 -82 -358q0 -17 4 -49q2 -15 7.5 -19.5t23.5 -3.5q28 4 80 8q22 1 25 -6.5t-11 -26.5q-19 -26 -49.5 -39.5t-61.5 -9.5
q-57 12 -88 60q-29 40 -36 123q-3 97 20 217q45 246 195 526q103 188 284 446q159 223 424 560q94 117 121 157q-8 4 -23 -6q-92 -63 -210 -158q-181 -147 -439 -417q-149 -156 -354 -412q-220 -278 -406 -537q-31 -43 -79 -102q-23 -27 -42.5 -31.5t-43.5 10.5
q-68 41 -48 127q23 103 76 236q85 219 293 621q195 380 232 454q27 56 45 111q5 14 1.5 17t-18.5 -1q-19 -5 -65 -29q-148 -80 -273 -190q-29 -23 -47 -72q-102 -239 -246 -481q-144 -237 -419 -629q-106 -147 -256 -317q-46 -53 -84 -82q-47 -33 -90 -12q-94 43 -54 153
q7 17 60 121q152 269 219 391q10 19 6.5 23.5t-25.5 1.5q-89 -11 -184 8q-141 31 -217 135q-95 124 -12 307q118 253 379 449q247 182 579 299q90 29 164 35q87 9 139.5 -23t79.5 -114q6 -23 10 -27zM270 596q-16 -56 -7.5 -96.5t48.5 -61.5q101 -46 191 -49q53 -2 155 -10
q29 -3 37 1t25 32q115 188 293 405q188 225 393 418q25 21 31 37q2 8 10.5 32.5t12 41t3.5 32.5q0 29 -24 37q-38 9 -101 2q-102 -12 -239 -69q-194 -81 -379 -213q-220 -159 -344 -338q-84 -122 -105 -201zM1237 883q-392 -428 -684 -1006q73 71 316 428.5t368 577.5z" />
    <glyph glyph-name="N" unicode="N" horiz-adv-x="2101" 
d="M1552 -285q27 124 84.5 249.5t147.5 279.5q59 100 175 279t150 233q187 303 242 401q88 164 107 281q2 7 3 15.5t1.5 18.5t1.5 15q0 43 -39 55q-63 23 -176 8q-97 -15 -189 -53q-210 -84 -393 -213q-1 -1 -8 -6.5t-9.5 -8t-7 -7.5t-7 -10t-3.5 -11q-26 -111 -131 -309
q-92 -169 -256 -422q-276 -425 -708 -909q-54 -58 -91 -88q-35 -28 -71 -17q-34 11 -47 32.5t-9 59.5q5 61 39 133q103 225 322 590q21 31 19 35.5t-35 7.5q-255 23 -388 170q-142 154 -22 383q71 140 201 254q337 298 759 398q140 37 252 12q108 -22 162 -129q1 -4 4 -13.5
t4 -13.5q6 -12 10.5 -13.5t18.5 7.5q102 66 174 104q188 95 338 132q78 16 150 16q112 0 178 -92q86 -117 22 -303q-40 -121 -143 -312q-107 -196 -311 -518q-185 -296 -285 -489q-92 -171 -137 -336q-20 -86 -15 -150q1 -24 8.5 -29.5t34.5 -0.5q42 5 52 4q28 0 8 -27
q-12 -20 -36.5 -31t-49.5 -8q-79 12 -109 80q-13 29 -16 74q-3 90 24 192zM1393 1473q-5 0 -22.5 -1.5t-27.5 -1.5q-107 -11 -231 -55q-312 -102 -561 -325q-90 -82 -127 -129q-108 -143 -125 -250q-22 -124 63 -183q67 -44 152 -73q67 -22 193 -41q25 -5 33.5 -1t21.5 27
q110 174 244 340q153 195 299 334q99 99 208 186q33 26 39 62q0 9 4 29q6 50 -34 61q-58 21 -129 21zM1434 1081q-1 0 -3.5 1t-3.5 1q-110 -102 -219 -223q-157 -182 -340 -452q-212 -314 -372 -648q-1 -2 -3.5 -6.5t-4 -7.5t-3 -7.5t-0.5 -8.5q11 11 17 20q106 131 168 205
q139 165 293 373q142 198 256 381q28 45 57 94t67 116t54 95q14 23 37 67z" />
    <glyph glyph-name="O" unicode="O" horiz-adv-x="2076" 
d="M498 88q12 66 59 191q6 20 4.5 24t-20.5 8q-55 8 -107 37q-114 62 -174 117q-30 30 -49 61q-75 116 -4 281q72 165 237 313q197 181 465 316q285 143 594 200q155 30 275 25q143 -7 235 -43q161 -59 238 -223q83 -163 61 -340q-7 -62 -37 -166q-128 -398 -479 -772
q-144 -154 -293 -271q-278 -207 -542 -282q-145 -45 -256 -17q-211 51 -234 260q-14 125 27 281zM606 -18q-2 -9 -10 -43t-10 -52q-18 -124 10 -188q17 -42 63 -51q62 -13 146 4q128 20 299 102q247 118 477 338q177 166 313 344q127 163 205 312q95 179 129 335
q34 157 -31.5 277t-207.5 160q-176 48 -410 10q-313 -47 -610 -199q-300 -153 -486 -342q-147 -144 -194 -295q-44 -134 35 -192q77 -58 127 -86q54 -28 98 -33q35 -6 43.5 -1t25.5 40q102 202 226 358q156 198 311 318q174 141 350 166q105 13 148 2q92 -22 112 -111
q4 -25 -12 -37q-17 -7 -26 17q-1 1 -1 2q-2 2 -6 10q-9 21 -32 27q-37 4 -56 2q-189 -14 -379 -170q-74 -62 -180 -172q-104 -113 -170 -203q-66 -93 -135 -221q-109 -194 -162 -428z" />
    <glyph glyph-name="P" unicode="P" horiz-adv-x="1773" 
d="M559 291q-239 10 -348 170q-80 124 -33 268q43 134 154 248q122 127 321 248q150 92 402 198q255 105 575 172q132 29 221 31q252 4 373 -108q107 -96 96 -242q-5 -55 -36 -133q-75 -170 -254 -357q-187 -195 -463 -366q-223 -139 -439 -223q-129 -51 -227 -66
q-26 -3 -47 -31q-15 -19 -64 -79.5t-75 -94.5q-237 -319 -328 -458q-25 -42 -31 -64q-5 -15 -12 -21.5t-22 -7.5q-29 0 -56 17q-24 16 -10 55q11 32 31 70q55 98 198 317q15 24 199 291q12 19 12 23.5t-12 13.5q-22 19 -34 32t-22.5 34.5t-11.5 45.5q-3 17 -22 17h-35z
M1001 281q6 -1 8 -1t8.5 2.5t8.5 2.5q116 48 191 88q322 165 571 383q208 181 332 366q71 106 92 197q17 69 0.5 104t-76.5 58q-103 37 -244 30q-106 -3 -243 -26q-394 -75 -758 -250q-271 -134 -440 -295q-129 -122 -175 -248q-35 -98 -3.5 -184t116.5 -119q68 -26 197 -37
q30 -3 38.5 2t22.5 35q92 190 271 389q138 150 362 324q63 49 141 92q72 42 121 -4q11 -8 17 -16q44 -41 14 -107q-4 -8 -12.5 -24.5t-12.5 -24.5q-42 -74 -106 -158q-61 -84 -131.5 -176t-160 -207.5t-134.5 -173.5q-2 -2 -6.5 -7t-6.5 -8t-2 -7zM1409 1053l-4 4
q-7 -5 -21.5 -14.5t-21.5 -14.5q-231 -164 -399 -360q-135 -158 -205 -303q-28 -50 -33 -91q-6 -20 -2 -41q4 -16 14 -18q9 0 23 14q15 20 16 21q60 84 109 143q74 92 221 276.5t221 276.5q33 40 82 107z" />
    <glyph glyph-name="Q" unicode="Q" horiz-adv-x="2101" 
d="M1898 1618q270 -87 390 -326q102 -202 10 -467q-75 -222 -279 -456q-138 -161 -372 -340q-80 -63 -142 -99q-15 -7 -16 -12t10 -12q45 -25 98 -72q102 -89 127 -201q25 -111 -34 -194t-140 -94q-36 -9 -45 8q-1 3 -2 5.5t-0.5 5.5t1 5.5t2 5.5l2.5 5t4 5.5t4 5.5t4 6t4 5
q4 4 12 13.5t12 13.5q121 118 64 260q-34 86 -139 143q-8 4 -25 11.5t-25 11.5q-21 12 -47 -7q-49 -33 -153 -88q-325 -168 -584 -186q-203 -16 -324 80q-103 82 -100 235q3 106 61 236q8 19 26 52.5t24 45.5q17 33 16 40t-23 26q-60 52 -106 129q-73 132 -16 325
q45 150 174 306q129 159 315 284q361 242 764 307q249 39 448 -22zM2154 764q45 79 68 158q89 310 -111 481q-107 88 -258 115q-190 36 -378 -5q-293 -62 -586 -235q-158 -95 -250 -180q-147 -134 -233 -281q-78 -128 -87 -248q-9 -124 66 -211q6 -7 10 -8.5t8 1.5t11 14
l10 10q73 106 190 223q167 167 404 326q167 107 285 153q196 77 325 68q116 -10 168 -80q19 -26 25 -59q5 -14 -9 -19q-9 -3 -12 4q-3 2 -7.5 8.5t-6.5 8.5q-18 25 -47 28q-72 14 -129 4q-170 -24 -373 -143q-349 -206 -610 -504q-43 -49 -92 -114q-12 -17 -10.5 -23
t16.5 -14l8 -4q139 -64 325 -115q16 -4 88.5 -24t100 -28t83 -25t97.5 -32t84 -32q39 -14 80 12q185 123 350 272q141 131 232 248q122 160 165 250zM1262 -90q-1 7 -15 14q-27 8 -78.5 25.5t-78.5 25.5q-30 9 -90 28t-89 28q-9 3 -45.5 13.5t-48.5 14t-44.5 13.5t-47.5 15
t-44 14.5t-47.5 16.5t-43 17t-46 19.5t-42.5 19.5t-30 6t-23 -28q-40 -72 -68 -152q-49 -134 -25 -231q25 -106 136 -115q91 -8 219 20q179 42 450 179q88 48 101 57z" />
    <glyph glyph-name="R" unicode="R" horiz-adv-x="1714" 
d="M866 117q-7 -6 -13 -13t-12.5 -16t-9.5 -12q-46 -61 -137 -182.5t-137 -182.5q-48 -63 -104 -162q-35 -56 -39 -88q-2 -20 -27 -24q-30 -4 -48 13.5t-13 47.5q6 25 16 51q72 175 205 373q61 93 110 154q22 28 88 121q15 19 14 24.5t-16 14.5q-41 24 -51 40q-7 9 -39 17
q-232 38 -362 160q-55 52 -80 112q-65 142 25 303q75 135 204 252q146 133 385 258q335 174 719 248q210 40 387 29q135 -7 232 -43q129 -50 176 -176q43 -117 -23 -265q-37 -86 -112 -178q-83 -101 -205 -207q-280 -242 -647 -415q-181 -84 -322 -129q-23 -6 -26.5 -12
t4.5 -23q18 -39 51.5 -113.5t55 -120.5t53.5 -108.5t63 -112.5q170 -275 444 -436q34 -20 70 -31q53 -14 96 15q17 12 25 6q5 -7 -4 -25q-22 -45 -69 -76.5t-93 -31.5q-73 0 -146 39q-167 87 -303 217q-85 78 -145 161q-84 117 -145 267q-72 189 -87 247q-1 1 -2 3l-2.5 5
t-3.5 5zM1047 365h10q27 9 37 14q194 73 405 207q321 208 522 401q126 126 185 227q49 79 61 164q9 58 -29 86q-18 13 -57 33q-95 39 -213 45q-207 14 -457 -39q-396 -85 -743 -289q-194 -118 -330 -256q-81 -84 -125 -178q-64 -136 -2 -248q25 -51 95 -92q86 -54 192 -82
q31 -8 51 -10q19 -2 25 2t12 23q12 34 45 84q69 106 156 202q137 148 299 295q91 82 192 154q36 25 62 10q39 -23 47.5 -52t-12.5 -69q-5 -11 -12 -23t-15.5 -26.5t-13.5 -23.5q-29 -47 -66.5 -102.5t-64.5 -94t-72.5 -102t-67.5 -95.5q-21 -29 -59.5 -84.5t-56.5 -80.5z
M1249 879q-9 -6 -16 -13q-166 -137 -289 -280q-97 -116 -145 -217q-16 -29 -19 -56q-2 -15 17 -18q23 -3 43 24l129 177q59 80 280 383z" />
    <glyph glyph-name="S" unicode="S" horiz-adv-x="1533" 
d="M1108 -49q28 123 39 293q1 24 4 69.5t4 69.5q1 28 -3.5 32.5t-33.5 4.5q-225 3 -350 125q-45 43 -72 100q-34 71 -13.5 147.5t91.5 147.5q55 55 141 104q128 70 338 127q154 39 162 41q29 9 53 33q199 214 480 326q177 70 354 61q25 0 65 -8q93 -21 115 -115
q15 -58 -41 -108q-38 -32 -84 -53q-217 -95 -356 -113q-22 -4 -35 -8q-55 -17 -112.5 -30.5t-142.5 -31.5t-112 -24q-38 -6 -61 -39q-136 -176 -186 -381q-34 -140 -37 -334q-5 -286 -12 -383q-6 -116 -48 -229q-43 -110 -127 -177.5t-200 -86.5q-140 -19 -285 22
q-374 103 -555 436q-56 100 -45 201q5 42 35 90q35 53 108 64q25 3 25 -21q4 -49 -8 -78q-45 -114 8 -219q81 -155 248 -276q122 -83 241 -101q76 -9 150 11q100 29 168 116q72 96 90 195zM1329 1069q-2 2 -12 2q-154 -39 -289 -104q-91 -48 -145 -95q-74 -67 -95 -124
q-43 -110 46 -179q56 -43 128 -62t168 -26q18 -1 23.5 4.5t7.5 24.5q5 123 47 276q36 137 111 258q11 22 10 25zM1731 1290q95 18 186 39q175 43 326 101q71 27 124 63q15 10 15 16q0 9 -17 9q-64 6 -135 -7q-158 -24 -274 -79q-88 -45 -131 -72q-42 -22 -94 -70z" />
    <glyph glyph-name="T" unicode="T" horiz-adv-x="1200" 
d="M2120 1575q248 0 309 2q192 3 375 45q3 1 13.5 3.5t15 4t12.5 4.5t14 7.5t12 11.5q14 14 35 4q39 -23 39 -74q0 -24 -35 -51q-36 -22 -71 -33q-78 -28 -205 -39q-96 -7 -194 -9.5t-242.5 -2.5h-190.5q-248 0 -408 -14q-351 -30 -630 -158q-205 -92 -342 -240
q-103 -112 -129 -217q-33 -122 32 -221q52 -82 166 -115q31 -9 67 -15t81.5 -12t68.5 -10q5 0 9 0.5t7 1.5t6.5 4.5l5 5t5 6t4.5 5.5q34 56 152 236q10 16 56 86.5t64.5 98l55.5 82.5t68 97t63 84q26 34 87.5 109t90.5 116q26 35 55 17q42 -20 52 -70q8 -25 -15 -59
q-24 -47 -65 -101q-212 -304 -346 -506l-252 -393q-67 -104 -95 -146t-86 -120.5t-110 -136.5q-49 -56 -71 -80.5t-64 -66t-80 -70.5q-121 -94 -211 -115q-221 -53 -334 98q-43 56 -10 129q20 47 65 62q25 8 31 -15q7 -21 -4 -55q-26 -80 39 -135q32 -28 84 -16
q77 19 182 94q105 80 238 246q76 97 244 354q21 30 51 76q9 15 6.5 20.5t-19.5 5.5q-90 4 -147 13q-273 59 -356 317q-29 97 18 213q55 138 186 256q178 162 455 262q282 99 594 115q6 5 229.5 4.5t268.5 -0.5z" />
    <glyph glyph-name="U" unicode="U" horiz-adv-x="1888" 
d="M1958 848q-110 -106 -162 -158q-237 -233 -360 -348q-317 -298 -504 -461q-137 -118 -283 -217q-48 -34 -110 -61q-105 -43 -189 -2q-52 24 -59 94q-6 43 10 94q36 129 152 313q96 155 200 304q11 13 9 18t-19 8q-143 18 -283 119q-70 47 -112 127q-77 146 20 346
q66 129 226 268q230 195 501 289q162 56 267 51q83 -2 152.5 -60t70.5 -145q2 -64 -39 -159q-51 -124 -152 -267q-198 -279 -223 -311q-202 -265 -422 -581q-138 -204 -196 -336q-20 -51 -25 -92q-2 -26 6.5 -31.5t34.5 4.5q78 33 168 96q226 162 487 404q20 19 96 90
t117 110q43 42 129 128t129 128q236 236 533 523q243 236 434 409q9 8 27.5 24.5t27.5 24.5q24 22 52 8q24 -11 41 -38q16 -24 -3 -60q-4 -7 -53 -69q-50 -58 -150.5 -175.5t-150.5 -175.5q-158 -189 -291 -362q-239 -312 -399 -563q-144 -225 -215 -404q-34 -84 -43 -139
q-4 -20 -4 -31q0 -14 4.5 -17.5t19.5 -2.5q5 0 16.5 2t16.5 2q15 0 18.5 -8t-6.5 -23q-15 -18 -36 -27q-56 -23 -105 0t-55 74q-6 40 4 90q14 72 43 154q127 320 326 604q119 173 288 381q4 5 12.5 15.5t12.5 15.5q0 1 -1 3t-1 3zM1358 1434q2 10 6 26q8 43 -4 59t-53 19
q-75 3 -133 -12q-358 -85 -642 -357q-146 -136 -196 -301q-35 -129 10 -202q101 -167 338 -183q28 -2 51 27q6 8 119 162q43 56 127 168.5t127 169.5q138 185 207 315q34 65 43 109z" />
    <glyph glyph-name="V" unicode="V" horiz-adv-x="1441" 
d="M698 -369q23 16 58 56q107 128 264 358q68 98 187 282t165 253q10 14 225 329q272 390 545 682q135 143 307 299q188 173 310 267q84 62 161 108q39 25 82 37q29 9 58 -0.5t41 -32.5q6 -17 0 -24q-3 -7 -21 -7q-22 2 -71 -24q-83 -49 -213 -158q-213 -186 -373 -352
q-196 -200 -316 -340q-150 -174 -321 -393q-45 -58 -90 -120t-109 -152t-86 -121q-66 -93 -297 -439q-22 -32 -80.5 -120t-101.5 -149.5t-86 -117.5q-79 -104 -143 -164q-42 -38 -92 -45t-80 11q-41 19 -54 71q-8 43 -2 99q16 169 88 382q14 44 35 99t32 82t43 103.5
t36 86.5q13 33 9.5 37.5t-38.5 -0.5q-272 -46 -453 76q-167 111 -102 338q64 216 266 422q165 171 391 286q106 50 187 58q63 7 126 -19.5t105 -84.5t39 -130q-5 -132 -57 -295q-50 -154 -187 -469q-15 -36 -65.5 -152t-72.5 -169t-60.5 -146t-68 -170t-56.5 -153
q-42 -117 -60 -211q-7 -30 -4 -64zM313 793q-3 -71 33.5 -124.5t108.5 -82.5q148 -58 356 -11q34 8 51 41q22 43 58.5 126t44.5 100q102 213 159 362q46 129 62 211q19 95 6 148q-10 50 -62 47q-94 -5 -208 -64q-117 -63 -179 -110q-233 -172 -350 -379q-78 -141 -80 -264z
" />
    <glyph glyph-name="W" unicode="W" horiz-adv-x="2416" 
d="M584 -248q6 3 10.5 6t8 6.5t5.5 6t5.5 7t4.5 5.5q156 183 369 399q58 58 165 169t146 151l58 58t64 64.5t57 56.5t66.5 62.5t62.5 55.5q18 14 100 92q37 35 66 39t61 -21q21 -15 23 -32t-13 -46q-4 -8 -51 -83q-183 -288 -301 -574q-37 -92 -43 -194q-3 -35 8 -60
q9 -18 31 -12q38 11 80 33q96 51 243 170q399 328 727 792q162 230 279 463q116 227 127 432q6 76 -12 146q-3 15 -10 21.5t-25 6.5q-14 -1 -21 10t-4 27q11 29 37 29q28 -3 47 -19q51 -40 70 -112q52 -198 -25 -420q-47 -135 -149 -311q-182 -307 -443 -596
q-157 -176 -260 -281q-195 -195 -350 -309q-123 -93 -223 -127q-106 -35 -180 16q-38 24 -47 72q-21 98 22 235q46 150 150 353q6 14 14 28q0 1 -1 3t-1 3q-5 -2 -10 -5.5t-10.5 -9t-8.5 -7.5q-73 -68 -266 -270q-61 -63 -128 -135t-149.5 -161.5t-125.5 -136.5
q-32 -35 -94.5 -98t-90.5 -92q-12 -14 -59 -51q-32 -19 -70 -20t-68.5 23.5t-25.5 63.5q13 115 55 207q68 154 224 404q64 95 98 151q14 20 12.5 25t-24.5 2q-225 -24 -412 63q-80 38 -123 97q-108 139 -12 346q41 93 131 186q147 153 366 281q147 90 301 151q153 57 265 60
q159 6 229 -125q14 -26 15 -59.5t-4 -57t-17 -64.5q-4 -13 -8.5 -27t-9 -25t-11.5 -27.5t-11 -25t-13.5 -26.5t-12.5 -24.5t-14 -27t-14 -25.5q-87 -160 -312 -502q-314 -480 -422 -662q-17 -27 -96 -172q-1 -1 -8.5 -17.5t-13.5 -27.5zM797 524q2 0 7.5 1t8.5 1
q44 4 50.5 8.5t33.5 43.5q207 308 336 503q85 128 143 250q49 104 54 170q1 31 -10 42t-42 11q-106 -4 -180 -28q-418 -137 -717 -445q-119 -119 -155 -260q-22 -86 6 -151.5t100 -96.5q153 -62 365 -49z" />
    <glyph glyph-name="X" unicode="X" horiz-adv-x="1353" 
d="M932 518q-5 4 -9 5t-11 0t-9 -1q-259 -31 -479 35q-92 29 -150 84q-104 104 -41 260q53 127 177 258q215 229 481 387q189 111 360 154q132 28 219 -37q70 -55 64 -152q-4 -80 -61 -229q-59 -155 -170 -434q-1 -4 -4.5 -13.5t-5.5 -16.5t-1 -13q9 -4 25 12
q78 55 232.5 167.5t232.5 168.5q264 186 446 324q10 8 65 49t74.5 56.5t60.5 48.5t71 60t59 56q61 61 80 96q7 17 17.5 18.5t19.5 -12.5q19 -25 8 -59q-7 -28 -33 -61q-76 -109 -188 -207q-173 -155 -416 -340q-30 -24 -91.5 -71.5t-92.5 -70.5q-36 -29 -66 -47
q-69 -48 -166 -123q-26 -22 -57 -45t-71 -52t-60 -44q-2 -2 -7.5 -5t-7.5 -5q-35 -35 -110 -94.5t-82 -65.5q-37 -29 -45 -70q-54 -198 -66 -278q-33 -232 -14 -375q46 -296 375 -368q128 -27 284 73q20 12 123 80q29 19 43 21q2 -17 -18 -45q-54 -70 -127 -111
q-157 -86 -315 -74q-264 17 -445 211q-90 98 -104 283q-13 155 14 291q3 19 8 55t8 53q4 13 -2 17q-5 0 -8.5 -2t-8.5 -7t-7 -6q-16 -14 -132 -112.5t-175 -151.5q-277 -243 -437 -428q-124 -145 -184 -258q-18 -34 -14.5 -39.5t39.5 -7.5h4.5t4.5 0.5t4.5 0.5t4.5 -0.5
t3.5 -1.5t3 -3t1.5 -4q2 -13 -20 -31q-13 -9 -23 -12q-40 -14 -81.5 10t-34.5 74q5 32 43 110q54 106 151 228q192 252 414 458q188 177 327 293q11 10 47.5 38.5t55.5 47.5zM877 571q77 3 108 9q33 6 44.5 15.5t23.5 41.5q15 45 53 145q17 48 40.5 105.5t40 95t48 107
t43.5 96.5q8 17 28 60.5t30 66t25 58.5t26 67t20 61q12 53 12 55q3 48 -10.5 61t-62.5 7q-75 -9 -158 -41q-331 -135 -598 -387q-102 -91 -162 -176q-69 -97 -94 -174q-29 -79 -6.5 -138.5t92.5 -82.5q63 -21 117 -31q27 -6 59 -10t54 -6.5t61.5 -3.5t53.5 -1h60h52z" />
    <glyph glyph-name="Y" unicode="Y" horiz-adv-x="1959" 
d="M1866 651q-23 -19 -67.5 -54t-51.5 -40q-296 -250 -553 -440q-12 -9 -61.5 -44t-70.5 -50t-59.5 -39.5t-70.5 -42.5q-82 -46 -137 -62q-98 -26 -168 10q-90 42 -72 154q11 81 55 174q29 63 105 199q8 16 14 24q6 12 7.5 16.5t3 9.5t-2 6.5t-8.5 2t-16 0.5q-198 3 -363 98
q-69 40 -114 109q-64 99 -9 240q44 105 138 202q144 153 329 269q292 178 568 258q87 25 161 28q136 6 191 -114q22 -51 -8 -123q-21 -56 -95 -172q-56 -84 -223 -303q-120 -161 -181.5 -245t-153 -223t-156.5 -257q-58 -103 -78 -166q-23 -67 -23 -103q0 -17 6 -19.5
t23 3.5q38 10 106 49q136 81 240 160q300 229 610 485q60 50 183.5 154.5t187.5 157.5q30 27 47 55q136 207 264 366q191 229 361 363q82 69 160 111q52 28 86 22t59 -49q29 -49 -8 -102q-56 -79 -146 -166q-246 -246 -454 -426q-61 -52 -121 -109q-17 -15 -41 -47
q-184 -276 -451 -729q-220 -373 -323 -522q-66 -93 -108 -150t-107 -135t-127 -139q-98 -98 -197 -160q-178 -109 -350 -80q-192 29 -283 156q-63 84 -34 196q25 80 86 115q25 15 33.5 11t7.5 -31q0 -2 -17 -78q-8 -40 -10 -60q-3 -71 29 -120q68 -99 196 -117q39 -5 98 20
q111 48 205 133q143 124 305 334q159 210 414 621q24 38 70.5 113.5t70.5 113.5q29 47 101 176q-2 0 -2 2zM705 528h53q26 0 39 25q8 13 23.5 37.5t23.5 36.5q117 181 407 551q14 18 45 58t49 63.5t42 58t43 63.5q48 69 63 123q6 22 1.5 28.5t-26.5 6.5q-65 -3 -114 -16
q-442 -116 -779 -412q-148 -132 -223 -287q-40 -83 -25.5 -149.5t81.5 -106.5q139 -77 297 -80z" />
    <glyph glyph-name="Z" unicode="Z" horiz-adv-x="1714" 
d="M627 -201q149 34 395 68q131 17 332 31q90 8 217 4q90 0 176 -25q65 -20 68 -78q0 -21 -9 -32q-6 -13 -20 -13q-10 0 -10 13q2 13 -3.5 20t-11 9t-18.5 5q-85 20 -211 13q-101 -5 -262 -23q-254 -29 -520 -98q-213 -54 -500 -160q-68 -26 -135 -68q-37 -25 -115 -61
q-28 -14 -53 2q-28 22 -37 57q-4 17 0 27.5t20 24.5q34 27 72 45q24 12 50.5 27t46.5 27t50 32t45 29.5t49.5 33.5t44 31t48.5 35t45 32q73 51 154.5 110t180 132t154.5 113q24 18 160.5 121t210.5 157q241 179 537 426q173 141 323 308q86 93 135 180q5 10 14.5 30.5
t14.5 30.5q21 53 -14 86q-44 35 -97 55q-62 24 -167 35q-305 36 -703 -80q-306 -90 -549 -233q-199 -118 -307 -231q-45 -48 -88 -113q-45 -71 -51 -152q-9 -69 37 -118q38 -40 102 -70q48 -22 143.5 -52t116.5 -38q40 -15 78 -33q25 -14 25 -35q2 -11 -4.5 -16t-16.5 -2
q-9 2 -30 8t-33 8q-112 19 -211 39q-185 43 -252 191q-47 104 -33 223q11 82 74 176q85 127 219 225q207 152 487 264q270 107 504 150q213 43 399 37q123 -3 234 -33q82 -22 141 -72q95 -85 72 -248q-10 -75 -47.5 -144t-100.5 -150q-94 -122 -286 -299
q-223 -201 -477 -398q-289 -226 -603 -448q-85 -61 -174 -123q-19 -14 -26 -25z" />
    <glyph glyph-name="bracketleft" unicode="[" horiz-adv-x="1140" 
d="M135 -375h-108q-36 0 -52 4q-31 6 -40.5 22t-2.5 50q5 23 43 111q26 55 142 264q48 87 157 280.5t166 298.5q221 404 336 592q20 31 53 89.5t45 78.5q8 14 26 40.5t26 39.5q74 113 204 119q152 7 267 -12q37 -6 63 -29q10 -11 13 -23q3 -9 -3 -15t-16 -5
q-44 1 -126.5 -12t-110.5 -15q-81 -6 -125 -84q-3 -6 -15 -28t-18 -35q-132 -248 -260 -473q-41 -72 -121 -215.5t-121 -214.5q-52 -91 -151.5 -257t-131.5 -221q-70 -117 -114 -204q-7 -12 -21 -45q-7 -17 8 -21q4 0 13 -2t14 -2q25 -1 74 -3.5t74 -3t75 0.5q12 1 33 3
t38.5 3t33.5 0q25 0 28 -8v-6q0 -15 -30 -25q-44 -17 -111 -24q-136 -16 -254 -13z" />
    <glyph glyph-name="backslash" unicode="\" horiz-adv-x="1409" 
d="M340 1458q0 21 12 39q8 14 33 39q25 26 42 27.5t34 -21.5q166 -226 258 -412q192 -373 309 -630q134 -296 279 -647q19 -39 24 -68q2 -15 -6 -32.5t-20 -24.5q-30 -20 -58 2q-11 10 -30 47q-384 742 -426 819q-250 473 -392 737q-41 74 -47 90q-8 17 -12 35z" />
    <glyph glyph-name="bracketright" unicode="]" horiz-adv-x="1140" 
d="M1270 1616h108q20 0 52 -4q33 -8 42.5 -23.5t2.5 -48.5q-4 -18 -10 -34t-18 -43t-15 -33q-34 -70 -142 -265q-53 -98 -161.5 -291t-161.5 -290q-221 -404 -336 -592q-17 -28 -50.5 -83.5t-50.5 -82.5q-8 -16 -26 -44t-23 -36q-72 -112 -205 -119q-128 -8 -266 11
q-42 7 -63 28q-13 13 -13 23q-6 22 19 22q45 -2 129 10.5t108 14.5q82 6 123 86q27 45 35 61q130 248 260 473q37 64 117.5 209t124.5 221q52 91 151.5 257t131.5 221q64 107 114 206q11 19 21 46q6 15 -11 18q-16 4 -24 4q-12 1 -73.5 5t-74 3.5t-75.5 -0.5q-12 -1 -33 -3
t-38.5 -3t-33.5 0q-2 0 -7.5 -0.5t-8 0t-6.5 1.5t-5.5 3.5t-0.5 7.5q0 5 1.5 8.5t5.5 6.5t7 4.5t8.5 4t7.5 3.5q41 15 111 23q100 14 252 14z" />
    <glyph glyph-name="asciicircum" unicode="^" horiz-adv-x="417" 
d="M739 1487q-25 -78 -55 -162q-9 -27 -31 -14q-33 23 -26 73q1 14 5 41t5 41q1 17 2 25.5t0 15t-2 8t-6 0.5t-9 -3.5t-14 -9t-18 -11.5q-49 -29 -121 -82q-21 -18 -45 -33q-43 -30 -76 6q-27 31 2 72q32 37 76 70q99 68 154 98q50 28 74.5 26t56.5 -34q46 -46 28 -127z" />
    <glyph glyph-name="underscore" unicode="_" horiz-adv-x="970" 
d="M575 78q130 6 271 -4q51 -3 92 -27q29 -18 -6 -43q-26 -20 -70 -24q-19 -1 -96 -6.5t-119 -6.5q-41 -1 -87.5 -4t-103.5 -7.5t-87 -6.5q-187 -13 -260 -4q-67 8 -89 71q-15 42 35 45q267 15 316 17q1 2 103 1z" />
    <glyph glyph-name="grave" unicode="`" horiz-adv-x="397" 
d="M356 1544q7 30 35 58q12 12 47 34q20 12 30 9t13 -23q12 -57 51 -96q11 -10 39.5 -37t50 -45.5t42.5 -34.5q12 -8 18 -14q17 -20 -2 -41q-33 -38 -72 -29q-26 4 -59 23l-60 36t-59 37q-23 15 -49 45q-30 39 -25 78z" />
    <glyph glyph-name="a" unicode="a" 
d="M319 190q-7 -8 -21.5 -23.5t-21.5 -23.5q-68 -76 -118 -110q-50 -40 -101 -29q-41 9 -56.5 31t-8.5 65q21 142 100 273q15 23 66 92q52 73 147 135q152 93 244 -18q9 -12 13.5 -11.5t17.5 15.5q29 29 41 43q22 19 47 12q18 -6 30 -18q26 -23 4 -58q-6 -12 -14.5 -25
t-19 -27.5t-15.5 -23.5q-66 -91 -135 -204q-57 -92 -102 -213q-4 -13 2 -19q26 14 55 37q43 33 84 69.5t105 97.5t79 75q23 23 35 33q9 13 23 16q15 7 22 0q5 -8 -2 -19q-9 -15 -22 -28q-166 -185 -275 -279q-66 -59 -127 -69q-50 -6 -77.5 20.5t-20.5 75.5q5 46 22 108z
M111 88q15 7 47 35q118 109 284 293q33 43 47 71q17 33 11 62q-3 21 -31 18q-26 -9 -35 -16q-41 -24 -74 -53q-160 -160 -239 -359q-12 -29 -10 -51z" />
    <glyph glyph-name="b" unicode="b" horiz-adv-x="628" 
d="M461 662q3 -3 6 -3q79 28 154 -36q46 -38 26 -117q-13 -51 -51 -135q-1 -2 -4.5 -10t-5.5 -11q-4 -10 -1.5 -14t13.5 -2q41 9 104 31q28 11 33 12q20 4 23 -10q2 -10 -15 -23q-12 -8 -45 -25q-57 -26 -123 -36q-33 -3 -59 -35q-94 -121 -176 -187q-89 -69 -178 -75
q-91 -7 -137 37q-10 10 -31 0q-52 -32 -98 -7q-24 12 -11 39q22 40 31 54q126 185 252 366q176 255 360 504q34 45 88 125q11 11 13 14q28 34 61.5 34t50.5 -32q7 -18 -2 -33q-8 -16 -26 -43q-30 -43 -110 -165t-126 -187q-16 -20 -16 -30zM121 162q-11 -65 -2 -96
q4 -17 12 -20t27 5q20 10 53 39q51 45 104 105q45 48 74 90q15 19 0 26l-24.5 10.5t-30.5 11.5t-27 5q-56 3 -96 -37q-76 -80 -90 -139zM530 555q5 17 1 20t-23 -4q-6 -3 -17.5 -9t-17.5 -9q-44 -24 -117 -82q-18 -13 -61 -47q-18 -18 -16 -27q1 -5 20 -10q36 -5 82 -22
q5 -2 16.5 -6.5t16.5 -6.5q12 -7 26 10q65 106 90 193z" />
    <glyph glyph-name="c" unicode="c" horiz-adv-x="661" 
d="M500 664q77 3 137 -64q41 -49 0 -113q-61 -93 -160 -149q-48 -23 -78 -2q-21 16 7 35q71 47 110 96q34 54 41 76q5 15 1 19t-21 3q-116 -20 -189 -96q-126 -126 -178 -254q-26 -75 -16 -121q14 -56 79 -47q44 8 127 43q97 46 234 148q62 44 166 129q27 20 45 24
q13 3 20 -4q7 -10 -4 -25q-12 -16 -20 -24q-70 -61 -101.5 -88t-90 -72.5t-107.5 -77.5q-145 -92 -254 -102q-126 -10 -187 59q-27 27 -30 78q-5 86 43 199q69 146 202 250q103 80 224 80z" />
    <glyph glyph-name="d" unicode="d" horiz-adv-x="667" 
d="M418 45q5 0 9.5 2t7 4t6 5t5.5 5q46 36 152 142q26 26 76.5 76t75.5 75q22 22 32 27q25 15 33 8q2 -3 3 -6t-0.5 -6.5t-2.5 -6t-4 -7t-4 -5.5q-4 -4 -16 -20q-32 -34 -95.5 -102.5t-95.5 -102.5q-20 -22 -62 -58t-55 -48q-48 -43 -118 -43q-67 0 -64 67q5 57 41 146
q-6 -2 -23 -19q-76 -84 -126 -129q-56 -53 -127 -47q-34 0 -50 29q-41 62 -6 164q79 238 303 399q136 98 238 4q10 -11 15.5 -10t15.5 18q16 24 44.5 71.5t43.5 70.5q96 151 270 374q16 21 25.5 28.5t24 6.5t34.5 -18q21 -18 23 -36t-15 -48q-25 -43 -65 -101
q-26 -34 -55.5 -76.5t-49 -71.5t-53.5 -80.5t-49 -74.5q-32 -46 -142 -229q-93 -147 -112 -176q-50 -83 -78 -156q-10 -23 -10 -45zM123 76q14 5 35 26q40 38 102 111q20 22 66.5 77t82 94.5t70.5 74.5q21 21 21 47q0 37 -2 53q-3 15 -9.5 18t-23.5 -4q-42 -16 -82 -53
q-129 -123 -217 -293q-45 -89 -43 -151z" />
    <glyph glyph-name="e" unicode="e" horiz-adv-x="681" 
d="M305 276q-47 0 -72 11q-21 6 -32 -15q-51 -100 -51 -172q-2 -12 2 -30q7 -31 24 -40t51 -1q77 20 185 80q153 89 356 258q35 25 43 28q20 8 27 -2q8 -11 -2 -28q-14 -21 -31 -35q-191 -178 -377 -281q-128 -71 -229 -76q-66 -6 -119 21q-55 30 -64 96q-12 97 31 195
q107 247 356 348q101 43 175 24q41 -10 81 -45q39 -36 13 -92q-15 -36 -39 -67q-127 -144 -264 -170q-23 -7 -64 -7zM586 555q6 22 0.5 28t-25.5 1q-36 -5 -86 -29q-89 -48 -164 -123q-19 -19 -51 -59q-11 -16 -8 -21q3 -4 20 -4q70 13 99 25q93 41 170 112q33 33 45 70z
" />
    <glyph glyph-name="f" unicode="f" horiz-adv-x="602" 
d="M-391 -559q4 17 9 34t12 36.5t11.5 33t14 36t14 32.5t16.5 36l15 32.5t17 35.5t16 33q56 118 138 258t135.5 224t162.5 249q132 204 287 410q63 87 180 217q29 32 60 30t42 -36q5 -16 -4 -35q-20 -42 -41 -68q-55 -78 -111 -159.5t-136 -201.5t-107 -161q-4 -4 -8 -12
q-11 -16 -14 -20.5t-2 -11t4 -8.5t16 -9q60 -43 70 -101q1 -17 5.5 -19t24.5 3q117 31 228 76q33 16 65 22q23 5 25 -6q4 -9 -13 -26q-11 -11 -39 -25q-145 -71 -270 -102q-24 -6 -29.5 -11t-9.5 -26q-65 -248 -229 -514q-130 -215 -215 -316q-49 -58 -121 -104
q-81 -52 -170 -33q-57 11 -64 78q-4 7 -1.5 31.5t3.5 32t6.5 33t6.5 32.5zM301 152q2 9 6 26.5t6 26.5q7 23 -16 26q-31 2 -82 21q-17 9 -31 -12q-2 -3 -6 -9.5t-6 -9.5q-195 -308 -272 -461q-113 -222 -146 -319q-24 -74 -24 -127q0 -17 5.5 -19t22.5 7q40 25 80 65
q110 113 189 234q130 192 184 311q65 137 90 240zM293 283q21 -1 27 3.5t6 20.5q-3 24 -17 49q-17 24 -25.5 23t-27.5 -31q-12 -19 -14.5 -30t4 -18t24.5 -13q16 -4 23 -4z" />
    <glyph glyph-name="g" unicode="g" 
d="M537 233q8 0 28 15q165 98 197 114q38 17 59 17q12 0 13.5 -7.5t-7.5 -17.5q-9 -12 -34 -24q-147 -93 -306 -211q-42 -29 -67 -74q-160 -257 -285 -428q-127 -169 -235 -270q-108 -100 -219 -119q-51 -7 -82 2q-33 12 -39 47q-8 52 14 111q66 165 213 297q91 85 274 221
q43 30 156 112q21 17 31 35q26 44 49 86q-15 -7 -23 -20q-47 -50 -110 -103q-32 -28 -76.5 -31t-69.5 17q-18 12 -24 33q-7 29 -2 53q42 265 239 459q41 38 97 67q44 25 91 26t80.5 -14.5t55.5 -39.5q2 -2 6 -6.5t6 -6.5q7 -14 19 2l12 16t14 19q24 27 42 30t40 -17
q22 -19 24 -37t-16 -51q-89 -158 -102 -181q-35 -58 -57 -98q-8 -12 -6 -23zM135 -133q-1 0 -3 1t-3 1q-18 -11 -63 -47q-138 -103 -236 -207q-104 -108 -145 -213q-16 -43 -9 -96q3 -20 25 -8q24 18 45 36q22 22 42 45.5t52.5 64t38.5 48.5q36 44 70.5 93t80.5 118l64 96
q7 12 20.5 34.5t20.5 33.5zM115 59q43 37 71 72q89 97 275 291q37 38 43 52.5t4 60.5v2q-3 53 -59 30q-27 -11 -58 -35q-45 -36 -80 -79q-95 -112 -174 -306q-22 -59 -22 -88z" />
    <glyph glyph-name="h" unicode="h" horiz-adv-x="647" 
d="M561 582q-62 -32 -199 -117q-72 -47 -126 -125q-25 -37 -94.5 -135.5t-106.5 -153.5q-45 -63 -109 -57q-37 5 -47 12q-20 10 -8 31q13 27 20 35q63 90 232 339.5t266 383.5q10 13 93.5 127t127.5 172q9 16 29 36q14 17 35 17q39 -3 65 -35q10 -15 -8 -41
q-28 -49 -65 -102q-38 -58 -228 -340q-8 -12 -8 -19q7 -2 9 -1.5t8 4.5t8 5q9 5 28.5 17t34 20.5t29.5 14.5q81 32 131 -13q45 -38 16 -100q-20 -46 -55 -94q-19 -27 -59.5 -82t-71.5 -98.5t-57 -83.5q-36 -58 -56 -111q-4 -9 -8 -31q0 -6 3.5 -7.5t8.5 3.5q4 1 27 19
q25 19 53.5 43.5t47.5 43t50 48t46 43.5q68 64 108 100q30 30 57 37q16 8 23 -2q5 -8 -6 -23q-1 -2 -4 -6t-4 -6q-164 -178 -297 -303q-28 -28 -64 -47q-76 -40 -141 2q-48 37 -33 109q10 40 23 65q26 52 43 83.5t44.5 74t57.5 76.5q27 31 73 90t62 78z" />
    <glyph glyph-name="i" unicode="i" horiz-adv-x="364" 
d="M-20 125q33 123 137 278q73 104 157 205q26 35 50 31q48 -12 55 -45q2 -13 -14 -37q-18 -29 -54 -88.5t-55 -89.5q-76 -117 -127 -221q-25 -48 -39 -92q-4 -13 2 -17q7 -3 14 4q42 25 101 80q42 40 125 119t125 119q18 18 37 26q18 4 24 -4q8 -8 -2 -24q-2 -5 -16 -23
q-161 -180 -273 -278q-86 -75 -157 -82q-53 -8 -80 17t-21 77q4 31 11 45zM492 891q59 -11 77 -55q8 -23 -12 -50q-22 -29 -96 -90q-8 -8 -23 -8q-26 0 -44.5 22t-14.5 48q6 50 43 96q27 34 70 37z" />
    <glyph glyph-name="j" unicode="j" horiz-adv-x="327" 
d="M184 227q110 68 144 88q49 32 98 54q29 12 47 10q19 -3 6 -23q-7 -11 -24 -20q-121 -74 -334 -230q-25 -17 -41 -45q-179 -290 -295 -446q-123 -163 -223 -258q-118 -110 -228 -127q-27 -7 -49 -4q-87 0 -78 84q6 52 27 98q59 132 152 227q107 107 204 181
q141 102 279 204q20 13 39 48q144 253 334 514q24 32 39 45q18 18 38 10q34 -11 43.5 -40.5t-10.5 -64.5q-108 -188 -143 -247q-25 -45 -29 -54zM-221 -135q-14 -4 -35 -21q-116 -91 -166 -135q-74 -61 -135 -135q-65 -74 -96 -147q-29 -64 -21 -115q6 -27 31 -8
q42 29 78 71q162 188 329 457q15 25 15 33zM358 766q11 47 35 82q43 59 101 37q37 -18 49 -43q12 -24 -4 -49q-20 -28 -33 -39q-9 -8 -26.5 -23.5t-26.5 -23.5q-24 -24 -54 -15q-56 20 -41 74z" />
    <glyph glyph-name="k" unicode="k" horiz-adv-x="694" 
d="M332 469q24 14 53 35q83 57 197 112q41 18 80 27q58 18 100 -27q26 -33 -8 -73q-53 -64 -138 -109q-75 -41 -167 -96q-35 -21 -35 -53q0 -111 8 -195q0 -2 1 -6t1 -6q5 -15 11.5 -16.5t21.5 10.5q49 39 139 125q66 62 190 174q25 21 37 26q15 10 21 0q8 -8 -2 -22
q-4 -6 -13 -15q-48 -47 -130.5 -139.5t-112.5 -124.5q-53 -53 -105 -88q-37 -29 -95 -23.5t-79 46.5q-37 75 -31 155q6 116 7 125q2 17 -4 20t-21 -7q-78 -56 -113 -107q-97 -142 -137 -190q-23 -28 -62 -36t-61 11q-23 17 -6 49q6 9 18.5 29t18.5 29q29 42 169 241t214 307
q140 201 174 246q20 24 41 53t46.5 65t39.5 56q7 11 29 37q29 38 69.5 39t55.5 -37q6 -12 -11 -37q-9 -14 -25 -39t-29.5 -45.5t-26.5 -38.5q-35 -51 -96 -142.5t-113 -166.5t-101 -139q-4 -6 -12 -17.5t-12 -17.5z" />
    <glyph glyph-name="l" unicode="l" horiz-adv-x="487" 
d="M104 2q-26 -3 -61 8q-85 31 -63 125q18 66 65 156q73 138 182 293q167 240 283 377q55 64 115 124q23 23 26 25q2 2 11 10.5t12 10.5t13 9t13.5 5.5t14.5 -0.5q48 -13 59 -53q5 -17 -10 -39q-26 -40 -94 -133q-333 -430 -463 -631q-46 -77 -72 -135q-17 -35 -20 -72
q-2 -9 3 -12.5t15 0.5q5 3 19.5 10.5t21.5 11.5q45 26 92.5 58.5t107 75.5t89.5 63q16 11 46 32t46 33q33 23 66 29q23 5 26 -4q6 -11 -10 -31q-4 -5 -25 -22q-156 -128 -313 -244q-53 -39 -96 -59q-56 -24 -99 -21z" />
    <glyph glyph-name="m" unicode="m" horiz-adv-x="933" 
d="M498 506q-73 -48 -113 -88q-25 -25 -53.5 -54.5t-63 -65.5t-53.5 -56q-21 -21 -44.5 -50.5t-34.5 -45.5t-40 -59t-33 -50q-25 -37 -49.5 -48t-62.5 -1q-9 3 -21 6q-35 14 -18 55q14 33 33 64q98 180 159 264q25 36 75.5 107.5t76.5 107.5q30 36 33 39q24 27 55 18
q32 -5 62 -35q10 -10 4 -30q-2 -18 -19 -47q-1 -2 -6 -9t-7.5 -12.5t-2.5 -11.5q8 2 18.5 10.5t12.5 9.5q13 10 35.5 30t42 35t38.5 27q52 34 93.5 23.5t54.5 -61.5q0 -1 4 -9q14 9 42 29t42 29q43 25 84 16q34 -9 55 -23t29 -42q10 -35 -6 -86q-17 -47 -48 -95
q-21 -34 -65 -100t-66 -100q-32 -51 -51 -86q-14 -23 -12 -33q6 1 11.5 4t12.5 10t9 8q57 51 174 160q70 63 139 121q27 23 43 25q20 4 25 -5q4 -7 -9 -24l-39 -39q-120 -123 -239 -242q-60 -57 -96 -86q-68 -54 -156 -41q-26 5 -40.5 27t-10.5 51q4 35 18 64
q67 135 131 227q21 28 119 176q14 23 14 33q-11 0 -32 -17q-107 -79 -217 -213q-24 -28 -47.5 -61t-51.5 -74.5t-45 -64.5q-5 -7 -16.5 -21.5t-16.5 -21.5q-24 -34 -67 -37q-34 0 -58 12q-24 9 -20 41q4 26 31 70q105 163 229 311q9 12 21 27q1 1 2 4t2 4z" />
    <glyph glyph-name="n" unicode="n" horiz-adv-x="665" 
d="M565 545q-14 -5 -27 -12.5t-32.5 -21.5t-24.5 -17q-141 -101 -301 -261q-25 -28 -51 -65q-5 -7 -38.5 -56.5t-51.5 -74.5q-56 -77 -133 -49q-16 5 -20 13.5t1 27.5q10 27 25 51q136 235 321 485q35 47 74 86q28 25 53 17q23 -6 41 -21q30 -33 9 -76q-18 -28 -23 -55
q7 6 21.5 17.5t21.5 17.5q65 54 109 82q49 30 73 37q69 23 115 -23q31 -33 -4 -98q-51 -90 -115 -178q-97 -138 -147 -240q-21 -34 -25 -55q20 6 41 28q43 40 128 120t128 120q25 25 53 39q16 8 27 8q9 0 12.5 -5.5t-2.5 -14.5q-9 -14 -14 -17q-138 -156 -291 -297
q-70 -64 -151 -73q-58 -5 -79 22t-3 90q22 78 100 203q17 28 41.5 62t37.5 51.5t49 63.5t42 54q7 8 10 15z" />
    <glyph glyph-name="o" unicode="o" horiz-adv-x="614" 
d="M498 264q15 0 55 15q57 22 133 73q40 30 51 35q23 8 31 0q12 -17 -8 -33q-25 -25 -37 -32q-128 -96 -244 -109q-22 -2 -41 -25q-47 -57 -82 -90q-99 -96 -192 -106q-67 -9 -117 18q-65 39 -49 125q24 142 115 264q38 53 80 101q49 49 83 71q28 17 43 35q25 25 54 31
q37 8 63.5 11.5t58 0t56.5 -17.5q46 -26 59 -61.5t-4 -100.5q-15 -51 -80 -158q-20 -35 -28 -47zM250 365q-33 -45 -57 -109q-41 -90 -43 -156q-2 -34 7 -39t40 15q68 43 141 127q14 17 14 22t-14 15q-56 38 -74 102q-4 17 -14 23zM414 297q32 54 44.5 77t30.5 66.5t25 79.5
q3 16 0 35q-2 14 -8 17t-21 -1q-32 -8 -71 -28q-30 -20 -35 -45q-19 -96 10 -172q11 -22 25 -29z" />
    <glyph glyph-name="p" unicode="p" horiz-adv-x="622" 
d="M637 469q-18 -73 -45 -117q-9 -17 -7 -20.5t21 0.5q52 12 105 30q10 5 16 7q22 7 27 -9q7 -14 -17 -30q-6 -3 -19.5 -9.5t-19.5 -9.5q-87 -35 -133 -41q-30 -3 -51 -30q-75 -102 -176 -177q-116 -89 -250 -73q-33 3 -57 24q-12 11 -17.5 9.5t-17.5 -19.5
q-54 -84 -139 -207q-204 -306 -260 -385q-13 -19 -38.5 -56t-39.5 -56q-2 -4 -7.5 -12.5t-7.5 -12.5q-53 -75 -125 -43q-14 8 -15.5 15t7.5 24q30 51 72 113q50 74 163 249t177 269q42 63 144.5 218t178.5 267.5t150 216.5q12 14 31 41q14 18 25 22.5t32 -1.5q26 -7 37 -21
q13 -19 37 -2l4 2q41 29 84 29.5t73 -16t50 -42.5q16 -22 17.5 -55.5t-3.5 -62.5q0 -5 -6 -29zM266 326q-39 0 -55 -9.5t-41 -48.5q-9 -14 -27.5 -43.5t-27.5 -44.5q-23 -33 -9 -61q3 -5 11 -21.5t14 -25.5q8 -15 16 -17t27 8q8 5 21.5 14.5t15.5 10.5q45 36 102 100
q42 48 66 93q13 19 -6 22q-5 2 -24.5 7.5t-28.5 8t-24.5 5t-29.5 2.5zM530 553q2 4 2 8q6 24 1.5 27.5t-27.5 -6.5q-21 -9 -94 -56q-63 -42 -138 -114q-12 -12 -11 -18t16 -7q44 -9 114 -35q20 -6 26.5 -3t18.5 24q5 8 13.5 21.5t15.5 24.5t12 21q43 84 51 113z" />
    <glyph glyph-name="q" unicode="q" horiz-adv-x="708" 
d="M590 573q2 1 39 45q23 28 38.5 32.5t41.5 -9.5q2 -1 5.5 -3t5.5 -3t5 -3t5 -3.5t4.5 -4t4.5 -5t3.5 -5.5t2.5 -6q9 -22 -8 -45q-37 -52 -101.5 -148t-92.5 -136q-1 -2 -5 -7t-6 -10t-2 -10q5 -1 10.5 0.5t8.5 3t9 5.5t7 5q110 69 240 131q26 13 53 19q19 4 25 -8
q2 -12 -17 -27q-1 -1 -8 -6.5t-12 -7.5q-32 -19 -107 -65t-116 -69q-89 -49 -177 -102q-25 -15 -57 -65q-10 -13 4 -27q22 -28 31 -66q17 -81 -21 -182q-69 -182 -231 -389q-42 -52 -92 -90q-88 -65 -186 -49q-51 6 -60 57q-7 59 12 109q25 72 52 116q80 141 135 228
q16 26 48 78.5t58 92.5t51 76q16 21 47 65t46 65q1 1 5 5.5t3.5 6t-0.5 8.5q-9 -8 -27.5 -24.5t-27.5 -24.5q-39 -34 -72 -55q-36 -21 -73 -20.5t-63 28t-20 69.5q22 156 139 322q80 111 166 166q79 49 138 47q108 -10 133 -94q4 -4 6 -11zM-25 -606q-12 -41 -8 -60
q8 -28 37 -8q30 21 55 49q104 124 170 221.5t105 204.5q30 89 12 168q-9 26 -27 2q-51 -70 -51 -71q-146 -219 -243 -396q-41 -75 -50 -110zM111 121q12 2 24 14q241 218 367 346q18 18 18 39v29q0 44 -18 53t-64 -14q-76 -44 -135 -111q-107 -121 -174 -287
q-16 -47 -18 -69z" />
    <glyph glyph-name="r" unicode="r" horiz-adv-x="585" 
d="M399 565q62 37 90 53q64 36 117 19q52 -17 69.5 -62.5t-5.5 -103.5q-35 -81 -109 -137q-80 -62 -164 -10q-14 7 -8 26q9 19 29 19q6 0 11.5 1t9.5 2t10 5t8.5 6t9 7t8.5 7q75 63 103 148q10 30 4 35t-35 -7q-71 -29 -139 -79q-129 -97 -215 -228q-46 -69 -173 -233
q-26 -34 -71.5 -41t-71.5 12q-15 9 -4 31q1 3 23 41q164 257 356 508q16 24 43 51q25 25 57 18q2 -2 8 -2q37 -11 44 -26.5t-5 -59.5z" />
    <glyph glyph-name="s" unicode="s" horiz-adv-x="663" 
d="M-96 -393q-80 -3 -133 47q-51 47 -17 119q30 64 115 131q37 26 147 96q21 12 25 19t4 28v115q7 151 66 256q55 103 184 186q52 35 121 62q76 28 137 8q67 -20 104 -62q28 -39 7 -88q-62 -125 -160 -184q-66 -39 -115 -23q-6 2 -16 7q-1 1 -4 3t-4 3l-3 3t-2.5 3.5t-0.5 4
t1 5.5q2 6 23 16q130 49 180 203q9 25 1 32t-34 -1q-71 -21 -147 -84q-71 -61 -113 -125q-42 -69 -53 -176q-4 -27 -4 -78q0 -15 4 -16.5t21 6.5q40 22 119.5 65t119.5 64q108 60 281 139q34 15 51 15q16 0 16 -11q0 -8 -12 -16q-6 -5 -25 -14q-360 -204 -540 -302
q-23 -11 -26.5 -16.5t-2.5 -26.5q7 -131 -37 -237q-50 -125 -178 -162q-69 -16 -100 -14zM33 -168q10 36 10 92q2 8 -2 11.5t-14 -1.5q-106 -66 -146 -116q-18 -21 -24 -43q-18 -62 41 -94q23 -14 38 -10t37 30q48 57 60 131z" />
    <glyph glyph-name="t" unicode="t" horiz-adv-x="473" 
d="M416 840q-15 -1 -45 -2t-45 -2q-183 -16 -402 -13q-88 3 -153 31q-55 21 -64 84q-3 31 14 57q13 21 29 21q17 0 21 -23q3 -11 -13 -20q-32 -22 -8 -43q11 -9 39 -17q86 -22 143 -22q234 0 353 12q103 12 155 8q41 -3 68 35q55 69 125 139q24 24 51 45q30 23 57 7
q7 -3 25 -17q18 -18 18.5 -33t-16.5 -40q-9 -15 -20.5 -31t-25.5 -35.5t-22 -30.5q-7 -10 -8.5 -15t3 -7t16.5 -2q13 -1 41 -1t41 -1q270 0 458 -37q70 -15 107 -33q30 -18 33 -53q4 -28 -19 -45q-9 -9 -16 -4q-7 2 -2 12q9 28 6.5 34t-25.5 15q-49 21 -155 29
q-209 23 -439 14q-15 0 -47 -2t-47 -2q-19 0 -39 -23q-174 -225 -286 -385q-14 -22 -46.5 -68.5t-56 -82.5t-41.5 -70q-5 -10 -17 -33t-18 -36q-9 -17 -18 -56q-4 -26 2 -30t31 10q78 43 211 139q66 45 192 135q39 23 70 31q20 5 24 -4q6 -11 -10 -31q-6 -9 -18 -18
q-204 -166 -324 -252q-49 -36 -96 -55q-78 -35 -156 -13q-86 31 -61 125q15 65 63 156q81 150 199 317q24 33 70.5 97.5t70.5 97.5q20 25 23 37z" />
    <glyph glyph-name="u" unicode="u" horiz-adv-x="673" 
d="M412 61q8 4 15 8.5t15.5 12.5t10.5 10q86 76 258 232q49 44 63 55l10 10l8 4t9 3.5t7.5 1.5t7.5 -0.5t5 -4.5q9 -12 -12 -33q-78 -88 -147 -157q-130 -124 -142 -135q-47 -44 -88 -66q-58 -34 -115 -22q-53 9 -53 65q0 17 4 53q-5 1 -8.5 -1t-8.5 -7t-7 -6
q-61 -48 -88 -64q-71 -39 -142 -20q-35 10 -48 41.5t1 69.5q13 42 47 112q78 159 236 365q7 9 21.5 28.5t21.5 28.5q18 22 27.5 26.5t33.5 -1.5q12 -3 21 -6q38 -15 43.5 -39.5t-19.5 -65.5q-34 -56 -101 -158t-87 -133q-71 -109 -107 -196q8 0 35 16q21 16 117 102
q4 3 12.5 11.5t12.5 11.5q65 48 129 143q52 75 135 172q17 20 52.5 60t53.5 61q22 22 43 17q18 -6 33 -15q40 -26 14 -76q-21 -49 -63 -104q-138 -185 -143 -192q-45 -60 -109 -175q-14 -28 -14 -43z" />
    <glyph glyph-name="v" unicode="v" horiz-adv-x="647" 
d="M31 195q36 135 65 202q42 95 144 236q31 48 65 41q56 -7 72 -49q3 -10 -10 -37q-88 -144 -156 -312q-31 -81 -51 -180q0 -3 -1 -9t-1 -9q0 -19 18 -8q4 3 12.5 9t12.5 9q121 102 237 258q16 21 6 49q-35 83 9 178q41 90 133 121q60 22 104 -18q23 -20 6 -66
q-36 -90 -102 -182q-5 -6 -14.5 -19.5t-14.5 -19.5q-6 -11 -7.5 -16.5t1.5 -10t12 -8.5q30 -14 84 -4q22 4 64 19q18 10 47 14q20 4 20 -12q2 -11 -14 -23q-65 -35 -113 -45q-60 -11 -116 8q-20 6 -26 4t-21 -22q-98 -126 -172 -195q-61 -57 -91 -75q-61 -32 -113.5 -27.5
t-84.5 31.5q-23 20 -23 59q0 25 2 37q5 27 17 72zM612 612q-35 -25 -55.5 -62t-17.5 -71q53 73 73 133z" />
    <glyph glyph-name="w" unicode="w" horiz-adv-x="950" 
d="M469 61q14 7 29.5 18t22.5 17t25.5 23.5t20.5 19.5q94 87 183 207q17 23 6 45q-34 76 6 182q34 81 133 121q59 24 106 -20q17 -14 11 -43q-4 -26 -27 -70q-50 -94 -100 -160q-19 -25 -15.5 -37t31.5 -16q33 -9 72 4q12 3 34 10.5t33 10.5q20 10 41 10q17 0 17 -12
q2 -9 -13 -21q-44 -26 -63 -33q-89 -31 -160 -8q-28 8 -35.5 5t-29.5 -31q-86 -117 -185 -203q-15 -15 -43 -39q-52 -41 -118 -45.5t-105 29.5q-20 20 -24 69q0 28 10 80l-90 -90q-29 -30 -52 -47q-53 -45 -127 -35q-40 6 -49 45q-6 23 -2 72q14 90 37 155q41 115 160 306
q6 10 18.5 29.5t18.5 29.5q25 38 63 27q23 -6 41 -21q28 -24 8 -65q-12 -25 -35 -74t-34 -74q-64 -125 -129 -305v-10q10 2 22 18q42 45 113 132t102 122q3 3 15 21q27 57 120 200q11 19 29 37q33 36 70 25q19 -6 35 -19q34 -22 8 -69q-130 -219 -189 -416q-20 -70 -16 -107
zM920 608q-32 -22 -51 -56.5t-17 -68.5q53 75 68 125z" />
    <glyph glyph-name="x" unicode="x" horiz-adv-x="503" 
d="M266 442q37 33 107 99q83 77 168 153q23 19 50.5 15t33.5 -27q6 -12 -15 -33q-42 -46 -135 -135q-34 -33 -100.5 -97.5t-100.5 -97.5q-22 -19 -22 -40q0 -20 -1 -57.5t-1 -55.5q0 -34 10 -64q6 -15 12 -15.5t19 11.5q20 18 59.5 54.5t59.5 54.5q31 28 92 83t92 83t59 35
q12 5 17.5 -2t-0.5 -19t-25 -31q-49 -53 -151 -155q-70 -73 -144 -144q-14 -18 -31 -26q-35 -25 -69 -35t-67.5 -2.5t-59.5 35.5q-30 30 -43 84q-3 9 -6 12t-7 0.5t-14 -10.5q-23 -20 -68 -62t-67 -63q-17 -17 -53 -49q-20 -18 -50.5 -19t-43.5 15q-9 13 4 26q15 18 30 33
q118 115 242 233q26 26 29 60q10 171 41 311q2 16 10 43q15 43 57 43q51 0 82 -31q14 -12 10 -39q-8 -88 -14 -137q0 -29 4 -37z" />
    <glyph glyph-name="y" unicode="y" horiz-adv-x="710" 
d="M322 176q-14 -12 -42 -37.5t-42 -38.5q-43 -40 -99 -77q-58 -31 -108 -23q-47 6 -47 57q0 54 30 150q21 62 66 137q103 181 194 291q2 2 6 7t6 7l6 6t6.5 6t7 5t8 4t7.5 1.5t9 0.5q47 -6 65 -39q6 -13 -8 -41q-15 -35 -94 -166q-114 -187 -154 -274q-18 -36 -18 -64
q16 8 39 31q10 9 286 256q20 20 35 41q10 14 58 85t77 107q16 24 29 35q17 14 27.5 15.5t25.5 -7.5q62 -30 23 -102q-17 -29 -52 -87.5t-51 -88.5q-33 -55 -57 -101q-9 -14 -6 -18q6 0 11.5 2t9.5 4t10.5 6t9.5 6q125 80 184 109q36 16 54 16q15 4 20 -6q3 -11 -12 -22
q-12 -10 -31 -21q-127 -81 -311 -215q-36 -26 -60 -63q-177 -290 -286 -437q-129 -168 -236 -268q-111 -99 -217 -117q-42 -9 -82 0q-35 11 -41 50q-8 47 14 106q65 169 218 303q107 100 272 219q6 5 156 113q17 13 28 33q10 16 30 50t30 50zM154 -115q-7 4 -13 -2
q-139 -99 -229 -184q-132 -128 -186 -227q-33 -68 -33 -111q1 -5 0 -18t1.5 -20t10.5 -9q6 -1 12.5 2t11 6.5t13 11t10.5 9.5q16 14 30 28t32.5 36t24 29t30 38t25.5 32q22 26 42.5 53t44 61t36.5 53t41 62t36 56q56 88 60 94z" />
    <glyph glyph-name="z" unicode="z" horiz-adv-x="727" 
d="M137 2q-53 25 -57 29q-25 28 10 51q22 16 62 42t49 32q48 34 118 86q170 132 203 159q73 56 111 154q6 15 2 20.5t-21 2.5q-13 -2 -53 -15q-125 -44 -235 -123q-54 -39 -93 -94q-11 -14 -18 -31q-6 -15 -4 -20t16 -10q39 -8 52 -25q20 -20 -13 -33q-16 -8 -39 -8
q-91 -3 -137 51q-30 39 -8 90q50 115 168 191q83 50 170 88q121 46 203 29q75 -15 118 -70q19 -29 11 -66q-21 -90 -111 -180q-71 -71 -201 -162q-71 -48 -106 -79q15 8 43.5 23.5t42.5 23.5q319 182 371 209q19 11 45 22q18 11 32 8q19 -4 6 -20q-2 -3 -30 -25
q-323 -209 -510 -317q-26 -15 -28.5 -21t9.5 -28q44 -88 9.5 -179.5t-121.5 -142.5q-147 -89 -273 -94q-100 -3 -163 43q-35 28 -35 66t37 81q41 51 118 103q81 51 203 114q7 4 22.5 12t24.5 13zM197 -131q10 46 8 65q0 19 -5 21.5t-22 -6.5q-20 -11 -62 -33.5t-63 -34.5
q-73 -42 -104 -67q-64 -49 -92 -97q-20 -37 -2.5 -64.5t57.5 -21.5q68 12 133 47q124 69 152 191z" />
    <glyph glyph-name="braceleft" unicode="{" horiz-adv-x="942" 
d="M434 559q4 -6 16 -22t17 -25q30 -59 0 -133q-22 -52 -90 -152q-146 -216 -215 -352q-51 -107 -53 -172q0 -29 4 -41q5 -28 10.5 -32t36.5 1q6 2 16 2q13 0 16 -10t-6 -22q-8 -10 -30 -19q-46 -19 -90 -8.5t-66 45.5q-39 62 -35 180q2 71 66 189q58 108 162 260
q76 109 106 162q26 55 29 71q7 51 -29 64q-24 9 -43 28q-31 35 16 58q112 56 152 184q35 105 72 232q73 239 252 415q116 116 247 180q85 36 152 21t110 -74q27 -38 -4 -90q-26 -44 -61 -67q-26 -17 -39 -17q-19 -3 -25 12q-3 7 11 25q5 6 15 18.5t15 18.5q18 24 21 53
q3 25 -21 25q-18 -2 -57 -15q-77 -34 -154 -104q-189 -166 -266 -373q-26 -71 -61 -203q-18 -68 -35 -112q-50 -137 -162 -201z" />
    <glyph glyph-name="bar" unicode="|" horiz-adv-x="937" 
d="M-31 -401q-8 2 -18 2q-27 4 -31 14.5t10 38.5q38 69 82 142.5t104 171t87 141.5q262 432 428 688q273 434 379 594q18 25 62 89t69 99q11 17 24 31q1 1 7 10t8.5 11t8.5 7.5t12 7.5t13 1q50 -3 66 -37q7 -14 -6 -39q-25 -55 -62 -117q-217 -363 -268 -444
q-180 -293 -301 -480q-27 -41 -133 -207.5t-166 -256.5q-35 -50 -99.5 -153t-99.5 -153q-13 -21 -86 -118q-17 -23 -37 -31t-53 -12z" />
    <glyph glyph-name="braceright" unicode="}" horiz-adv-x="942" 
d="M772 680q-32 42 -33 45q-29 60 2 133q26 60 88 152q137 197 215 354q51 98 54 172q0 27 -2 41q-4 27 -11 31t-38 -2q-4 -2 -17 -2q-12 2 -15 11t7 21q12 15 31 21q46 17 89 6.5t66 -45.5q40 -62 33 -180q-2 -75 -63 -187q-59 -108 -162 -260q-66 -90 -109 -164
q-22 -41 -26 -69q-10 -50 28 -66q26 -11 41 -26q30 -35 -14 -58q-111 -55 -152 -184q-27 -78 -73 -234q-68 -233 -250 -415q-123 -120 -250 -178q-83 -36 -151 -21t-109 72q-28 43 4 92q29 46 61 67q22 15 39 17q19 0 25 -14q2 -9 -10 -25q-3 -4 -14.5 -16t-16.5 -19
q-15 -19 -23 -55q-3 -23 21 -23q23 0 57 15q73 29 156 102q191 170 266 375q30 78 59 203q3 13 35 110q48 135 162 203z" />
    <glyph glyph-name="asciitilde" unicode="~" horiz-adv-x="522" 
d="M434 276q-25 0 -51 13q-34 13 -47 28q-41 41 -113 2q-30 -15 -45 -28q-21 -14 -35 -6q-21 12 -31.5 30.5t-3.5 43.5t37 47q69 54 140 26q23 -7 61 -41q34 -31 54.5 -31t70.5 31q35 27 53 43q23 21 41 8q36 -25 17 -69q-19 -38 -63.5 -67.5t-84.5 -29.5z" />
    <glyph glyph-name="exclamdown" unicode="&#xa1;" horiz-adv-x="905" 
d="M-162 -707q8 16 17 37q15 28 67 107q120 184 336 530q90 141 190 300.5t220 352t188 300.5q21 35 41 55q34 29 59 18q12 -5 16.5 -19.5t-1.5 -31.5q-5 -15 -37 -78q-156 -288 -414 -735q-194 -339 -231 -401q-116 -194 -344 -490q-22 -28 -39 -31t-39 17q-16 13 -25 31
q-9 15 -4 38zM1038 1120q-31 0 -48.5 17.5t-16.5 46.5q0 7 -2 19.5t-2 19.5q-3 27 24 51q74 66 129 16q11 -5 13 -10q40 -46 10 -96q-17 -28 -47.5 -46t-59.5 -18z" />
    <glyph glyph-name="cent" unicode="&#xa2;" horiz-adv-x="827" 
d="M825 666q-42 -5 -96 -25q-14 -5 -35 -35q-100 -170 -166 -266q-31 -45 -64.5 -96.5t-74 -114.5t-63.5 -98q-1 -1 -8 -9t-7 -10v-10q2 -3 6 -3.5t7 0t8.5 2t7.5 1.5q162 25 301 92q39 18 74 27q24 5 28 -4q7 -9 -10 -35q-24 -29 -61 -49q-98 -54 -230 -88
q-102 -27 -161 -29q-43 -3 -60 -37q-9 -21 -49 -76q-12 -18 -31 -23.5t-32 3.5q-19 14 -9 41q3 5 16.5 30t20.5 40q12 22 11.5 26.5t-19.5 13.5q-56 26 -84 72q-26 40 -20 88q10 70 38 131q77 161 236 320q114 114 246 186q66 37 129 51q30 6 47 35q2 4 53 74q24 33 53 12
q28 -25 9 -65q-17 -32 -15.5 -40t29.5 -20q73 -34 96 -108q12 -46 -31 -86q-46 -46 -151 -90q-21 -7 -33 16q-8 18 19 33q36 28 53 45q27 23 39 51q9 17 6 22.5t-23 4.5zM522 514l-10 -2q-27 -21 -51 -45q-142 -129 -225 -262q-56 -89 -68 -154q-4 -29 -2 -41q3 -16 18 -16
t21 16q1 1 3 4t3 4q27 43 93 149.5t102 162.5q7 11 48 79.5t68 104.5z" />
    <glyph glyph-name="sterling" unicode="&#xa3;" horiz-adv-x="911" 
d="M1001 817q-71 -18 -137 -84q-93 -93 -176 -223q-4 -7 -13 -21.5t-13 -21.5q-8 -12 -6.5 -18t14.5 -7q14 -2 44 -5t44 -5q44 -3 73 -16q8 -3 19 -10q8 -7 4.5 -16t-16.5 -15q-12 -4 -39 -4q-122 5 -146 6q-8 2 -20 2q-15 -1 -20.5 -2.5t-11 -6.5t-13.5 -18
q-71 -120 -197 -293q-74 -98 -117 -145q-10 -10 -14 -16q-14 -16 6 -19q106 -8 164 -4q138 13 248 47q29 7 74 25q27 10 47 10q16 0 22 -16q3 -17 -14 -31q-19 -19 -39 -25q-224 -88 -375 -88q-11 0 -58.5 1t-77 0t-60.5 -5q-56 -11 -91 -35q-37 -26 -81.5 -21t-63.5 36
q-7 12 -5 20t17 23q167 178 260 299q73 91 166 225q3 4 8.5 12.5t8.5 12.5q12 18 -8 18h-76q-51 -3 -72 35q-20 33 23 39q65 12 129 6q48 -6 61.5 1t44.5 54q115 176 211 281q64 71 125 102q52 29 101.5 25t80.5 -41q16 -20 25 -37q13 -27 3 -51.5t-40 -42.5q-19 -11 -29 -4
q-13 10 -8 26q1 4 5 11.5t6.5 14.5t2.5 15z" />
    <glyph glyph-name="currency" unicode="&#xa4;" horiz-adv-x="1030" 
d="M795 725q1 -5 3.5 -15t2.5 -14q0 -1 3.5 -11.5t2 -16t-9.5 -9.5q-9 -5 -16 3.5t-9 19.5q-10 38 -61 31q-26 -3 -62 -17q-101 -43 -166 -114q-57 -63 -110 -138q-106 -164 -129 -292q-20 -116 28 -177q24 -27 66 -30q77 0 170 41q151 65 274 182q138 128 166 278
q32 192 -110 267q-3 1 -11 4.5t-15.5 5.5t-16.5 2zM756 4q-63 -44 -168 -90q-98 -46 -197 -43q-132 3 -211 82q-4 -2 -12 -7t-12 -7q-69 -37 -127 -13q-43 15 0 51q65 48 92 70q-25 80 -8 174q38 169 149 309q4 6 13.5 18.5t13.5 18.5l-25 33q-6 5 -20 23q-22 25 -19 59
q3 40 37 31q53 -10 82 -43l21 -17q8 7 21.5 19.5t25.5 23t24 19.5q100 80 217 80q45 -3 82 -21q12 -4 15 -4q6 -3 16 4q11 8 20 8q13 0 19 -2q30 -9 41 -14q84 -36 141 -88q50 28 88 35q20 4 26.5 -3.5t-1.5 -27.5q-16 -38 -47 -59l-9 -9q73 -109 15 -254
q-59 -149 -187 -268q6 -7 18.5 -21.5t18.5 -21.5q10 -14 31 -39.5t27 -32.5q31 -36 -19 -51q-71 -24 -123 13q-41 33 -69 65z" />
    <glyph glyph-name="yen" unicode="&#xa5;" horiz-adv-x="919" 
d="M629 510q-34 -24 -154 -107q-56 -40 -129 -77q-97 -41 -161.5 -3.5t-69.5 111.5q-2 55 22 137q59 176 152 303q28 36 47.5 38.5t40.5 -27.5q27 -43 -4 -97q-57 -99 -94 -190q-4 -12 -15 -38.5t-16.5 -41.5t-12 -38t-10.5 -42q-8 -51 5 -56t53 15q68 29 170 101
q7 5 60 42.5t64.5 46t58 41.5t63.5 46t57.5 42.5t63.5 47.5t56.5 43.5t62 48.5t56.5 47q18 14 30 14.5t26 -12.5q14 -14 20 -24q17 -25 13.5 -45t-29.5 -48q-181 -198 -398 -489q-4 -4 -16 -20q-11 -17 -10 -21.5t18 -7.5q57 -10 90 -25q25 -11 35 -26q8 -15 -2 -25
q-6 -9 -20 -4q-54 14 -140 18q-46 0 -65 -32q-3 -5 -19 -26t-18 -36q3 -5 29.5 -4.5t29.5 0.5q63 -4 88 -18q17 -9 13 -21q-5 -12 -23 -12q-16 -2 -47 -2q-39 -2 -119 -2q-29 0 -47 -27q-55 -80 -96 -158q0 -2 -3.5 -9.5t-4.5 -12.5q-5 -16 -12.5 -22.5t-24.5 -6.5
q-34 0 -47.5 21.5t-1.5 56.5q11 35 41 94q2 4 12 29q6 12 3 16t-15 4q-21 0 -31 -4q-32 -14 -55 17q-12 11 -7.5 23t21.5 20q24 11 55 14h23q44 1 53 8.5t37 57.5q12 18 -10 18q-16 0 -50.5 -4t-52.5 -4q-46 -3 -63 29q-15 34 24 47q48 20 133 24q23 2 70 2q24 0 35 19l8 8
q59 86 158 209q-4 4 -4 6z" />
    <glyph glyph-name="brokenbar" unicode="&#xa6;" horiz-adv-x="944" 
d="M1294 1606q-5 -14 -16 -33q-176 -301 -270 -438q-21 -30 -205 -306q-58 -82 -92 -118q-37 -46 -78 -25q-17 9 -18.5 20t10.5 31q19 32 100 169.5t123 211.5q128 224 313 494q32 46 47 59q20 23 45 12q44 -24 41 -77zM-6 -352q-11 0 -17 2q-34 6 -40 21.5t12 52.5
q47 91 151 243q148 212 224 316q64 90 151 190q49 57 86 74q29 14 39 8t4 -35q-3 -23 -37 -80q-140 -197 -215 -317q-88 -139 -219 -352q-48 -72 -78 -101q-31 -27 -61 -22z" />
    <glyph glyph-name="section" unicode="&#xa7;" horiz-adv-x="974" 
d="M631 135q1 -9 16 -29q39 -51 64 -114q10 -25 10 -68q-6 -67 -68 -106q-52 -30 -116 -37q-89 -3 -162 24q-157 57 -269 160q-32 30 -61 76q-16 26 -16 57q3 51 47 62q54 17 65 -27q4 -25 2 -41q-5 -37 19 -65q96 -96 217 -121q67 -13 129 12q75 31 63 100q-5 34 -30 70
q-29 42 -97 102q-78 63 -125 113q-32 37 -51 76q-15 30 2 47q16 16 49 4q18 -3 37 -18q110 -77 140 -97q71 -49 125 -63q2 0 8.5 -2t10 -2t8.5 1.5t9 6.5q11 11 7 37t-27 74q-68 149 -92 223q-31 100 -25 164q9 70 70 125q38 29 57 39q165 77 318 53q110 -17 157 -129
q24 -63 -37 -121q-54 -45 -108 -74q-53 -27 -105 -51q-8 -4 -10 -4q-26 -7 -33 14q-4 13 15 29q50 37 92 80q37 34 63 76q17 26 13 34.5t-35 5.5q-13 0 -41 -4q-90 -13 -170 -49q-26 -13 -59 -35q-63 -47 -60 -110q2 -44 29 -103q65 -137 88 -182q34 -74 41 -96
q11 -32 8 -64q-1 -29 -20 -47.5t-50 -23.5q-33 -5 -71 8q-30 10 -41 10z" />
    <glyph glyph-name="dieresis" unicode="&#xa8;" horiz-adv-x="600" 
d="M788 1370q-38 0 -68.5 32t-27.5 66q2 32 22.5 59t55.5 40q31 12 59 4.5t43 -33.5q9 -17 27 -61q19 -56 -43 -86q-44 -21 -68 -21zM442 1370q-38 0 -68.5 32t-27.5 66q2 32 22.5 59t55.5 40q31 12 59 4.5t43 -33.5q9 -17 27 -61q19 -56 -43 -86q-44 -21 -68 -21z" />
    <glyph glyph-name="copyright" unicode="&#xa9;" horiz-adv-x="1284" 
d="M45 178q26 120 92 228q147 251 375 430q109 85 201 127q130 55 252 10q68 -29 94 -90q5 -19 26 -29q82 -52 123 -88q86 -71 125 -168q35 -93 13 -213q-43 -224 -246 -430q-90 -90 -205 -160q-139 -84 -336 -108q-133 -13 -242 16q-163 42 -239 169.5t-33 305.5zM428 -246
q51 0 78 4q295 44 514 273q199 209 213 426q12 155 -80 252q-76 78 -242 163q-45 22 -92 -4q-5 -2 -16.5 -7t-16.5 -7q-95 -51 -208 -149q-116 -108 -220 -246q-157 -218 -178 -414q-6 -63 6 -119q47 -181 242 -172zM770 457q-5 -1 -11 -6.5t-7 -6.5q-102 -124 -156 -258
q-2 -4 -6 -16t-1 -14.5t15 0.5q14 4 64 26q42 20 75 25q29 3 17 -25q-10 -25 -39 -47q-18 -11 -68 -37q-67 -34 -120.5 7t-38.5 106q8 44 34 102q50 98 103 164q50 61 92 84q41 24 72 8q23 -15 30 -24q18 -22 20 -40.5t-6 -34t-30 -44.5q-7 -9 -16 -9t-15 9q-1 2 -2 7.5
t-2 8.5q-1 1 -1.5 7.5t-2.5 7.5z" />
    <glyph glyph-name="ordfeminine" unicode="&#xaa;" horiz-adv-x="397" 
d="M401 1094q-3 2 -6.5 2t-8 -1t-7.5 -1q-54 -5 -79.5 35t-2.5 92q28 68 98 122q80 62 140 13q2 -2 6 -5t6 -5q8 -11 24 2q23 22 35.5 24t34.5 -12q18 -13 29 -39q11 -21 -8 -47q-36 -50 -58 -74q-33 -35 -121 -145q-2 -2 -6 -8.5t-6 -8t-7 -7t-7.5 -5.5t-9 -2.5t-11.5 0.5
q-15 3 -26.5 18.5t-10.5 32.5q0 2 1.5 9t0.5 10zM512 1284q-28 -9 -60 -40t-46 -60q66 50 106 100z" />
    <glyph glyph-name="guillemotleft" unicode="&#xab;" horiz-adv-x="1036" 
d="M86 328q3 73 55 147q68 96 181 203q135 130 333 272q8 6 36.5 28t45.5 34q44 33 84 6q33 -22 45 -49q8 -18 4.5 -32.5t-22.5 -31.5q-22 -21 -63.5 -56t-55.5 -48q-179 -151 -307 -287q-101 -113 -133 -174q-37 -70 -8 -139q18 -39 57 -82q64 -67 154 -119q48 -23 77 -29
q27 -3 58 -18q12 -6 20 -14q11 -11 6 -25q-6 -14 -24 -18q-12 -2 -35 -2q-41 3 -82 16q-231 91 -371 264q-47 55 -53 137q0 3 -1 9t-1 8zM426 328q3 73 55 147q68 96 181 203q135 130 333 272q8 6 36.5 28t45.5 34q44 33 84 6q33 -22 45 -49q8 -18 4.5 -32.5t-22.5 -31.5
q-22 -21 -63.5 -56t-55.5 -48q-179 -151 -307 -287q-101 -113 -133 -174q-37 -70 -8 -139q18 -39 57 -82q65 -68 153 -119q47 -23 78 -29q27 -3 58 -18q12 -6 20 -14q11 -11 6 -25q-6 -14 -24 -18q-12 -2 -35 -2q-41 3 -82 16q-231 91 -371 264q-47 55 -53 137q0 3 -1 9
t-1 8z" />
    <glyph glyph-name="logicalnot" unicode="&#xac;" horiz-adv-x="935" 
d="M670 317q-154 -2 -477 -10q-8 0 -24 1t-24 1q-29 1 -44.5 21t-10.5 51q3 25 29 31q57 11 63 12q118 12 176 12q64 0 181 4.5t163 5.5q28 0 87.5 2.5t89.5 2.5q24 0 36 -2q34 -5 50 -37q38 -84 -21 -160q-113 -155 -194 -252q-2 -3 -15 -16q-37 -34 -51 4q-10 30 14 65
q15 24 32 51.5t37.5 60t31.5 50.5q38 59 45 74q11 17 8.5 22.5t-21.5 5.5h-161z" />
    <glyph glyph-name="registered" unicode="&#xae;" horiz-adv-x="954" 
d="M483 516q-149 0 -229 101t-51 249q31 153 149 310q87 116 174 184q110 83 217 80q40 0 84 -21q16 -10 31 0q12 10 39 6q25 -7 41 -14q107 -48 180 -129q96 -108 33 -276q-72 -187 -260 -326q-91 -67 -211 -121q-104 -46 -197 -43zM887 1370q1 -5 3.5 -15t2.5 -14
q0 -3 2 -9.5t2.5 -10.5t-1 -8.5t-7.5 -7.5q-17 -8 -27 22q-10 38 -61 31q-23 -2 -60 -17q-99 -43 -168 -114q-74 -85 -108 -137q-106 -164 -129 -293q-21 -116 29 -176q25 -28 63 -31q80 0 170 41q147 62 276 182q139 133 164 279q36 190 -110 266q-30 12 -41 12zM684 934
q8 -7 24.5 -12.5t18.5 -6.5q12 -8 18 -14q11 -7 5 -18t-19 -11q-6 -2 -16 -2q-94 4 -140 50q-6 6 -12 4q-7 -7 -13.5 -16.5t-13 -21.5t-10.5 -18q-17 -23 -28.5 -28t-28.5 4q-52 27 -20 65q4 6 11 16t9 13q15 18 131 172q19 23 26 25.5t27 -9.5q14 -8 31 0q10 5 16 7
q67 31 111 -29q18 -28 -6 -66q-24 -37 -76 -73q-2 -1 -19.5 -12t-25.5 -19z" />
    <glyph glyph-name="macron" unicode="&#xaf;" horiz-adv-x="645" 
d="M657 1532q6 0 61 1t93.5 0t75.5 -5q38 -3 63 -25q12 -10 9 -23t-21 -22q-13 -4 -35 -8q-176 -12 -266 -18q-143 -9 -195 -7q-24 0 -34 2q-57 9 -60 66q0 27 29 33q34 6 63 6h217z" />
    <glyph glyph-name="degree" unicode="&#xb0;" horiz-adv-x="395" 
d="M510 1282q-63 0 -107 33.5t-55 85.5q-8 46 16 99t70 91q58 49 127 33q24 -6 57 -31q56 -50 72 -131q15 -79 -63 -133q-61 -43 -117 -47zM586 1487q4 10 4 33q-1 13 -7.5 17t-19.5 -1q-37 -12 -78.5 -57.5t-48.5 -83.5q-3 -19 2.5 -24.5t24.5 -2.5q44 8 78.5 40.5
t44.5 78.5z" />
    <glyph glyph-name="plusminus" unicode="&#xb1;" horiz-adv-x="782" 
d="M385 399q45 0 68 -2q25 0 41 25q40 63 96 143q20 34 45 53q22 22 43 11q60 -37 18 -97q-13 -18 -36 -52.5t-35 -51.5q-19 -26 -17.5 -31t29.5 -4q45 0 131 -8q35 -3 59 -27q11 -10 6.5 -21.5t-22.5 -17.5q-19 -8 -41 -8q-31 1 -97.5 -3t-97.5 -3q-42 0 -67 -37
q-10 -14 -109 -151q-27 -36 -55 -27q-18 6 -22.5 23t6.5 37q13 29 51 90l18 30q11 20 -10 23q-11 0 -23.5 1t-27.5 2.5t-23 2.5q-28 3 -37.5 21t-11.5 49q0 25 35 28h84zM309 20q6 0 60.5 1t93 0t76.5 -5q36 -3 63 -24q12 -10 8.5 -23t-22.5 -22q-11 -4 -33 -8
q-44 -3 -133 -9.5t-133 -9.5q-132 -8 -195 -6q-25 0 -37 2q-57 9 -57 66q0 26 29 32q30 6 63 6h217z" />
    <glyph glyph-name="twosuperior" unicode="&#xb2;" horiz-adv-x="313" 
d="M446 1114q1 -4 4 -7.5t5.5 -4.5l7.5 -3t6 -3q12 -6 23 -17q7 -11 2 -18q-5 -10 -21 -6q-6 1 -18.5 3t-18.5 3q-57 11 -94 -6q-23 -9 -51 4.5t-33 34.5q-3 19 25 30q57 21 131 84q34 30 61 64q5 10 4 12q-3 8 -14 4q-4 -2 -17 -8t-19 -9.5t-13 -12.5t-8 -21
q-2 -17 -21 -12q-27 5 -33.5 32.5t13.5 53.5q26 33 74 49t81 2q28 -14 49 -45q19 -42 -8 -84q-31 -48 -80 -90q-6 -5 -18.5 -14.5t-18.5 -14.5z" />
    <glyph glyph-name="threesuperior" unicode="&#xb3;" horiz-adv-x="299" 
d="M395 1155q-36 18 -45 39q-8 17 -4 28t23 23q25 18 67 43q2 2 7 5.5t8 6t7 6.5t7 9q-36 -5 -76 -33q-2 -2 -7 -6.5t-7 -6.5t-7.5 -3.5t-9.5 2.5q-22 11 -12 39q16 41 51 63q25 16 50.5 23t49 4.5t43 -18.5t31.5 -44q15 -39 -18 -78q-28 -32 -70 -59q-21 -11 -12 -29
q10 -17 10 -34q3 -27 -12.5 -48.5t-42.5 -27.5q-98 -19 -150 45q-17 22 -4 35q14 12 35 -4q22 -17 41 -12.5t47 32.5z" />
    <glyph glyph-name="acute" unicode="&#xb4;" horiz-adv-x="395" 
d="M731 1544q-11 -38 -57 -78q-48 -34 -72 -45q-26 -13 -76 -37l-75 -36q-48 -19 -72 -23q-44 -9 -57 29q-8 22 16 41q4 2 12 7t12 7q31 17 187 117q61 45 94 96q22 37 51 14q22 -18 31 -34q13 -27 6 -58z" />
    <glyph glyph-name="mu" unicode="&#xb5;" horiz-adv-x="673" 
d="M25 258q89 157 225 330q1 1 8.5 10.5t11.5 15.5q4 5 12.5 15.5t12.5 15.5q15 21 27 27q12 4 32 -2q4 -1 11.5 -3t11.5 -3q75 -28 22 -105q-77 -124 -112 -174q-13 -19 -76 -117q-68 -104 -107 -196q5 0 17 4q2 1 6.5 4.5t7.5 5.5q2 2 4 2q47 34 86 74l31 28q1 1 4 4.5
t4 4.5q3 3 9 7.5t8 6.5q74 57 129 143q67 97 137 172q8 10 25.5 31t25.5 31q29 29 53 59q22 22 43 17l8 -4q6 -2 25 -11q38 -26 14 -76q-25 -55 -63 -104q-11 -17 -34 -46t-30 -38q-55 -76 -82 -108q-47 -66 -104 -175q-4 -4 -4 -6q-5 -8 -8 -16q-4 -12 -4 -21q26 13 37 27
l4 4q51 45 149 135q68 60 107 97q27 21 49 43l16 12q8 8 12 10q11 7 19 10q10 3 16 -6q5 -5 2 -14q-2 -3 -6 -8.5t-6 -8.5v-2q-65 -73 -149 -157q-6 -4 -17 -15q-61 -62 -123 -120q-44 -41 -90 -66q-54 -32 -115 -22q-53 9 -53 65q0 17 4 53q-8 0 -10 -2q-2 -1 -5 -4t-5 -4
l-4 -4q-49 -41 -90 -64q-54 -29 -109 -26l-57 -78q-52 -76 -117 -35l-18 13q-16 13 -19 26q0 11 16 33q3 8 17 31q12 20 18 28q97 169 140 246z" />
    <glyph glyph-name="paragraph" unicode="&#xb6;" horiz-adv-x="1140" 
d="M559 164q-41 0 -59 2q-28 6 -49 -21q-70 -83 -187 -200q-34 -34 -59 -54q-34 -27 -66 -8q-15 9 -15.5 19.5t13.5 27.5q17 19 50.5 56.5t50.5 56.5q16 20 94 117q17 20 16.5 24.5t-22.5 10.5q-94 30 -148 84q-34 32 -53 83q-35 100 57 209q57 65 135 113q183 111 402 133
q54 7 133 -4q74 -13 113 -74.5t36 -130.5q-7 -93 -79 -237q-6 -13 -19.5 -35.5t-17.5 -30.5q-7 -11 -9 -14t-3.5 -8.5t-1 -6.5t5 -2.5t9 -1.5h15.5q29 0 86 3.5t84 3.5q7 -1 21.5 -1.5t21.5 -1.5q35 0 51 -28q15 -24 -16 -33q-50 -10 -62 -10q-183 -18 -249 -21
q-33 -3 -54 -32q-86 -130 -227 -310q-26 -32 -68 -71q-41 -33 -67 -15q-26 16 -10 47q3 6 18 27q22 29 44 59t46 66t38.5 59t43 67.5t39.5 61.5q9 17 8 20t-20 3h-70v-2zM682 705q-47 -4 -121 -31q-142 -50 -231 -125q-76 -63 -107 -131q-34 -79 33 -113q46 -23 125 -33
q25 -3 33.5 1.5t25.5 29.5q130 177 211 338q29 58 31 64zM633 264h57q23 0 39 25q115 196 152 276q22 49 28 97q3 29 -3 37t-36 16q-8 2 -28 2q-25 4 -31 -21q-8 -20 -12 -28q-106 -221 -199 -342q-5 -7 -16.5 -21.5t-16.5 -21.5q-7 -9 -5 -14t11 -5h60z" />
    <glyph glyph-name="periodcentered" unicode="&#xb7;" horiz-adv-x="165" 
d="M166 403q10 0 14 -2q20 -7 28.5 -43t-3.5 -59q-9 -17 -29 -27t-41 -8q-26 3 -43.5 30.5t-11.5 55.5q9 27 37 41q17 8 49 12z" />
    <glyph glyph-name="periodcentered" unicode="&#x2219;" horiz-adv-x="165" 
d="M166 403q10 0 14 -2q20 -7 28.5 -43t-3.5 -59q-9 -17 -29 -27t-41 -8q-26 3 -43.5 30.5t-11.5 55.5q9 27 37 41q17 8 49 12z" />
    <glyph glyph-name="cedilla" unicode="&#xb8;" horiz-adv-x="385" 
d="M156 -319q8 8 8 16q-1 7 -3 20.5t-3 20.5q-34 128 -119 258q-18 22 -23 43q-6 26 19 43q42 29 65 29.5t47 -23.5q99 -99 146 -242q20 -67 6 -131q-12 -51 -57 -80q-84 -52 -156 -26q-89 36 -125 115q-5 9 -8 26q0 31 37 47q20 8 29 5.5t16 -17.5q6 -12 15 -23.5t16.5 -19
t21.5 -18t20.5 -14.5t24.5 -15t23 -14z" />
    <glyph glyph-name="onesuperior" unicode="&#xb9;" horiz-adv-x="278" 
d="M492 1378q39 0 53 -31t-10 -63q-36 -50 -93 -100q-38 -31 -120 -113q-17 -17 -26 -19.5t-22 3.5q-28 16 -16 47q8 20 14 28q78 108 115 148q28 24 19 43q-4 11 6 18q46 31 80 39z" />
    <glyph glyph-name="ordmasculine" unicode="&#xba;" horiz-adv-x="335" 
d="M279 1184q37 112 133 168q54 34 118 24q32 -4 52 -25.5t26 -54.5q3 -21 -16 -51q-80 -108 -180 -158q-53 -28 -101.5 5.5t-31.5 91.5zM373 1155q35 17 65 47q12 12 0 25q-11 11 -22 -2q-29 -32 -43 -70z" />
    <glyph glyph-name="guillemotright" unicode="&#xbb;" horiz-adv-x="1036" 
d="M1143 596q-3 -76 -56 -147q-63 -91 -180 -203q-132 -127 -332 -273q-14 -10 -41 -30.5t-42 -30.5q-44 -32 -82 -8q-36 25 -48 49q-8 20 -4.5 34t23.5 31q39 35 121 105q186 158 305 287q101 113 133 174q39 73 8 139q-18 39 -57 82q-64 67 -154 119q-45 21 -78 26
q-25 5 -57 21q-8 4 -20 12q-12 12 -7 27q7 11 27 18q10 2 33 2q45 -3 82 -18q229 -87 370 -262q51 -60 54 -140q0 -2 1 -7t1 -7zM803 596q-3 -77 -55 -147q-61 -88 -181 -203q-135 -130 -331 -273q-14 -10 -42 -30.5t-42 -30.5q-44 -32 -82 -8q-35 24 -47 49q-8 20 -4.5 34
t22.5 31q39 35 121 105q186 158 305 287q101 113 133 174q39 73 8 139q-18 39 -57 82q-64 67 -154 119q-45 21 -78 26q-25 5 -57 21q-8 4 -20 12q-11 11 -6 27q7 12 26 18q10 2 33 2q45 -3 82 -18q230 -87 371 -262q50 -59 53 -140q0 -2 1 -7t1 -7z" />
    <glyph glyph-name="onequarter" unicode="&#xbc;" horiz-adv-x="1060" 
d="M1157 801q33 -5 47 -49q6 -22 -24 -52q-114 -97 -226 -184q-135 -104 -438 -315q-173 -121 -317 -226q-22 -17 -68 -53.5t-68 -54.5q-14 -14 -20 -17q-33 -26 -55 -4q-24 21 4 56q21 29 71 71q163 138 320 256q70 57 100 80q248 196 566 432q28 23 65 45q22 15 43 15z
M592 45q40 -3 61 27q40 51 66 71q19 17 32.5 18.5t32.5 -11.5q17 -15 18.5 -28.5t-11.5 -33.5q-20 -24 -35 -39q-137 -150 -193 -221q-22 -28 -45 -8q-26 22 -8 59q9 15 39 60q1 2 6 9t7.5 12.5t2.5 10.5q-45 4 -65 19q-28 22 -28.5 46t26.5 58q19 23 42.5 45t57 51.5
t47.5 42.5q18 15 37 5q57 -25 6 -82q-28 -35 -96 -111zM496 573q6 18 43 80q51 77 106 138q26 30 45 26q36 -11 41 -41q4 -17 -22 -43q-74 -81 -123 -145q-22 -26 -29 -37q-21 -29 -41 -25q-16 2 -20 33v14z" />
    <glyph glyph-name="onehalf" unicode="&#xbd;" horiz-adv-x="1073" 
d="M16 -172q-28 0 -41 20q-12 14 5 31q15 15 30 27q101 86 232 176q40 28 120 96q96 78 275.5 217.5t243.5 190.5q183 143 235 178l21 14q31 19 58.5 5t25.5 -46q-3 -17 -19 -30q-4 -4 -17.5 -18.5t-23.5 -23.5t-20 -16q-340 -282 -520 -411q-36 -25 -109 -76t-109 -76
q-249 -176 -340 -238q-28 -20 -47 -20zM662 100q-52 -8 -68 -47q-9 -15 -23 -12q-33 10 -39 39q-5 25 25 51q65 59 141 62q57 3 82 -56q13 -23 -14 -61q-46 -58 -100 -103q-6 -6 -18.5 -15.5t-16.5 -12.5q-16 -16 2 -21q29 -4 41 -10q21 -9 31 -29q7 -14 -7 -22
q-11 -11 -24 -2q-2 0 -2 2q-9 19 -32.5 20.5t-45.5 -4.5q-39 -10 -53 -16q-42 -14 -76 10q-28 22 4 47q90 78 135 115q47 41 58 65zM553 573q1 1 6 11t10 16q46 70 148 184q32 32 53 21q19 -10 26 -29.5t-1 -36.5q-11 -23 -35 -43q-111 -111 -146 -149q-26 -26 -41 -21
q-12 3 -17.5 16.5t-2.5 30.5z" />
    <glyph glyph-name="threequarters" unicode="&#xbe;" horiz-adv-x="1105" 
d="M10 -195q-26 3 -41 21q-10 16 6 35q4 5 25 22q107 92 311 246q49 35 213 160q267 205 537 411q32 27 108 82q23 15 36.5 14t27.5 -18q6 -8 14 -28q9 -28 -14 -48q-8 -7 -24.5 -22.5t-24.5 -22.5q-285 -240 -604 -458q-230 -160 -500 -357q-5 -4 -35 -24q-16 -13 -35 -13z
M655 -49q-64 -21 -98 29q-18 21 -2 57t53 76q26 30 76 73q18 18 32.5 18.5t31.5 -14.5q17 -13 17.5 -27t-13.5 -34q-13 -16 -37.5 -47t-36.5 -47q-2 -2 -5 -6t-5 -6q44 9 84 49q6 6 18 18.5t18 18.5q18 18 41 8q1 -1 9.5 -6t13.5 -9q17 -15 17 -29.5t-17 -37.5
q-102 -123 -125 -146q-25 -27 -80 -90q-14 -15 -22.5 -18.5t-20.5 2.5q-19 6 -25.5 19t1.5 28q12 27 53 86q16 26 22 35zM578 678q-4 4 -10.5 8t-10 7t-6.5 7q-26 29 10 60q44 41 104.5 35t77.5 -52q6 -25 -10 -47q-11 -18 -57 -55q-5 -4 -14.5 -12.5t-14.5 -12.5
q-20 -15 -22 -21t6 -28q16 -53 -13 -86q-19 -19 -43 -22t-43 2q-34 6 -57 26q-12 12 -14 23q-5 18 6 27q13 13 29 6q4 0 8 -4q15 -8 25.5 -5.5t23.5 15.5q20 20 8 35v4q-37 44 17 90z" />
    <glyph glyph-name="questiondown" unicode="&#xbf;" horiz-adv-x="1447" 
d="M281 -860q-116 0 -193 39q-67 32 -111 100t-52.5 163t40.5 204q65 141 207 286q149 149 395 299q19 12 128 79t167 104q168 108 340 264q125 108 182 186q4 6 12 18.5t14.5 23t10.5 20.5q13 24 35 16q29 -9 38 -33.5t-5 -58.5q-49 -117 -143 -232q-45 -59 -152 -151
q-178 -151 -463 -322q-13 -8 -74.5 -44.5t-86.5 -52t-69 -45t-79 -54.5q-185 -133 -285 -260q-87 -114 -114 -224q-6 -26 -9 -55q-8 -95 82 -131q116 -45 258 -10q249 59 418 270q110 143 92 293q-3 52 -45 72q-70 34 -96 45q-28 16 -39 31q-8 12 -2 20q4 6 20 6
q127 -15 193 -88t68 -197q0 -192 -181 -362q-141 -131 -282 -180q-123 -42 -219 -39zM1589 1116q-25 -7 -51 19q-35 45 -35 77q-3 23 21 43q53 43 98 27q42 -12 61 -51q24 -44 -6 -82q-29 -36 -78 -33h-10z" />
    <glyph glyph-name="Agrave" unicode="&#xc0;" horiz-adv-x="1873" 
d="M389 -78q-1 5 -16 10q-96 21 -162 111q-53 70 -82 166q-35 111 9 230t151 216q174 154 405 176q241 24 465 -100q11 -7 19 -10q13 -8 20.5 -6.5t22.5 14.5q41 36 87 76t102 88.5t87 75.5q113 102 301 260q241 198 459 340q68 42 113 63q73 32 131 -20q44 -41 16 -113
q-30 -75 -86 -168q-74 -120 -322 -489q-53 -80 -206 -330q-152 -244 -308 -557q-66 -129 -100 -256q-41 -147 -27 -266q10 -43 15 -54q9 -17 19.5 -20.5t33.5 2.5q7 2 47 12q17 4 21 -2q5 -10 -7 -26q-29 -29 -69 -35q-64 -7 -105 10t-65 74q-11 26 -15 61q-21 120 -2 256
q15 129 74 260q34 81 21 168q-36 255 -179 422q-26 29 -35.5 28.5t-43.5 -32.5q-32 -30 -157 -148t-192 -182q-76 -71 -226 -215t-226 -215q-86 -84 -252 -219q-31 -25 -66 -43q-47 -27 -88 -6q-9 6 -7.5 15.5t11.5 13.5q10 3 19.5 7t20 10.5t16.5 10t18 13.5l15 12.5
t16.5 15t15.5 13.5q114 97 271 254q2 2 6.5 6t7 6.5t5 7t3.5 8.5zM811 758q-53 0 -100 -8q-222 -40 -365 -201q-134 -149 -119 -324q11 -124 105 -221q29 -29 78 -45q16 -5 32 10l66 66q75 78 326 325q15 14 63.5 57.5t73.5 69.5q7 8 28 30t31.5 32.5t28.5 28t34 30.5t33 25
q1 1 3.5 3t3.5 3q9 11 10 16t-8 13q-3 3 -13 8q-144 85 -311 82zM1520 195q11 22 20 34q119 212 205 346q33 52 72 109.5t86 126.5t73 107q42 62 120.5 173.5t109.5 157.5q121 176 159 238q1 2 5 7.5t6 9t3.5 8.5t0.5 10q-12 -4 -23 -9.5t-26.5 -16t-20.5 -13.5
q-167 -104 -424 -309q-116 -89 -332 -275q-18 -15 -63.5 -53.5t-76.5 -66.5t-58 -56q-12 -15 -41 -39q-31 -26 -32 -34.5t22 -33.5q123 -132 178 -292q5 -17 17 -60t20 -69zM2292 1944q7 29 35 57q15 15 47 35q20 12 30 8.5t13 -23.5q12 -57 51 -96q13 -11 40 -37t48.5 -45
t42.5 -35q12 -8 18 -14q17 -20 -2 -41q-33 -38 -71 -29q-27 5 -60 23q-20 13 -60 37t-59 37q-23 15 -49 45q-30 38 -24 78z" />
    <glyph glyph-name="Aacute" unicode="&#xc1;" horiz-adv-x="1873" 
d="M389 -78q-1 5 -16 10q-96 21 -162 111q-53 70 -82 166q-35 111 9 230t151 216q174 154 405 176q241 24 465 -100q11 -7 19 -10q13 -8 20.5 -6.5t22.5 14.5q41 36 87 76t102 88.5t87 75.5q113 102 301 260q241 198 459 340q68 42 113 63q73 32 131 -20q44 -41 16 -113
q-30 -75 -86 -168q-74 -120 -322 -489q-53 -80 -206 -330q-152 -244 -308 -557q-66 -129 -100 -256q-41 -147 -27 -266q10 -43 15 -54q9 -17 19.5 -20.5t33.5 2.5q7 2 47 12q17 4 21 -2q5 -10 -7 -26q-29 -29 -69 -35q-64 -7 -105 10t-65 74q-11 26 -15 61q-21 120 -2 256
q15 129 74 260q34 81 21 168q-36 255 -179 422q-26 29 -35.5 28.5t-43.5 -32.5q-32 -30 -157 -148t-192 -182q-76 -71 -226 -215t-226 -215q-86 -84 -252 -219q-31 -25 -66 -43q-47 -27 -88 -6q-9 6 -7.5 15.5t11.5 13.5q10 3 19.5 7t20 10.5t16.5 10t18 13.5l15 12.5
t16.5 15t15.5 13.5q114 97 271 254q2 2 6.5 6t7 6.5t5 7t3.5 8.5zM811 758q-53 0 -100 -8q-222 -40 -365 -201q-134 -149 -119 -324q11 -124 105 -221q29 -29 78 -45q16 -5 32 10l66 66q75 78 326 325q15 14 63.5 57.5t73.5 69.5q7 8 28 30t31.5 32.5t28.5 28t34 30.5t33 25
q1 1 3.5 3t3.5 3q9 11 10 16t-8 13q-3 3 -13 8q-144 85 -311 82zM1520 195q11 22 20 34q119 212 205 346q33 52 72 109.5t86 126.5t73 107q42 62 120.5 173.5t109.5 157.5q121 176 159 238q1 2 5 7.5t6 9t3.5 8.5t0.5 10q-12 -4 -23 -9.5t-26.5 -16t-20.5 -13.5
q-167 -104 -424 -309q-116 -89 -332 -275q-18 -15 -63.5 -53.5t-76.5 -66.5t-58 -56q-12 -15 -41 -39q-31 -26 -32 -34.5t22 -33.5q123 -132 178 -292q5 -17 17 -60t20 -69zM2816 1958q-11 -38 -57 -78q-48 -34 -72 -45q-26 -13 -76.5 -37.5t-75.5 -36.5q-44 -18 -71 -22
q-45 -9 -58 28q-8 22 17 41q4 2 12 7.5t12 7.5q42 24 187 116q60 44 94 97q22 37 51 14q21 -17 31 -35q13 -27 6 -57z" />
    <glyph glyph-name="Acircumflex" unicode="&#xc2;" horiz-adv-x="1873" 
d="M389 -78q-1 5 -16 10q-96 21 -162 111q-53 70 -82 166q-35 111 9 230t151 216q174 154 405 176q241 24 465 -100q11 -7 19 -10q13 -8 20.5 -6.5t22.5 14.5q41 36 87 76t102 88.5t87 75.5q113 102 301 260q241 198 459 340q68 42 113 63q73 32 131 -20q44 -41 16 -113
q-30 -75 -86 -168q-74 -120 -322 -489q-53 -80 -206 -330q-152 -244 -308 -557q-66 -129 -100 -256q-41 -147 -27 -266q10 -43 15 -54q9 -17 19.5 -20.5t33.5 2.5q7 2 47 12q17 4 21 -2q5 -10 -7 -26q-29 -29 -69 -35q-64 -7 -105 10t-65 74q-11 26 -15 61q-21 120 -2 256
q15 129 74 260q34 81 21 168q-36 255 -179 422q-26 29 -35.5 28.5t-43.5 -32.5q-32 -30 -157 -148t-192 -182q-76 -71 -226 -215t-226 -215q-86 -84 -252 -219q-31 -25 -66 -43q-47 -27 -88 -6q-9 6 -7.5 15.5t11.5 13.5q10 3 19.5 7t20 10.5t16.5 10t18 13.5l15 12.5
t16.5 15t15.5 13.5q114 97 271 254q2 2 6.5 6t7 6.5t5 7t3.5 8.5zM811 758q-53 0 -100 -8q-222 -40 -365 -201q-134 -149 -119 -324q11 -124 105 -221q29 -29 78 -45q16 -5 32 10l66 66q75 78 326 325q15 14 63.5 57.5t73.5 69.5q7 8 28 30t31.5 32.5t28.5 28t34 30.5t33 25
q1 1 3.5 3t3.5 3q9 11 10 16t-8 13q-3 3 -13 8q-144 85 -311 82zM1520 195q11 22 20 34q119 212 205 346q33 52 72 109.5t86 126.5t73 107q42 62 120.5 173.5t109.5 157.5q121 176 159 238q1 2 5 7.5t6 9t3.5 8.5t0.5 10q-12 -4 -23 -9.5t-26.5 -16t-20.5 -13.5
q-167 -104 -424 -309q-116 -89 -332 -275q-18 -15 -63.5 -53.5t-76.5 -66.5t-58 -56q-12 -15 -41 -39q-31 -26 -32 -34.5t22 -33.5q123 -132 178 -292q5 -17 17 -60t20 -69zM2671 1894q-16 -51 -56 -161q-9 -27 -30 -15q-34 23 -27 74q1 13 5 41t5 41q2 23 3 33t-3.5 13.5
t-6 2.5t-17 -10.5t-23.5 -14.5q-55 -32 -121 -81q-21 -18 -45 -33q-43 -30 -76 6q-27 31 2 72q29 34 76 69q106 73 154 99q50 27 74 25.5t57 -34.5q47 -47 29 -127z" />
    <glyph glyph-name="Atilde" unicode="&#xc3;" horiz-adv-x="1873" 
d="M389 -78q-1 5 -16 10q-96 21 -162 111q-53 70 -82 166q-35 111 9 230t151 216q174 154 405 176q241 24 465 -100q11 -7 19 -10q13 -8 20.5 -6.5t22.5 14.5q41 36 87 76t102 88.5t87 75.5q113 102 301 260q241 198 459 340q68 42 113 63q73 32 131 -20q44 -41 16 -113
q-30 -75 -86 -168q-74 -120 -322 -489q-53 -80 -206 -330q-152 -244 -308 -557q-66 -129 -100 -256q-41 -147 -27 -266q10 -43 15 -54q9 -17 19.5 -20.5t33.5 2.5q7 2 47 12q17 4 21 -2q5 -10 -7 -26q-29 -29 -69 -35q-64 -7 -105 10t-65 74q-11 26 -15 61q-21 120 -2 256
q15 129 74 260q34 81 21 168q-36 255 -179 422q-26 29 -35.5 28.5t-43.5 -32.5q-32 -30 -157 -148t-192 -182q-76 -71 -226 -215t-226 -215q-86 -84 -252 -219q-31 -25 -66 -43q-47 -27 -88 -6q-9 6 -7.5 15.5t11.5 13.5q10 3 19.5 7t20 10.5t16.5 10t18 13.5l15 12.5
t16.5 15t15.5 13.5q114 97 271 254q2 2 6.5 6t7 6.5t5 7t3.5 8.5zM811 758q-53 0 -100 -8q-222 -40 -365 -201q-134 -149 -119 -324q11 -124 105 -221q29 -29 78 -45q16 -5 32 10l66 66q75 78 326 325q15 14 63.5 57.5t73.5 69.5q7 8 28 30t31.5 32.5t28.5 28t34 30.5t33 25
q1 1 3.5 3t3.5 3q9 11 10 16t-8 13q-3 3 -13 8q-144 85 -311 82zM1520 195q11 22 20 34q119 212 205 346q33 52 72 109.5t86 126.5t73 107q42 62 120.5 173.5t109.5 157.5q121 176 159 238q1 2 5 7.5t6 9t3.5 8.5t0.5 10q-12 -4 -23 -9.5t-26.5 -16t-20.5 -13.5
q-167 -104 -424 -309q-116 -89 -332 -275q-18 -15 -63.5 -53.5t-76.5 -66.5t-58 -56q-12 -15 -41 -39q-31 -26 -32 -34.5t22 -33.5q123 -132 178 -292q5 -17 17 -60t20 -69zM2583 1741q-26 0 -50 12q-31 10 -47 29q-40 40 -112 2q-32 -16 -47 -29q-18 -14 -35 -6
q-20 12 -30 30.5t-3.5 43.5t35.5 47q71 54 141 26q25 -8 62 -41q32 -31 53.5 -31t68.5 31q34 24 56 43q22 22 41 9q36 -25 16 -70q-19 -38 -63.5 -67t-85.5 -29z" />
    <glyph glyph-name="Adieresis" unicode="&#xc4;" horiz-adv-x="1873" 
d="M389 -78q-1 5 -16 10q-96 21 -162 111q-53 70 -82 166q-35 111 9 230t151 216q174 154 405 176q241 24 465 -100q11 -7 19 -10q13 -8 20.5 -6.5t22.5 14.5q41 36 87 76t102 88.5t87 75.5q113 102 301 260q241 198 459 340q68 42 113 63q73 32 131 -20q44 -41 16 -113
q-30 -75 -86 -168q-74 -120 -322 -489q-53 -80 -206 -330q-152 -244 -308 -557q-66 -129 -100 -256q-41 -147 -27 -266q10 -43 15 -54q9 -17 19.5 -20.5t33.5 2.5q7 2 47 12q17 4 21 -2q5 -10 -7 -26q-29 -29 -69 -35q-64 -7 -105 10t-65 74q-11 26 -15 61q-21 120 -2 256
q15 129 74 260q34 81 21 168q-36 255 -179 422q-26 29 -35.5 28.5t-43.5 -32.5q-32 -30 -157 -148t-192 -182q-76 -71 -226 -215t-226 -215q-86 -84 -252 -219q-31 -25 -66 -43q-47 -27 -88 -6q-9 6 -7.5 15.5t11.5 13.5q10 3 19.5 7t20 10.5t16.5 10t18 13.5l15 12.5
t16.5 15t15.5 13.5q114 97 271 254q2 2 6.5 6t7 6.5t5 7t3.5 8.5zM811 758q-53 0 -100 -8q-222 -40 -365 -201q-134 -149 -119 -324q11 -124 105 -221q29 -29 78 -45q16 -5 32 10l66 66q75 78 326 325q15 14 63.5 57.5t73.5 69.5q7 8 28 30t31.5 32.5t28.5 28t34 30.5t33 25
q1 1 3.5 3t3.5 3q9 11 10 16t-8 13q-3 3 -13 8q-144 85 -311 82zM1520 195q11 22 20 34q119 212 205 346q33 52 72 109.5t86 126.5t73 107q42 62 120.5 173.5t109.5 157.5q121 176 159 238q1 2 5 7.5t6 9t3.5 8.5t0.5 10q-12 -4 -23 -9.5t-26.5 -16t-20.5 -13.5
q-167 -104 -424 -309q-116 -89 -332 -275q-18 -15 -63.5 -53.5t-76.5 -66.5t-58 -56q-12 -15 -41 -39q-31 -26 -32 -34.5t22 -33.5q123 -132 178 -292q5 -17 17 -60t20 -69zM2599 1737q-38 0 -68.5 32t-27.5 66q2 33 22 59t55 39q30 13 59 5.5t44 -33.5q8 -14 27 -62
q19 -55 -44 -86q-42 -20 -67 -20zM2253 1737q-38 0 -68.5 32t-27.5 66q2 33 22 59t55 39q30 13 59 5.5t44 -33.5q4 -8 26 -62q19 -56 -43 -86q-42 -20 -67 -20z" />
    <glyph glyph-name="Aring" unicode="&#xc5;" horiz-adv-x="1873" 
d="M389 -78q-1 5 -16 10q-96 21 -162 111q-53 70 -82 166q-35 111 9 230t151 216q174 154 405 176q241 24 465 -100q11 -7 19 -10q13 -8 20.5 -6.5t22.5 14.5q41 36 87 76t102 88.5t87 75.5q113 102 301 260q241 198 459 340q68 42 113 63q73 32 131 -20q44 -41 16 -113
q-30 -75 -86 -168q-74 -120 -322 -489q-53 -80 -206 -330q-152 -244 -308 -557q-66 -129 -100 -256q-41 -147 -27 -266q10 -43 15 -54q9 -17 19.5 -20.5t33.5 2.5q7 2 47 12q17 4 21 -2q5 -10 -7 -26q-29 -29 -69 -35q-64 -7 -105 10t-65 74q-11 26 -15 61q-21 120 -2 256
q15 129 74 260q34 81 21 168q-36 255 -179 422q-26 29 -35.5 28.5t-43.5 -32.5q-32 -30 -157 -148t-192 -182q-76 -71 -226 -215t-226 -215q-86 -84 -252 -219q-31 -25 -66 -43q-47 -27 -88 -6q-9 6 -7.5 15.5t11.5 13.5q10 3 19.5 7t20 10.5t16.5 10t18 13.5l15 12.5
t16.5 15t15.5 13.5q114 97 271 254q2 2 6.5 6t7 6.5t5 7t3.5 8.5zM811 758q-53 0 -100 -8q-222 -40 -365 -201q-134 -149 -119 -324q11 -124 105 -221q29 -29 78 -45q16 -5 32 10l66 66q75 78 326 325q15 14 63.5 57.5t73.5 69.5q7 8 28 30t31.5 32.5t28.5 28t34 30.5t33 25
q1 1 3.5 3t3.5 3q9 11 10 16t-8 13q-3 3 -13 8q-144 85 -311 82zM1520 195q11 22 20 34q119 212 205 346q33 52 72 109.5t86 126.5t73 107q42 62 120.5 173.5t109.5 157.5q121 176 159 238q1 2 5 7.5t6 9t3.5 8.5t0.5 10q-12 -4 -23 -9.5t-26.5 -16t-20.5 -13.5
q-167 -104 -424 -309q-116 -89 -332 -275q-18 -15 -63.5 -53.5t-76.5 -66.5t-58 -56q-12 -15 -41 -39q-31 -26 -32 -34.5t22 -33.5q123 -132 178 -292q5 -17 17 -60t20 -69zM2554 1708q-63 0 -107 33.5t-55 85.5q-8 46 16 99t70 91q58 49 127 33q24 -6 57 -31
q56 -50 72 -131q15 -79 -63 -133q-61 -43 -117 -47zM2630 1913q4 10 4 33q-1 13 -7.5 17t-19.5 -1q-37 -12 -78.5 -57.5t-48.5 -83.5q-3 -19 2.5 -24.5t24.5 -2.5q44 8 78.5 40.5t44.5 78.5z" />
    <glyph glyph-name="AE" unicode="&#xc6;" horiz-adv-x="3041" 
d="M809 758q-51 0 -100 -8q-213 -35 -363 -201q-134 -152 -119 -324q15 -131 105 -221q36 -31 76 -45q18 -5 36 10q4 4 8.5 9t11 11t9.5 9q10 12 35 37q164 172 321 319q1 1 3.5 3t3.5 3l57 54q47 40 80 73l22 25q61 70 129 121q6 3 9 6q10 10 10 16q3 6 -8 13q-1 1 -11 6
l-2 2q-131 82 -313 82zM1614 360q-38 24 -66 60q-57 90 -4 205q55 118 144 221q153 177 327 303q132 99 234 164q31 43 116 174l7 8q3 3 6 12q4 8 4 15q-30 -8 -60 -31q-2 -1 -6 -4t-6 -4q-244 -162 -426 -309q-114 -90 -332 -275l-55 -49q-68 -52 -143 -127
q-18 -21 -39 -39q-29 -23 -33 -35q-2 -7 21 -31v-2q121 -127 178 -292q16 -43 24 -82l6 -21q11 3 33 17q12 21 35.5 61t34.5 61zM1966 899q-71 -66 -170 -176q-79 -92 -125 -195q-15 -36 -18 -65q0 -15 4 -31q55 93 88 143q78 121 149 224q13 17 36 50t36 50zM1706 170
q-63 -117 -111 -215q-59 -116 -100 -256l-2 -6q146 0 281 33q445 103 843 364q89 55 176 139q3 3 9.5 10.5t9.5 10.5q9 9 12 22q3 14 10 17q9 3 21 0q51 -15 20 -72q-11 -22 -24 -35q-71 -74 -131 -119q-158 -119 -336 -206q-233 -120 -473 -187q-158 -41 -307 -53
q-66 -6 -127 0q-18 -92 -9 -184q2 -20 15 -54q11 -18 20 -20q12 -4 33 2q3 1 23 6q16 4 22 6t14 2q5 0 9 -4q3 -6 0 -12q-2 -7 -9 -14q-32 -32 -67 -35q-53 -9 -101 8q-42 14 -67 76q-15 33 -17 61q-14 90 -8 197h-2q-83 30 -129 100q-55 82 0 187q65 116 178 200l48 33
q-35 226 -175 389q-23 29 -34 29q-14 0 -43 -33q-8 -8 -17 -14q-45 -42 -332 -316l-452 -430q-112 -110 -254 -219q-20 -18 -62 -43q-49 -27 -90 -6q-8 8 -8 16q4 11 12 13q56 19 109 69q2 2 6 6.5t6 6.5q133 116 271 254l6 6l10 10q6 6 6 12q0 3 -6 6q-2 2 -8 2q-2 0 -4 2
q-100 26 -160 111q-54 72 -82 166q-61 238 162 446q187 161 403 176q264 21 465 -100q4 -2 8 -6l11 -4q13 -10 20 -6q12 0 23 14l153 135q82 70 121 105q189 166 305 260q233 194 457 340q51 34 113 63q80 35 131 -20q43 -43 16 -113l-18 -45q124 64 270 119q160 56 319 59
q166 9 252 -114q79 -132 -22 -287q-51 -71 -121 -135q-183 -160 -389 -273q-167 -93 -326 -145q-113 -40 -225 -31q-46 3 -76 33q-8 8 -14 20q-5 5 -2 11q0 6 4 10q6 6 12 6q8 0 10 -2q108 -21 219 27q332 130 617 333q156 107 231 267q25 55 25 104q3 42 -35 51
q-78 25 -160 11q-246 -37 -479 -166q-127 -65 -260 -152q-79 -123 -162 -246q-35 -47 -76 -112q-67 -101 -176 -277l-32 -53q-35 -51 -68 -113q74 -6 160 4q68 9 106 -38q35 -41 -24 -56q-57 -20 -70 -24q-24 -7 -141 -47q-82 -30 -160 -68zM1341 -281q18 124 74 252
q0 1 1 4.5t1 4.5q-39 -39 -65 -74q-39 -50 -45 -111q-6 -55 34 -76z" />
    <glyph glyph-name="Ccedilla" unicode="&#xc7;" horiz-adv-x="1767" 
d="M371 -457l2 2q-130 18 -230 86q-177 124 -133 367q19 119 80 250q55 113 137 235q131 189 303 355q140 140 285 256q255 208 543 360q180 95 364 129q119 22 209 -14q123 -59 150 -168q29 -111 -39 -248q-66 -123 -178 -223q-268 -241 -611 -352q-132 -48 -260 -27
q-52 9 -86 43q0 2 -2 2q-7 7 -10 16q-6 9 4 19q13 13 23 10q12 -4 18 -8q27 -15 59 -12q44 4 62 8q2 1 5.5 2t4.5 2q151 30 297 104q194 89 371 240q145 124 219 295q27 68 24 133q0 68 -67 74q-59 6 -113 -2q-120 -24 -239 -82q-268 -129 -508 -320q-230 -177 -422 -377
q-186 -189 -328 -411q-110 -174 -145 -363q-18 -109 24 -192q47 -96 160 -111q187 -27 387 33q326 95 606 313q99 75 193 162q3 7 10 10q44 35 62 84q9 14 12 15q6 3 14 0q29 -3 39 -29q9 -24 -4 -53q-20 -34 -66 -84q-243 -255 -546 -391q-202 -94 -412 -132
q-61 -9 -111 -12q77 -92 117 -211q21 -59 6 -131q-9 -49 -57 -80q-77 -51 -156 -26q-86 35 -125 114q-6 12 -6 27q0 32 37 47q16 10 27 6q10 -3 16 -18q41 -65 113 -99q4 -2 8 -6q2 2 4.5 6t3.5 5q3 3 0 6q0 8 -2 10q0 11 -4 31q-41 144 -119 258l-4 4q-13 16 -16 39
q-3 15 0 24z" />
    <glyph glyph-name="Egrave" unicode="&#xc8;" horiz-adv-x="1804" 
d="M524 315q-48 12 -102 43q-44 26 -70 62q-57 82 -4 205q42 95 144 221q130 155 325 303q179 136 377 248q189 107 377 176q165 56 319 59q178 7 252 -114q40 -59 35 -137.5t-57 -149.5q-51 -71 -121 -135q-149 -136 -389 -273q-158 -90 -324 -145q-135 -43 -227 -31
q-42 3 -76 33q-8 8 -14 20q-4 13 4 21q6 8 22 4q84 -22 217 27q336 131 619 333q167 122 229 267q25 55 25 104q3 39 -33 51q-67 25 -160 11q-206 -22 -479 -166q-196 -102 -350 -211q-300 -220 -463 -418q-89 -106 -127 -195q-13 -33 -16 -65q-2 -24 6 -34.5t31 -14.5
q62 -12 124 -15q120 -4 181 4q65 11 104 -38q18 -20 12 -33.5t-36 -22.5q-38 -14 -108.5 -37t-102.5 -34q-174 -64 -322 -160q-119 -76 -192 -172q-36 -47 -43 -111q-9 -64 47 -82q50 -15 102 -18q147 -9 315 31q458 106 844 364q106 69 176 139q28 28 31 43q8 20 31 17
q25 -6 31 -26.5t-9 -45.5q-18 -27 -26 -35q-71 -74 -131 -119q-129 -101 -336 -206q-255 -129 -473 -187q-155 -41 -305 -53q-160 -10 -271 35q-87 36 -129 100q-55 87 -2 187q59 110 180 200q43 33 100.5 65t91.5 47t107 46q15 6 27 12zM1442 2017q7 30 35 58q12 12 47 34
q20 12 30 9t13 -23q12 -57 51 -96q13 -11 40 -37t48.5 -45t42.5 -35q12 -8 18 -14q17 -20 -2 -41q-33 -38 -71 -29q-27 5 -60 23q-20 12 -59 36t-59 37q-25 17 -50 45q-30 38 -24 78z" />
    <glyph glyph-name="Eacute" unicode="&#xc9;" horiz-adv-x="1804" 
d="M524 315q-48 12 -102 43q-44 26 -70 62q-57 82 -4 205q42 95 144 221q130 155 325 303q179 136 377 248q189 107 377 176q165 56 319 59q178 7 252 -114q40 -59 35 -137.5t-57 -149.5q-51 -71 -121 -135q-149 -136 -389 -273q-158 -90 -324 -145q-135 -43 -227 -31
q-42 3 -76 33q-8 8 -14 20q-4 13 4 21q6 8 22 4q84 -22 217 27q336 131 619 333q167 122 229 267q25 55 25 104q3 39 -33 51q-67 25 -160 11q-206 -22 -479 -166q-196 -102 -350 -211q-300 -220 -463 -418q-89 -106 -127 -195q-13 -33 -16 -65q-2 -24 6 -34.5t31 -14.5
q62 -12 124 -15q120 -4 181 4q65 11 104 -38q18 -20 12 -33.5t-36 -22.5q-38 -14 -108.5 -37t-102.5 -34q-174 -64 -322 -160q-119 -76 -192 -172q-36 -47 -43 -111q-9 -64 47 -82q50 -15 102 -18q147 -9 315 31q458 106 844 364q106 69 176 139q28 28 31 43q8 20 31 17
q25 -6 31 -26.5t-9 -45.5q-18 -27 -26 -35q-71 -74 -131 -119q-129 -101 -336 -206q-255 -129 -473 -187q-155 -41 -305 -53q-160 -10 -271 35q-87 36 -129 100q-55 87 -2 187q59 110 180 200q43 33 100.5 65t91.5 47t107 46q15 6 27 12zM1927 1958q-11 -38 -57 -78
q-48 -34 -72 -45q-25 -12 -75 -36.5t-76 -37.5q-44 -17 -72 -22q-44 -9 -57 28q-8 22 16 41q4 2 12.5 7.5t12.5 7.5q35 19 186 116q60 44 94 97q22 37 51 14q21 -17 31 -35q13 -27 6 -57z" />
    <glyph glyph-name="Ecircumflex" unicode="&#xca;" horiz-adv-x="1804" 
d="M524 315q-48 12 -102 43q-44 26 -70 62q-57 82 -4 205q42 95 144 221q130 155 325 303q179 136 377 248q189 107 377 176q165 56 319 59q178 7 252 -114q40 -59 35 -137.5t-57 -149.5q-51 -71 -121 -135q-149 -136 -389 -273q-158 -90 -324 -145q-135 -43 -227 -31
q-42 3 -76 33q-8 8 -14 20q-4 13 4 21q6 8 22 4q84 -22 217 27q336 131 619 333q167 122 229 267q25 55 25 104q3 39 -33 51q-67 25 -160 11q-206 -22 -479 -166q-196 -102 -350 -211q-300 -220 -463 -418q-89 -106 -127 -195q-13 -33 -16 -65q-2 -24 6 -34.5t31 -14.5
q62 -12 124 -15q120 -4 181 4q65 11 104 -38q18 -20 12 -33.5t-36 -22.5q-38 -14 -108.5 -37t-102.5 -34q-174 -64 -322 -160q-119 -76 -192 -172q-36 -47 -43 -111q-9 -64 47 -82q50 -15 102 -18q147 -9 315 31q458 106 844 364q106 69 176 139q28 28 31 43q8 20 31 17
q25 -6 31 -26.5t-9 -45.5q-18 -27 -26 -35q-71 -74 -131 -119q-129 -101 -336 -206q-255 -129 -473 -187q-155 -41 -305 -53q-160 -10 -271 35q-87 36 -129 100q-55 87 -2 187q59 110 180 200q43 33 100.5 65t91.5 47t107 46q15 6 27 12zM1948 1929q-18 -58 -56 -162
q-9 -26 -30 -14q-34 23 -27 74q1 14 5 41.5t5 40.5q2 23 3 33t-3.5 13.5t-6 2.5t-17 -10.5t-23.5 -14.5q-49 -29 -121 -82q-17 -14 -45 -32q-43 -30 -76 6q-26 29 3 71q33 39 75 70q99 68 154 98q50 28 74.5 26t56.5 -34q47 -47 29 -127z" />
    <glyph glyph-name="Edieresis" unicode="&#xcb;" horiz-adv-x="1804" 
d="M524 315q-48 12 -102 43q-44 26 -70 62q-57 82 -4 205q42 95 144 221q130 155 325 303q179 136 377 248q189 107 377 176q165 56 319 59q178 7 252 -114q40 -59 35 -137.5t-57 -149.5q-51 -71 -121 -135q-149 -136 -389 -273q-158 -90 -324 -145q-135 -43 -227 -31
q-42 3 -76 33q-8 8 -14 20q-4 13 4 21q6 8 22 4q84 -22 217 27q336 131 619 333q167 122 229 267q25 55 25 104q3 39 -33 51q-67 25 -160 11q-206 -22 -479 -166q-196 -102 -350 -211q-300 -220 -463 -418q-89 -106 -127 -195q-13 -33 -16 -65q-2 -24 6 -34.5t31 -14.5
q62 -12 124 -15q120 -4 181 4q65 11 104 -38q18 -20 12 -33.5t-36 -22.5q-38 -14 -108.5 -37t-102.5 -34q-174 -64 -322 -160q-119 -76 -192 -172q-36 -47 -43 -111q-9 -64 47 -82q50 -15 102 -18q147 -9 315 31q458 106 844 364q106 69 176 139q28 28 31 43q8 20 31 17
q25 -6 31 -26.5t-9 -45.5q-18 -27 -26 -35q-71 -74 -131 -119q-129 -101 -336 -206q-255 -129 -473 -187q-155 -41 -305 -53q-160 -10 -271 35q-87 36 -129 100q-55 87 -2 187q59 110 180 200q43 33 100.5 65t91.5 47t107 46q15 6 27 12zM1858 1769q-38 0 -69 32.5t-28 66.5
q2 32 22.5 58.5t55.5 39.5q31 12 59.5 4.5t43.5 -33.5q6 -10 26 -61q19 -56 -43 -86q-44 -21 -67 -21zM1511 1769q-38 0 -68.5 32.5t-27.5 66.5q2 32 22.5 58.5t55.5 39.5q31 12 59 4.5t43 -33.5q9 -17 27 -61q19 -56 -43 -86q-44 -21 -68 -21z" />
    <glyph glyph-name="Igrave" unicode="&#xcc;" horiz-adv-x="1245" 
d="M1006 389q-54 -11 -86 -20q-226 -51 -426 24q-136 49 -201 137q-122 163 -53 367q50 147 200 287q175 157 455 278q271 117 575 191q173 42 312 63q59 8 141 25q52 11 81.5 -17.5t35.5 -68.5q5 -23 -19 -58q-10 -14 -65 -79q-166 -194 -369 -498q-109 -162 -301 -467
q-229 -365 -412 -619q-128 -178 -256 -296q-112 -104 -194 -142q-157 -70 -287 -51q-52 9 -92 43q-29 29 -29 70q-3 45 31 82q17 22 29 18q8 -2 8 -25q2 -12 2 -36q-8 -55 29 -84t86 -27q92 6 172 68q91 72 192 192q144 165 320 442q21 31 59 92.5t45 71.5q2 4 7 11.5
t7.5 13.5t2.5 12zM1903 1636q-13 5 -43 0q-23 -4 -69 -13t-69 -13q-214 -44 -389 -97q-345 -105 -590 -253q-177 -108 -294 -248q-135 -165 -127 -318q6 -156 124 -209q72 -30 119 -41q208 -47 461 31q51 16 74 57q147 249 284 447q194 291 471 600q5 7 22 25.5t26 31.5z
M1464 2111q7 30 35 58q15 15 47 35q20 12 30 8.5t13 -23.5q12 -57 51 -96q11 -10 39.5 -37t50 -45.5t42.5 -34.5q12 -8 18 -14q17 -20 -2 -41q-33 -38 -72 -29q-26 4 -59 23q-20 13 -59.5 37.5t-59.5 36.5q-23 15 -49 45q-30 39 -25 77z" />
    <glyph glyph-name="Iacute" unicode="&#xcd;" horiz-adv-x="1245" 
d="M1006 389q-54 -11 -86 -20q-226 -51 -426 24q-136 49 -201 137q-122 163 -53 367q50 147 200 287q175 157 455 278q271 117 575 191q173 42 312 63q59 8 141 25q52 11 81.5 -17.5t35.5 -68.5q5 -23 -19 -58q-10 -14 -65 -79q-166 -194 -369 -498q-109 -162 -301 -467
q-229 -365 -412 -619q-128 -178 -256 -296q-112 -104 -194 -142q-157 -70 -287 -51q-52 9 -92 43q-29 29 -29 70q-3 45 31 82q17 22 29 18q8 -2 8 -25q2 -12 2 -36q-8 -55 29 -84t86 -27q92 6 172 68q91 72 192 192q144 165 320 442q21 31 59 92.5t45 71.5q2 4 7 11.5
t7.5 13.5t2.5 12zM1903 1636q-13 5 -43 0q-23 -4 -69 -13t-69 -13q-214 -44 -389 -97q-345 -105 -590 -253q-177 -108 -294 -248q-135 -165 -127 -318q6 -156 124 -209q72 -30 119 -41q208 -47 461 31q51 16 74 57q147 249 284 447q194 291 471 600q5 7 22 25.5t26 31.5z
M1946 2097q-10 -37 -58 -78q-51 -35 -71 -45q-26 -12 -76.5 -36t-75.5 -37q-48 -19 -72 -23q-44 -9 -57 29q-8 22 16 41q4 2 12.5 7t12.5 7q23 13 186 117q63 46 95 96q22 37 51 14q19 -16 30 -35q14 -28 7 -57z" />
    <glyph glyph-name="Icircumflex" unicode="&#xce;" horiz-adv-x="1245" 
d="M1006 389q-54 -11 -86 -20q-226 -51 -426 24q-136 49 -201 137q-122 163 -53 367q50 147 200 287q175 157 455 278q271 117 575 191q173 42 312 63q59 8 141 25q52 11 81.5 -17.5t35.5 -68.5q5 -23 -19 -58q-10 -14 -65 -79q-166 -194 -369 -498q-109 -162 -301 -467
q-229 -365 -412 -619q-128 -178 -256 -296q-112 -104 -194 -142q-157 -70 -287 -51q-52 9 -92 43q-29 29 -29 70q-3 45 31 82q17 22 29 18q8 -2 8 -25q2 -12 2 -36q-8 -55 29 -84t86 -27q92 6 172 68q91 72 192 192q144 165 320 442q21 31 59 92.5t45 71.5q2 4 7 11.5
t7.5 13.5t2.5 12zM1903 1636q-13 5 -43 0q-23 -4 -69 -13t-69 -13q-214 -44 -389 -97q-345 -105 -590 -253q-177 -108 -294 -248q-135 -165 -127 -318q6 -156 124 -209q72 -30 119 -41q208 -47 461 31q51 16 74 57q147 249 284 447q194 291 471 600q5 7 22 25.5t26 31.5z
M1939 2083q-25 -78 -55 -162q-9 -27 -31 -14q-33 23 -26 73q1 13 5 41t5 41q1 17 2 25.5t0 15t-2 8t-6 0.5t-9 -3.5t-14 -9t-18 -11.5q-49 -29 -121 -82q-21 -18 -45 -33q-43 -30 -76 6q-27 31 2 72q32 37 76 70q99 68 154 98q50 28 74.5 26t56.5 -34q46 -46 28 -127z" />
    <glyph glyph-name="Idieresis" unicode="&#xcf;" horiz-adv-x="1245" 
d="M1006 389q-54 -11 -86 -20q-226 -51 -426 24q-136 49 -201 137q-122 163 -53 367q50 147 200 287q175 157 455 278q271 117 575 191q173 42 312 63q59 8 141 25q52 11 81.5 -17.5t35.5 -68.5q5 -23 -19 -58q-10 -14 -65 -79q-166 -194 -369 -498q-109 -162 -301 -467
q-229 -365 -412 -619q-128 -178 -256 -296q-112 -104 -194 -142q-157 -70 -287 -51q-52 9 -92 43q-29 29 -29 70q-3 45 31 82q17 22 29 18q8 -2 8 -25q2 -12 2 -36q-8 -55 29 -84t86 -27q92 6 172 68q91 72 192 192q144 165 320 442q21 31 59 92.5t45 71.5q2 4 7 11.5
t7.5 13.5t2.5 12zM1903 1636q-13 5 -43 0q-23 -4 -69 -13t-69 -13q-214 -44 -389 -97q-345 -105 -590 -253q-177 -108 -294 -248q-135 -165 -127 -318q6 -156 124 -209q72 -30 119 -41q208 -47 461 31q51 16 74 57q147 249 284 447q194 291 471 600q5 7 22 25.5t26 31.5z
M1919 1858q-38 0 -68.5 32t-27.5 66q2 32 22.5 58.5t55.5 39.5q31 12 59 4.5t43 -33.5q9 -17 27 -61q19 -56 -43 -86q-42 -20 -68 -20zM1573 1858q-38 0 -68.5 32t-27.5 66q2 33 22 59t55 39q31 12 59.5 4.5t43.5 -33.5q6 -10 26 -61q19 -56 -43 -86q-42 -20 -67 -20z" />
    <glyph glyph-name="Eth" unicode="&#xd0;" horiz-adv-x="2082" 
d="M778 596q-66 -3 -145 4q-70 9 -88 72q-16 42 37 45q18 1 52.5 2t51.5 2q29 3 62.5 5t74 4t62.5 3q146 171 256 281q99 99 215 186q55 38 90 55q40 21 67 0q69 -48 21 -131q-45 -78 -80 -127q-74 -110 -184 -264q34 0 100 -4q51 -3 92 -27q30 -20 -6 -43q-34 -24 -67 -24
q-12 -2 -35 -2q-103 -8 -162 -10q-20 -28 -61 -86.5t-62 -87.5l-121 -168q-22 -30 -62 -85.5t-52 -72.5q-111 -148 -168 -234q-25 -36 -11 -67q24 -59 68 -109q55 -69 162 -51q58 9 110 29q176 65 328 184q165 128 307 272q230 235 406 510q134 202 219 398q63 138 63 270
q3 135 -104 193q-8 4 -10 6l-60 28q-131 44 -229 41q-229 -3 -387 -32q-327 -59 -637 -213q-228 -111 -410 -293q-108 -102 -168 -238q-56 -139 6 -248q46 -66 127 -112q53 -26 115 -41q12 -3 34.5 -9.5t33.5 -9.5q15 -6 24 13l6 8l9 16q60 99 110 162zM1020 733h76l211 291
q-7 0 -11 -2q-1 -1 -2.5 -2t-2.5 -2t-1 -2q-2 -2 -4 -2l-16 -17q-23 -20 -66 -63q-155 -167 -184 -201zM1008 612q-4 0 -11 -1t-10 -1q-13 -1 -37 -3t-37 -3q-145 -186 -233 -393l-2 -6q-18 -35 -27 -78q97 132 117 158zM1837 1692q164 3 301 -43q149 -56 225 -187
q101 -179 21 -411q-49 -159 -143 -334q-133 -239 -314 -463q-132 -156 -293 -305q-155 -143 -344 -254q-127 -71 -260 -111q-240 -58 -381 101q-26 30 -35 43q-12 16 -18 26q-5 8 -12 8q-6 0 -13 -10q-45 -72 -71 -106q-49 -65 -84 -125q-16 -26 -19 -51q-3 -30 -35 -33
q-21 0 -40 16q-17 17 -17 37q-2 12 2 33q30 120 103 233l61 94q3 5 17.5 28.5t21.5 35.5q15 21 12 45q-3 164 70 332l2 2v4q1 3 3.5 7t4 7t2.5 6q3 6 8 21q0 9 -10 12q-18 6 -37 8q-194 43 -311 193q-114 154 -6 360q113 210 307 346q198 148 414 242q333 145 671 182
q61 6 129 9q45 0 68 2z" />
    <glyph glyph-name="Ntilde" unicode="&#xd1;" horiz-adv-x="2101" 
d="M1552 -285q27 124 84.5 249.5t147.5 279.5q59 100 175 279t150 233q187 303 242 401q88 164 107 281q2 7 3 15.5t1.5 18.5t1.5 15q0 43 -39 55q-63 23 -176 8q-97 -15 -189 -53q-210 -84 -393 -213q-1 -1 -8 -6.5t-9.5 -8t-7 -7.5t-7 -10t-3.5 -11q-26 -111 -131 -309
q-92 -169 -256 -422q-276 -425 -708 -909q-54 -58 -91 -88q-35 -28 -71 -17q-34 11 -47 32.5t-9 59.5q5 61 39 133q103 225 322 590q21 31 19 35.5t-35 7.5q-255 23 -388 170q-142 154 -22 383q71 140 201 254q337 298 759 398q140 37 252 12q108 -22 162 -129q1 -4 4 -13.5
t4 -13.5q6 -12 10.5 -13.5t18.5 7.5q102 66 174 104q188 95 338 132q78 16 150 16q112 0 178 -92q86 -117 22 -303q-40 -121 -143 -312q-107 -196 -311 -518q-185 -296 -285 -489q-92 -171 -137 -336q-20 -86 -15 -150q1 -24 8.5 -29.5t34.5 -0.5q42 5 52 4q28 0 8 -27
q-12 -20 -36.5 -31t-49.5 -8q-79 12 -109 80q-13 29 -16 74q-3 90 24 192zM1393 1473q-5 0 -22.5 -1.5t-27.5 -1.5q-107 -11 -231 -55q-312 -102 -561 -325q-90 -82 -127 -129q-108 -143 -125 -250q-22 -124 63 -183q67 -44 152 -73q67 -22 193 -41q25 -5 33.5 -1t21.5 27
q110 174 244 340q153 195 299 334q99 99 208 186q33 26 39 62q0 9 4 29q6 50 -34 61q-58 21 -129 21zM1434 1081q-1 0 -3.5 1t-3.5 1q-110 -102 -219 -223q-157 -182 -340 -452q-212 -314 -372 -648q-1 -2 -3.5 -6.5t-4 -7.5t-3 -7.5t-0.5 -8.5q11 11 17 20q106 131 168 205
q139 165 293 373q142 198 256 381q28 45 57 94t67 116t54 95q14 23 37 67zM1956 1749q-25 0 -49 12q-31 10 -47 29q-41 41 -113 2q-32 -16 -47 -29q-18 -14 -35 -6q-20 12 -30 30.5t-3.5 43.5t35.5 47q72 55 141 27q25 -8 62 -41q32 -31 54 -31t69 31q29 21 55 43
q22 22 41 8q36 -25 16 -70q-19 -38 -63.5 -67t-85.5 -29z" />
    <glyph glyph-name="Ograve" unicode="&#xd2;" horiz-adv-x="2076" 
d="M498 88q12 66 59 191q6 20 4.5 24t-20.5 8q-55 8 -107 37q-114 62 -174 117q-30 30 -49 61q-75 116 -4 281q72 165 237 313q197 181 465 316q285 143 594 200q155 30 275 25q143 -7 235 -43q161 -59 238 -223q83 -163 61 -340q-7 -62 -37 -166q-128 -398 -479 -772
q-144 -154 -293 -271q-278 -207 -542 -282q-145 -45 -256 -17q-211 51 -234 260q-14 125 27 281zM606 -18q-2 -9 -10 -43t-10 -52q-18 -124 10 -188q17 -42 63 -51q62 -13 146 4q128 20 299 102q247 118 477 338q177 166 313 344q127 163 205 312q95 179 129 335
q34 157 -31.5 277t-207.5 160q-176 48 -410 10q-313 -47 -610 -199q-300 -153 -486 -342q-147 -144 -194 -295q-44 -134 35 -192q77 -58 127 -86q54 -28 98 -33q35 -6 43.5 -1t25.5 40q102 202 226 358q156 198 311 318q174 141 350 166q105 13 148 2q92 -22 112 -111
q4 -25 -12 -37q-17 -7 -26 17q-1 1 -1 2q-2 2 -6 10q-9 21 -32 27q-37 4 -56 2q-189 -14 -379 -170q-74 -62 -180 -172q-104 -113 -170 -203q-66 -93 -135 -221q-109 -194 -162 -428zM1503 1976q7 30 35 58q12 12 47 34q20 12 30 9t13 -23q12 -57 51 -96q13 -11 40 -37
t48.5 -45t42.5 -35q15 -10 19 -14q17 -20 -2 -41q-33 -38 -72 -29q-26 4 -59 23q-19 12 -59 36t-60 37q-23 15 -49 45q-30 39 -25 78z" />
    <glyph glyph-name="Oacute" unicode="&#xd3;" horiz-adv-x="2076" 
d="M498 88q12 66 59 191q6 20 4.5 24t-20.5 8q-55 8 -107 37q-114 62 -174 117q-30 30 -49 61q-75 116 -4 281q72 165 237 313q197 181 465 316q285 143 594 200q155 30 275 25q143 -7 235 -43q161 -59 238 -223q83 -163 61 -340q-7 -62 -37 -166q-128 -398 -479 -772
q-144 -154 -293 -271q-278 -207 -542 -282q-145 -45 -256 -17q-211 51 -234 260q-14 125 27 281zM606 -18q-2 -9 -10 -43t-10 -52q-18 -124 10 -188q17 -42 63 -51q62 -13 146 4q128 20 299 102q247 118 477 338q177 166 313 344q127 163 205 312q95 179 129 335
q34 157 -31.5 277t-207.5 160q-176 48 -410 10q-313 -47 -610 -199q-300 -153 -486 -342q-147 -144 -194 -295q-44 -134 35 -192q77 -58 127 -86q54 -28 98 -33q35 -6 43.5 -1t25.5 40q102 202 226 358q156 198 311 318q174 141 350 166q105 13 148 2q92 -22 112 -111
q4 -25 -12 -37q-17 -7 -26 17q-1 1 -1 2q-2 2 -6 10q-9 21 -32 27q-37 4 -56 2q-189 -14 -379 -170q-74 -62 -180 -172q-104 -113 -170 -203q-66 -93 -135 -221q-109 -194 -162 -428zM1991 2019q-10 -36 -58 -77q-55 -38 -71 -46q-25 -12 -75.5 -36t-76.5 -37
q-48 -19 -72 -23q-44 -9 -57 29q-8 22 16 41q4 2 12.5 7t12.5 7q23 13 186 117q63 46 95 96q22 37 51 14q22 -18 31 -34q13 -27 6 -58z" />
    <glyph glyph-name="Ocircumflex" unicode="&#xd4;" horiz-adv-x="2076" 
d="M498 88q12 66 59 191q6 20 4.5 24t-20.5 8q-55 8 -107 37q-114 62 -174 117q-30 30 -49 61q-75 116 -4 281q72 165 237 313q197 181 465 316q285 143 594 200q155 30 275 25q143 -7 235 -43q161 -59 238 -223q83 -163 61 -340q-7 -62 -37 -166q-128 -398 -479 -772
q-144 -154 -293 -271q-278 -207 -542 -282q-145 -45 -256 -17q-211 51 -234 260q-14 125 27 281zM606 -18q-2 -9 -10 -43t-10 -52q-18 -124 10 -188q17 -42 63 -51q62 -13 146 4q128 20 299 102q247 118 477 338q177 166 313 344q127 163 205 312q95 179 129 335
q34 157 -31.5 277t-207.5 160q-176 48 -410 10q-313 -47 -610 -199q-300 -153 -486 -342q-147 -144 -194 -295q-44 -134 35 -192q77 -58 127 -86q54 -28 98 -33q35 -6 43.5 -1t25.5 40q102 202 226 358q156 198 311 318q174 141 350 166q105 13 148 2q92 -22 112 -111
q4 -25 -12 -37q-17 -7 -26 17q-1 1 -1 2q-2 2 -6 10q-9 21 -32 27q-37 4 -56 2q-189 -14 -379 -170q-74 -62 -180 -172q-104 -113 -170 -203q-66 -93 -135 -221q-109 -194 -162 -428zM1962 1935q-22 -71 -55 -161q-9 -27 -31 -15q-34 23 -27 74q1 13 5.5 41t5.5 41
q1 16 2 25t-0.5 15t-2.5 8t-6 0.5t-9 -4t-14 -9t-18 -11.5q-51 -30 -120 -81q-21 -18 -45 -33q-43 -30 -76 6q-27 31 2 72q29 34 76 69q110 75 153 99q50 27 74 25.5t57 -34.5q47 -47 29 -127z" />
    <glyph glyph-name="Otilde" unicode="&#xd5;" horiz-adv-x="2076" 
d="M498 88q12 66 59 191q6 20 4.5 24t-20.5 8q-55 8 -107 37q-114 62 -174 117q-30 30 -49 61q-75 116 -4 281q72 165 237 313q197 181 465 316q285 143 594 200q155 30 275 25q143 -7 235 -43q161 -59 238 -223q83 -163 61 -340q-7 -62 -37 -166q-128 -398 -479 -772
q-144 -154 -293 -271q-278 -207 -542 -282q-145 -45 -256 -17q-211 51 -234 260q-14 125 27 281zM606 -18q-2 -9 -10 -43t-10 -52q-18 -124 10 -188q17 -42 63 -51q62 -13 146 4q128 20 299 102q247 118 477 338q177 166 313 344q127 163 205 312q95 179 129 335
q34 157 -31.5 277t-207.5 160q-176 48 -410 10q-313 -47 -610 -199q-300 -153 -486 -342q-147 -144 -194 -295q-44 -134 35 -192q77 -58 127 -86q54 -28 98 -33q35 -6 43.5 -1t25.5 40q102 202 226 358q156 198 311 318q174 141 350 166q105 13 148 2q92 -22 112 -111
q4 -25 -12 -37q-17 -7 -26 17q-1 1 -1 2q-2 2 -6 10q-9 21 -32 27q-37 4 -56 2q-189 -14 -379 -170q-74 -62 -180 -172q-104 -113 -170 -203q-66 -93 -135 -221q-109 -194 -162 -428zM1880 1782q-25 0 -49 12q-31 10 -47 29q-41 41 -113 2q-32 -16 -47 -29q-18 -14 -35 -6
q-20 12 -30 30.5t-3.5 43.5t35.5 47q72 54 142 26q23 -7 61 -41q32 -31 54 -31t69 31q29 20 55 43q22 22 41 9q37 -26 17 -70q-19 -38 -64 -67t-86 -29z" />
    <glyph glyph-name="Odieresis" unicode="&#xd6;" horiz-adv-x="2076" 
d="M498 88q12 66 59 191q6 20 4.5 24t-20.5 8q-55 8 -107 37q-114 62 -174 117q-30 30 -49 61q-75 116 -4 281q72 165 237 313q197 181 465 316q285 143 594 200q155 30 275 25q143 -7 235 -43q161 -59 238 -223q83 -163 61 -340q-7 -62 -37 -166q-128 -398 -479 -772
q-144 -154 -293 -271q-278 -207 -542 -282q-145 -45 -256 -17q-211 51 -234 260q-14 125 27 281zM606 -18q-2 -9 -10 -43t-10 -52q-18 -124 10 -188q17 -42 63 -51q62 -13 146 4q128 20 299 102q247 118 477 338q177 166 313 344q127 163 205 312q95 179 129 335
q34 157 -31.5 277t-207.5 160q-176 48 -410 10q-313 -47 -610 -199q-300 -153 -486 -342q-147 -144 -194 -295q-44 -134 35 -192q77 -58 127 -86q54 -28 98 -33q35 -6 43.5 -1t25.5 40q102 202 226 358q156 198 311 318q174 141 350 166q105 13 148 2q92 -22 112 -111
q4 -25 -12 -37q-17 -7 -26 17q-1 1 -1 2q-2 2 -6 10q-9 21 -32 27q-37 4 -56 2q-189 -14 -379 -170q-74 -62 -180 -172q-104 -113 -170 -203q-66 -93 -135 -221q-109 -194 -162 -428zM1909 1798q-38 0 -69 32t-28 66q2 32 22.5 59t55.5 40q31 12 59.5 4.5t43.5 -33.5
q6 -10 26 -61q19 -56 -43 -86q-44 -21 -67 -21zM1563 1798q-38 0 -69 32t-28 66q2 32 22.5 59t55.5 40q31 12 59.5 4.5t43.5 -33.5q6 -10 26 -61q19 -56 -43 -86q-44 -21 -67 -21z" />
    <glyph glyph-name="multiply" unicode="&#xd7;" horiz-adv-x="544" 
d="M238 582q4 0 32 -11q60 -31 90 -102q13 -34 20.5 -34t37.5 26q40 30 102 71q32 23 45 31q32 17 55.5 4t20.5 -45q0 -18 -27 -41q-45 -39 -106 -84q-13 -9 -37.5 -26.5t-36.5 -26.5q-17 -12 -19.5 -19t3.5 -22q27 -93 57 -162q7 -11 10 -22q4 -15 -6 -25q-10 -8 -24 -4
q-28 7 -54 37q-28 34 -63 106q-8 17 -10.5 22t-10 6.5t-13.5 -2.5t-25 -17q-15 -10 -81 -53.5t-100 -67.5q-36 -26 -55 0q-17 23 10 47q13 13 41 37q26 22 79.5 64.5t80.5 64.5q22 17 24.5 23.5t-6.5 25.5q-8 17 -27 75.5t-36 86.5q-7 14 2 26q8 11 27 11z" />
    <glyph glyph-name="Oslash" unicode="&#xd8;" horiz-adv-x="2076" 
d="M586 -266q196 220 393 438q8 8 12 14q137 146 139 148q88 94 306 315q306 315 624 635q55 58 113 113q-61 82 -186 123q-193 50 -408 10q-305 -46 -610 -199q-267 -129 -486 -342q-138 -129 -196 -295q-43 -118 37 -192l6 -4q49 -39 123 -82q43 -24 96 -33q33 -9 43 -2
q10 5 29 41q86 182 223 358q145 185 311 318q158 131 348 166h4q73 14 146 2q92 -22 110 -111q2 -6 2 -18q-3 -11 -12 -19q-11 -3 -16 0q-5 2 -8 12q0 1 -1.5 3.5t-1.5 3.5q-2 2 -6 10q-9 21 -32 27q-37 4 -56 2q-204 -21 -379 -170q-90 -76 -180 -172q-104 -113 -170 -203
q-76 -112 -135 -221q-111 -202 -162 -428l-6 -29q-8 -29 -14 -66q-15 -79 0 -153zM2234 1247q-55 -55 -86 -88l-886 -891q-365 -370 -545 -555q-10 -10 -32 -31.5t-32 -31.5q2 -2 6 -2q69 -12 146 4q152 27 299 102q266 130 477 338q170 156 313 344q118 151 205 312
q89 164 129 335q15 89 6 164zM2224 1446q136 130 283 250q49 46 73 -6q12 -18 15 -39q5 -13 -6 -39l-6 -8q-9 -12 -21 -27q-20 -23 -65 -68q-4 -4 -12 -11.5t-11 -10.5q-20 -18 -62.5 -60.5l-66.5 -66.5l-55 -57q35 -106 22 -248q-12 -84 -39 -166q-145 -431 -477 -772
q-133 -145 -293 -271q-252 -193 -542 -282q-133 -44 -256 -17q-60 15 -109 43l-139 -141l-6 -6q-17 -20 -45 -41q-38 -20 -62 -2q-8 12 -8 25q0 15 10 32q20 33 49 62q4 4 4 6q21 22 62 68.5t61 68.5q-38 56 -51 145q-12 135 27 281q21 93 51 170q6 9 6 21q8 16 8 24
q-5 5 -22 8q-56 9 -107 37q-94 46 -174 117q-30 30 -49 61q-75 125 -4 281q83 180 237 313q215 191 465 316q294 145 594 200q143 28 275 25q126 -3 233 -43q140 -56 213 -172z" />
    <glyph glyph-name="Ugrave" unicode="&#xd9;" horiz-adv-x="1888" 
d="M1958 848q-110 -106 -162 -158q-237 -233 -360 -348q-317 -298 -504 -461q-137 -118 -283 -217q-48 -34 -110 -61q-105 -43 -189 -2q-52 24 -59 94q-6 43 10 94q36 129 152 313q96 155 200 304q11 13 9 18t-19 8q-143 18 -283 119q-70 47 -112 127q-77 146 20 346
q66 129 226 268q230 195 501 289q162 56 267 51q83 -2 152.5 -60t70.5 -145q2 -64 -39 -159q-51 -124 -152 -267q-198 -279 -223 -311q-202 -265 -422 -581q-138 -204 -196 -336q-20 -51 -25 -92q-2 -26 6.5 -31.5t34.5 4.5q78 33 168 96q226 162 487 404q20 19 96 90
t117 110q43 42 129 128t129 128q236 236 533 523q243 236 434 409q9 8 27.5 24.5t27.5 24.5q24 22 52 8q24 -11 41 -38q16 -24 -3 -60q-4 -7 -53 -69q-50 -58 -150.5 -175.5t-150.5 -175.5q-158 -189 -291 -362q-239 -312 -399 -563q-144 -225 -215 -404q-34 -84 -43 -139
q-4 -20 -4 -31q0 -14 4.5 -17.5t19.5 -2.5q5 0 16.5 2t16.5 2q15 0 18.5 -8t-6.5 -23q-15 -18 -36 -27q-56 -23 -105 0t-55 74q-6 40 4 90q14 72 43 154q127 320 326 604q119 173 288 381q4 5 12.5 15.5t12.5 15.5q0 1 -1 3t-1 3zM1358 1434q2 10 6 26q8 43 -4 59t-53 19
q-75 3 -133 -12q-358 -85 -642 -357q-146 -136 -196 -301q-35 -129 10 -202q101 -167 338 -183q28 -2 51 27q6 8 119 162q43 56 127 168.5t127 169.5q138 185 207 315q34 65 43 109zM1690 1964q7 30 34 57q13 13 48 35q20 12 30 9t13 -23q12 -57 51 -96q13 -11 40 -37
t48.5 -45t42.5 -35q12 -8 18 -14q17 -20 -2 -41q-33 -38 -71 -29q-30 5 -60 22q-19 12 -59.5 37t-59.5 37q-23 15 -49 45q-30 38 -24 78z" />
    <glyph glyph-name="Uacute" unicode="&#xda;" horiz-adv-x="1888" 
d="M1958 848q-110 -106 -162 -158q-237 -233 -360 -348q-317 -298 -504 -461q-137 -118 -283 -217q-48 -34 -110 -61q-105 -43 -189 -2q-52 24 -59 94q-6 43 10 94q36 129 152 313q96 155 200 304q11 13 9 18t-19 8q-143 18 -283 119q-70 47 -112 127q-77 146 20 346
q66 129 226 268q230 195 501 289q162 56 267 51q83 -2 152.5 -60t70.5 -145q2 -64 -39 -159q-51 -124 -152 -267q-198 -279 -223 -311q-202 -265 -422 -581q-138 -204 -196 -336q-20 -51 -25 -92q-2 -26 6.5 -31.5t34.5 4.5q78 33 168 96q226 162 487 404q20 19 96 90
t117 110q43 42 129 128t129 128q236 236 533 523q243 236 434 409q9 8 27.5 24.5t27.5 24.5q24 22 52 8q24 -11 41 -38q16 -24 -3 -60q-4 -7 -53 -69q-50 -58 -150.5 -175.5t-150.5 -175.5q-158 -189 -291 -362q-239 -312 -399 -563q-144 -225 -215 -404q-34 -84 -43 -139
q-4 -20 -4 -31q0 -14 4.5 -17.5t19.5 -2.5q5 0 16.5 2t16.5 2q15 0 18.5 -8t-6.5 -23q-15 -18 -36 -27q-56 -23 -105 0t-55 74q-6 40 4 90q14 72 43 154q127 320 326 604q119 173 288 381q4 5 12.5 15.5t12.5 15.5q0 1 -1 3t-1 3zM1358 1434q2 10 6 26q8 43 -4 59t-53 19
q-75 3 -133 -12q-358 -85 -642 -357q-146 -136 -196 -301q-35 -129 10 -202q101 -167 338 -183q28 -2 51 27q6 8 119 162q43 56 127 168.5t127 169.5q138 185 207 315q34 65 43 109zM2208 1964q-10 -37 -58 -78q-51 -35 -71 -45q-25 -12 -75.5 -36.5t-76.5 -37.5
q-44 -17 -72 -22q-44 -9 -57 29q-8 22 17 41q4 2 12 7t12 7q23 13 186 117q63 46 95 96q22 37 51 14q21 -18 31 -35q13 -27 6 -57z" />
    <glyph glyph-name="Ucircumflex" unicode="&#xdb;" horiz-adv-x="1888" 
d="M1958 848q-110 -106 -162 -158q-237 -233 -360 -348q-317 -298 -504 -461q-137 -118 -283 -217q-48 -34 -110 -61q-105 -43 -189 -2q-52 24 -59 94q-6 43 10 94q36 129 152 313q96 155 200 304q11 13 9 18t-19 8q-143 18 -283 119q-70 47 -112 127q-77 146 20 346
q66 129 226 268q230 195 501 289q162 56 267 51q83 -2 152.5 -60t70.5 -145q2 -64 -39 -159q-51 -124 -152 -267q-198 -279 -223 -311q-202 -265 -422 -581q-138 -204 -196 -336q-20 -51 -25 -92q-2 -26 6.5 -31.5t34.5 4.5q78 33 168 96q226 162 487 404q20 19 96 90
t117 110q43 42 129 128t129 128q236 236 533 523q243 236 434 409q9 8 27.5 24.5t27.5 24.5q24 22 52 8q24 -11 41 -38q16 -24 -3 -60q-4 -7 -53 -69q-50 -58 -150.5 -175.5t-150.5 -175.5q-158 -189 -291 -362q-239 -312 -399 -563q-144 -225 -215 -404q-34 -84 -43 -139
q-4 -20 -4 -31q0 -14 4.5 -17.5t19.5 -2.5q5 0 16.5 2t16.5 2q15 0 18.5 -8t-6.5 -23q-15 -18 -36 -27q-56 -23 -105 0t-55 74q-6 40 4 90q14 72 43 154q127 320 326 604q119 173 288 381q4 5 12.5 15.5t12.5 15.5q0 1 -1 3t-1 3zM1358 1434q2 10 6 26q8 43 -4 59t-53 19
q-75 3 -133 -12q-358 -85 -642 -357q-146 -136 -196 -301q-35 -129 10 -202q101 -167 338 -183q28 -2 51 27q6 8 119 162q43 56 127 168.5t127 169.5q138 185 207 315q34 65 43 109zM2171 1913q-25 -78 -55 -162q-9 -27 -31 -14q-33 23 -27 73q1 13 5 40.5t5 41.5
q1 17 2 25.5t0 15t-2 8t-6 0.5t-9 -3.5t-14 -9t-18 -11.5q-45 -26 -120 -82q-18 -16 -46 -33q-43 -29 -75 6q-27 31 2 72q32 37 76 70q103 70 153 98t74.5 26t56.5 -34q47 -47 29 -127z" />
    <glyph glyph-name="Udieresis" unicode="&#xdc;" horiz-adv-x="1888" 
d="M1958 848q-110 -106 -162 -158q-237 -233 -360 -348q-317 -298 -504 -461q-137 -118 -283 -217q-48 -34 -110 -61q-105 -43 -189 -2q-52 24 -59 94q-6 43 10 94q36 129 152 313q96 155 200 304q11 13 9 18t-19 8q-143 18 -283 119q-70 47 -112 127q-77 146 20 346
q66 129 226 268q230 195 501 289q162 56 267 51q83 -2 152.5 -60t70.5 -145q2 -64 -39 -159q-51 -124 -152 -267q-198 -279 -223 -311q-202 -265 -422 -581q-138 -204 -196 -336q-20 -51 -25 -92q-2 -26 6.5 -31.5t34.5 4.5q78 33 168 96q226 162 487 404q20 19 96 90
t117 110q43 42 129 128t129 128q236 236 533 523q243 236 434 409q9 8 27.5 24.5t27.5 24.5q24 22 52 8q24 -11 41 -38q16 -24 -3 -60q-4 -7 -53 -69q-50 -58 -150.5 -175.5t-150.5 -175.5q-158 -189 -291 -362q-239 -312 -399 -563q-144 -225 -215 -404q-34 -84 -43 -139
q-4 -20 -4 -31q0 -14 4.5 -17.5t19.5 -2.5q5 0 16.5 2t16.5 2q15 0 18.5 -8t-6.5 -23q-15 -18 -36 -27q-56 -23 -105 0t-55 74q-6 40 4 90q14 72 43 154q127 320 326 604q119 173 288 381q4 5 12.5 15.5t12.5 15.5q0 1 -1 3t-1 3zM1358 1434q2 10 6 26q8 43 -4 59t-53 19
q-75 3 -133 -12q-358 -85 -642 -357q-146 -136 -196 -301q-35 -129 10 -202q101 -167 338 -183q28 -2 51 27q6 8 119 162q43 56 127 168.5t127 169.5q138 185 207 315q34 65 43 109zM2101 1731q-38 0 -68.5 32t-27.5 66q2 32 22.5 58.5t55.5 39.5q31 12 59 4.5t43 -33.5
q9 -17 27 -61q19 -56 -43 -86q-42 -20 -68 -20zM1755 1731q-38 0 -68.5 32t-27.5 66q2 32 22.5 58.5t55.5 39.5q31 12 59 4.5t43 -33.5q9 -17 27 -61q19 -56 -43 -86q-42 -20 -68 -20z" />
    <glyph glyph-name="Yacute" unicode="&#xdd;" horiz-adv-x="1959" 
d="M1866 651q-23 -19 -67.5 -54t-51.5 -40q-296 -250 -553 -440q-12 -9 -61.5 -44t-70.5 -50t-59.5 -39.5t-70.5 -42.5q-82 -46 -137 -62q-98 -26 -168 10q-90 42 -72 154q11 81 55 174q29 63 105 199q8 16 14 24q6 12 7.5 16.5t3 9.5t-2 6.5t-8.5 2t-16 0.5q-198 3 -363 98
q-69 40 -114 109q-64 99 -9 240q44 105 138 202q144 153 329 269q292 178 568 258q87 25 161 28q136 6 191 -114q22 -51 -8 -123q-21 -56 -95 -172q-56 -84 -223 -303q-120 -161 -181.5 -245t-153 -223t-156.5 -257q-58 -103 -78 -166q-23 -67 -23 -103q0 -17 6 -19.5
t23 3.5q38 10 106 49q136 81 240 160q300 229 610 485q60 50 183.5 154.5t187.5 157.5q30 27 47 55q136 207 264 366q191 229 361 363q82 69 160 111q52 28 86 22t59 -49q29 -49 -8 -102q-56 -79 -146 -166q-246 -246 -454 -426q-61 -52 -121 -109q-17 -15 -41 -47
q-184 -276 -451 -729q-220 -373 -323 -522q-66 -93 -108 -150t-107 -135t-127 -139q-98 -98 -197 -160q-178 -109 -350 -80q-192 29 -283 156q-63 84 -34 196q25 80 86 115q25 15 33.5 11t7.5 -31q0 -2 -17 -78q-8 -40 -10 -60q-3 -71 29 -120q68 -99 196 -117q39 -5 98 20
q111 48 205 133q143 124 305 334q159 210 414 621q24 38 70.5 113.5t70.5 113.5q29 47 101 176q-2 0 -2 2zM705 528h53q26 0 39 25q8 13 23.5 37.5t23.5 36.5q117 181 407 551q14 18 45 58t49 63.5t42 58t43 63.5q48 69 63 123q6 22 1.5 28.5t-26.5 6.5q-65 -3 -114 -16
q-442 -116 -779 -412q-148 -132 -223 -287q-40 -83 -25.5 -149.5t81.5 -106.5q139 -77 297 -80zM2335 1964q-10 -37 -58 -78q-51 -35 -71 -45q-26 -12 -76 -36.5t-76 -37.5q-44 -17 -72 -22q-44 -9 -57 29q-8 22 17 41q4 2 12 7t12 7q23 13 186 117q63 46 95 96q22 37 51 14
q21 -18 31 -35q13 -27 6 -57z" />
    <glyph glyph-name="Thorn" unicode="&#xde;" horiz-adv-x="1773" 
d="M1411 1053q-4 2 -6 4l-14 -8l-29 -21q-224 -158 -399 -360q-121 -139 -207 -303q-22 -46 -31 -91q-5 -18 -2 -41q1 -2 2 -5.5t2 -4.5q2 -4 10 -8q5 0 13 4l10 10q3 3 8 13l6 8l35 45q12 16 37 49t37 49l258 320q6 8 188 233q40 50 55 72l12 16t15 19zM1962 1511
q-289 -319 -397 -460q-2 -6 -8.5 -18t-8.5 -15q-54 -90 -106 -158q-74 -100 -303 -399q-20 -25 -123 -158l-6 -6q-1 -1 -3 -4t-3 -4q-3 -3 -3 -8q4 -4 11 0q6 0 10 2q2 2 4 2q116 48 191 88q309 157 571 383q197 169 332 366q63 90 94 197q15 67 0 104q-20 38 -78 58
q-82 27 -174 30zM1516 1208q22 28 53 62l26 28q40 42 107 114.5t86 92.5q-86 -11 -139 -20q-382 -70 -758 -250q-242 -112 -440 -295q-120 -108 -175 -248q-32 -96 -4 -182q30 -83 117 -121q95 -31 199 -37q29 -3 37 2q9 6 22 35q106 213 273 389q171 183 360 324
q63 49 141 92q52 30 95 14zM2048 1608q1 0 3.5 -1t4.5 -1q91 -20 168 -88q105 -89 96 -242q-6 -69 -36 -133q-91 -197 -252 -357q-218 -218 -465 -366q-215 -136 -439 -223q-108 -44 -227 -66q-19 -4 -27 -10q-17 -17 -20 -21l-45 -57q-41 -49 -92 -117q-170 -218 -330 -458
q-21 -35 -31 -64q-3 -17 -12 -20q-5 -5 -20 -9q-29 0 -60 17q-22 22 -8 55q13 37 33 70q77 139 176 284l18 33q22 30 60 86t53 78q36 50 88 127q2 5 5.5 11t4.5 7q4 5 0 9l-10 10h-2q-57 42 -66 112q-3 17 -20 17h-37q-228 3 -348 170q-79 113 -33 268q48 142 154 248
q154 151 321 248q182 108 402 198q282 113 575 172q116 28 219 31h52q357 381 421 445q32 32 62 53q31 25 61 10q29 -18 39 -41q3 -14 0 -20q-3 -10 -18 -19q-33 -23 -56 -49q-197 -211 -362 -397z" />
    <glyph glyph-name="germandbls" unicode="&#xdf;" horiz-adv-x="1667" 
d="M676 -311q-152 4 -225 32q-21 6 -37 19q-17 17 -11 31q6 15 35 20q25 6 45 -10q21 -19 64 -19q124 0 164 7q25 6 53 18q109 48 121 160q2 16 2.5 31.5t-1 33t-2.5 29t-4.5 32t-5 28.5t-6.5 32t-6 29q-29 143 -33 207q-9 151 91 293q96 135 260 282q142 126 325 277
q74 63 110 94.5t93.5 87t99.5 104.5q48 52 68 95q1 2 4 7.5t4.5 8.5t3 7.5t0.5 8t-4 6.5q-2 3 -5.5 4t-8 0t-7.5 -2t-8.5 -3t-7.5 -3q-55 -15 -123 -59q-176 -110 -315 -252q-174 -177 -272 -299q-186 -231 -299 -393q-274 -399 -457 -623q-99 -119 -229 -233
q-60 -50 -113 -68q-49 -21 -84 10q-26 23 12 35q34 11 64 41q112 112 252 287q136 170 395 545q250 352 393 518q224 263 434 428q115 90 219 145q33 16 74 29q73 22 135 -23q44 -27 62 -77q22 -49 0 -115q-24 -68 -97 -160q-86 -105 -249 -246q-35 -31 -162 -137.5
t-193 -167.5q-158 -141 -252 -284q-58 -91 -55 -191q0 -20 2.5 -42.5t4.5 -39t6.5 -43t7 -37.5t9 -42t7.5 -38q25 -118 23 -176q-3 -69 -43 -122t-111 -82q-61 -27 -184 -35h-33z" />
    <glyph glyph-name="agrave" unicode="&#xe0;" 
d="M319 190q-7 -8 -21.5 -23.5t-21.5 -23.5q-68 -76 -118 -110q-50 -40 -101 -29q-41 9 -56.5 31t-8.5 65q21 142 100 273q15 23 66 92q52 73 147 135q152 93 244 -18q9 -12 13.5 -11.5t17.5 15.5q29 29 41 43q22 19 47 12q18 -6 30 -18q26 -23 4 -58q-6 -12 -14.5 -25
t-19 -27.5t-15.5 -23.5q-66 -91 -135 -204q-57 -92 -102 -213q-4 -13 2 -19q26 14 55 37q43 33 84 69.5t105 97.5t79 75q23 23 35 33q9 13 23 16q15 7 22 0q5 -8 -2 -19q-9 -15 -22 -28q-166 -185 -275 -279q-66 -59 -127 -69q-50 -6 -77.5 20.5t-20.5 75.5q5 46 22 108z
M111 88q15 7 47 35q118 109 284 293q33 43 47 71q17 33 11 62q-3 21 -31 18q-26 -9 -35 -16q-41 -24 -74 -53q-160 -160 -239 -359q-12 -29 -10 -51zM563 995q7 30 35 58q12 12 47 34q20 12 30 9t13 -23q12 -57 51 -96q13 -11 40 -37t48.5 -45t42.5 -35q15 -10 19 -14
q17 -20 -2 -41q-33 -38 -72 -29q-26 4 -59 23q-19 12 -59 36.5t-60 36.5q-21 14 -49 46q-30 39 -25 77z" />
    <glyph glyph-name="aacute" unicode="&#xe1;" 
d="M319 190q-7 -8 -21.5 -23.5t-21.5 -23.5q-68 -76 -118 -110q-50 -40 -101 -29q-41 9 -56.5 31t-8.5 65q21 142 100 273q15 23 66 92q52 73 147 135q152 93 244 -18q9 -12 13.5 -11.5t17.5 15.5q29 29 41 43q22 19 47 12q18 -6 30 -18q26 -23 4 -58q-6 -12 -14.5 -25
t-19 -27.5t-15.5 -23.5q-66 -91 -135 -204q-57 -92 -102 -213q-4 -13 2 -19q26 14 55 37q43 33 84 69.5t105 97.5t79 75q23 23 35 33q9 13 23 16q15 7 22 0q5 -8 -2 -19q-9 -15 -22 -28q-166 -185 -275 -279q-66 -59 -127 -69q-50 -6 -77.5 20.5t-20.5 75.5q5 46 22 108z
M111 88q15 7 47 35q118 109 284 293q33 43 47 71q17 33 11 62q-3 21 -31 18q-26 -9 -35 -16q-41 -24 -74 -53q-160 -160 -239 -359q-12 -29 -10 -51zM981 989q-11 -38 -57 -78q-48 -34 -72 -45q-26 -13 -76 -37t-76 -36q-48 -19 -71 -23q-45 -9 -58 29q-8 22 17 41q4 2 12 7
t12 7q31 17 187 117q61 45 94 96q22 37 51 14q22 -18 31 -34q13 -27 6 -58z" />
    <glyph glyph-name="acircumflex" unicode="&#xe2;" 
d="M319 190q-7 -8 -21.5 -23.5t-21.5 -23.5q-68 -76 -118 -110q-50 -40 -101 -29q-41 9 -56.5 31t-8.5 65q21 142 100 273q15 23 66 92q52 73 147 135q152 93 244 -18q9 -12 13.5 -11.5t17.5 15.5q29 29 41 43q22 19 47 12q18 -6 30 -18q26 -23 4 -58q-6 -12 -14.5 -25
t-19 -27.5t-15.5 -23.5q-66 -91 -135 -204q-57 -92 -102 -213q-4 -13 2 -19q26 14 55 37q43 33 84 69.5t105 97.5t79 75q23 23 35 33q9 13 23 16q15 7 22 0q5 -8 -2 -19q-9 -15 -22 -28q-166 -185 -275 -279q-66 -59 -127 -69q-50 -6 -77.5 20.5t-20.5 75.5q5 46 22 108z
M111 88q15 7 47 35q118 109 284 293q33 43 47 71q17 33 11 62q-3 21 -31 18q-26 -9 -35 -16q-41 -24 -74 -53q-160 -160 -239 -359q-12 -29 -10 -51zM979 971q-25 -78 -55 -162q-9 -27 -31 -14q-33 23 -27 73q1 13 5.5 41t5.5 41q1 16 2 25t-0.5 15.5t-2.5 8.5t-6 0.5
t-8.5 -4t-14 -9t-18.5 -11.5q-45 -26 -120 -82q-21 -18 -45 -33q-43 -30 -76 6q-27 31 2 72q32 37 76 70q103 70 153 98t74.5 26t56.5 -34q47 -47 29 -127z" />
    <glyph glyph-name="atilde" unicode="&#xe3;" 
d="M319 190q-7 -8 -21.5 -23.5t-21.5 -23.5q-68 -76 -118 -110q-50 -40 -101 -29q-41 9 -56.5 31t-8.5 65q21 142 100 273q15 23 66 92q52 73 147 135q152 93 244 -18q9 -12 13.5 -11.5t17.5 15.5q29 29 41 43q22 19 47 12q18 -6 30 -18q26 -23 4 -58q-6 -12 -14.5 -25
t-19 -27.5t-15.5 -23.5q-66 -91 -135 -204q-57 -92 -102 -213q-4 -13 2 -19q26 14 55 37q43 33 84 69.5t105 97.5t79 75q23 23 35 33q9 13 23 16q15 7 22 0q5 -8 -2 -19q-9 -15 -22 -28q-166 -185 -275 -279q-66 -59 -127 -69q-50 -6 -77.5 20.5t-20.5 75.5q5 46 22 108z
M111 88q15 7 47 35q118 109 284 293q33 43 47 71q17 33 11 62q-3 21 -31 18q-26 -9 -35 -16q-41 -24 -74 -53q-160 -160 -239 -359q-12 -29 -10 -51zM872 797q-25 0 -49 12q-31 10 -47 29q-40 40 -112 2q-34 -17 -48 -29q-18 -14 -34 -6q-20 12 -30 30.5t-3.5 43.5t35.5 47
q71 54 141 26q23 -7 61 -41q32 -31 54 -31t69 31q34 24 56 43q22 22 41 9q36 -25 16 -70q-19 -38 -64 -67t-86 -29z" />
    <glyph glyph-name="adieresis" unicode="&#xe4;" 
d="M319 190q-7 -8 -21.5 -23.5t-21.5 -23.5q-68 -76 -118 -110q-50 -40 -101 -29q-41 9 -56.5 31t-8.5 65q21 142 100 273q15 23 66 92q52 73 147 135q152 93 244 -18q9 -12 13.5 -11.5t17.5 15.5q29 29 41 43q22 19 47 12q18 -6 30 -18q26 -23 4 -58q-6 -12 -14.5 -25
t-19 -27.5t-15.5 -23.5q-66 -91 -135 -204q-57 -92 -102 -213q-4 -13 2 -19q26 14 55 37q43 33 84 69.5t105 97.5t79 75q23 23 35 33q9 13 23 16q15 7 22 0q5 -8 -2 -19q-9 -15 -22 -28q-166 -185 -275 -279q-66 -59 -127 -69q-50 -6 -77.5 20.5t-20.5 75.5q5 46 22 108z
M111 88q15 7 47 35q118 109 284 293q33 43 47 71q17 33 11 62q-3 21 -31 18q-26 -9 -35 -16q-41 -24 -74 -53q-160 -160 -239 -359q-12 -29 -10 -51zM952 825q-38 0 -68.5 32.5t-27.5 66.5q2 32 22.5 58.5t55.5 39.5q31 12 59 4.5t43 -33.5q9 -17 27 -61q19 -56 -43 -86
q-44 -21 -68 -21zM606 825q-38 0 -68.5 32.5t-27.5 66.5q2 32 22.5 58.5t55.5 39.5q31 12 59 4.5t43 -33.5q9 -17 27 -61q19 -56 -43 -86q-44 -21 -68 -21z" />
    <glyph glyph-name="aring" unicode="&#xe5;" 
d="M319 190q-7 -8 -21.5 -23.5t-21.5 -23.5q-68 -76 -118 -110q-50 -40 -101 -29q-41 9 -56.5 31t-8.5 65q21 142 100 273q15 23 66 92q52 73 147 135q152 93 244 -18q9 -12 13.5 -11.5t17.5 15.5q29 29 41 43q22 19 47 12q18 -6 30 -18q26 -23 4 -58q-6 -12 -14.5 -25
t-19 -27.5t-15.5 -23.5q-66 -91 -135 -204q-57 -92 -102 -213q-4 -13 2 -19q26 14 55 37q43 33 84 69.5t105 97.5t79 75q23 23 35 33q9 13 23 16q15 7 22 0q5 -8 -2 -19q-9 -15 -22 -28q-166 -185 -275 -279q-66 -59 -127 -69q-50 -6 -77.5 20.5t-20.5 75.5q5 46 22 108z
M111 88q15 7 47 35q118 109 284 293q33 43 47 71q17 33 11 62q-3 21 -31 18q-26 -9 -35 -16q-41 -24 -74 -53q-160 -160 -239 -359q-12 -29 -10 -51zM817 801q-63 0 -107 33.5t-55 85.5q-8 46 16 99t70 91q58 49 127 33q26 -7 58 -31q55 -49 71 -131q15 -79 -63 -133
q-61 -43 -117 -47zM893 1006q4 10 4 32q-3 25 -27 17q-37 -12 -78.5 -58t-48.5 -84q-3 -19 2.5 -24t24.5 -2q44 8 78.5 40.5t44.5 78.5z" />
    <glyph glyph-name="ae" unicode="&#xe6;" horiz-adv-x="1253" 
d="M111 88q27 17 43 33q2 0 4 2q135 124 284 293q36 46 47 71q18 29 11 62q-6 21 -31 18q-15 -2 -35 -16q-32 -17 -74 -53q-160 -160 -239 -359q-10 -23 -10 -51zM1198 555q6 21 0 27q-5 5 -24 2q-41 -5 -87 -29q-94 -51 -163 -123q-15 -15 -43 -47q-3 -6 -9 -12l-8 -8
q-3 -7 0 -13q4 -4 8 -4q4 -4 11 0h2q4 0 6 2q37 2 90 23q93 41 170 112q32 32 47 70zM627 152q-70 -66 -105 -97q-58 -55 -127 -69q-53 -3 -78 22q-26 23 -20 74q5 30 22 108q-8 -8 -12 -14q-5 -5 -15.5 -16.5t-15.5 -16.5q-52 -61 -116 -110q-50 -38 -103 -29
q-79 12 -67 96q21 140 104 273q10 18 32.5 49.5t29.5 42.5q65 84 149 135q149 90 244 -18q10 -13 14 -11q5 0 17 15l4 4l39 39q21 21 45 12q18 -6 30 -18q29 -22 7 -58q-13 -21 -52 -76q-87 -126 -135 -204q-62 -105 -102 -213v-2q0 -1 -1 -4.5t-1 -4.5q0 -6 4 -8
q26 14 55 37q71 56 168 146q5 19 16 49q108 246 357 348q87 40 176 24q45 -14 80 -45q38 -33 14 -92q-13 -31 -41 -67q-102 -129 -262 -170q-35 -7 -59 -7h-4q-35 -3 -74 11q-20 10 -31 -15q-47 -86 -53 -172q0 -10 4 -30q9 -60 74 -41q97 26 184 80q184 110 358 258l6 4
q14 14 37 24q8 4 15 4t10 -6q10 -13 -2 -28q-14 -21 -31 -35q-166 -160 -375 -281q-119 -68 -229 -76q-66 -6 -121 21q-52 30 -61 96q-4 41 -2 62z" />
    <glyph glyph-name="ccedilla" unicode="&#xe7;" horiz-adv-x="661" 
d="M111 18q-29 16 -52 39q-25 36 -28 78q-3 100 45 199q68 145 200 250q92 77 224 80q79 0 137 -64q44 -47 0 -113q-61 -93 -160 -149q-43 -24 -78 -2q-25 16 7 35q67 42 110 96q30 38 41 76q3 14 0 20q-5 5 -20 2q-104 -15 -189 -96q-117 -114 -178 -254q-25 -65 -14 -121
q6 -32 26 -43q11 0 23 -6q16 0 26 2q64 11 129 43q116 58 236 148q66 53 149 116l15 13q20 18 43 24q4 2 12 2q8 -4 10 -6q6 -12 -4 -25q-12 -16 -20 -24q-131 -122 -301 -238q-111 -80 -244 -102q77 -92 117 -211q21 -59 6 -131q-9 -49 -57 -80q-78 -51 -156 -27
q-85 34 -125 115q-6 12 -6 27q0 32 35 47q18 9 28 6q11 -4 17 -18q41 -66 112 -99q6 -3 9 -6q2 2 4.5 5.5t3.5 4.5q4 3 0 7q0 8 -2 10q0 10 -4 30q-42 145 -119 259l-4 4q-14 17 -17 39q-3 15 0 24q1 2 13 14z" />
    <glyph glyph-name="egrave" unicode="&#xe8;" horiz-adv-x="681" 
d="M305 276q-47 0 -72 11q-21 6 -32 -15q-51 -100 -51 -172q-2 -12 2 -30q7 -31 24 -40t51 -1q77 20 185 80q153 89 356 258q35 25 43 28q20 8 27 -2q8 -11 -2 -28q-14 -21 -31 -35q-191 -178 -377 -281q-128 -71 -229 -76q-66 -6 -119 21q-55 30 -64 96q-12 97 31 195
q107 247 356 348q101 43 175 24q41 -10 81 -45q39 -36 13 -92q-15 -36 -39 -67q-127 -144 -264 -170q-23 -7 -64 -7zM586 555q6 22 0.5 28t-25.5 1q-36 -5 -86 -29q-89 -48 -164 -123q-19 -19 -51 -59q-11 -16 -8 -21q3 -4 20 -4q70 13 99 25q93 41 170 112q33 33 45 70z
M508 956q7 30 35 58q15 15 47 35q20 12 30 8.5t13 -23.5q12 -57 51 -96q13 -11 40 -37t48.5 -45t42.5 -35q15 -10 19 -14q16 -19 -3 -41q-33 -38 -71 -29q-27 5 -60 23q-20 12 -59 37t-59 37q-26 17 -50 45q-29 38 -24 77z" />
    <glyph glyph-name="eacute" unicode="&#xe9;" horiz-adv-x="681" 
d="M305 276q-47 0 -72 11q-21 6 -32 -15q-51 -100 -51 -172q-2 -12 2 -30q7 -31 24 -40t51 -1q77 20 185 80q153 89 356 258q35 25 43 28q20 8 27 -2q8 -11 -2 -28q-14 -21 -31 -35q-191 -178 -377 -281q-128 -71 -229 -76q-66 -6 -119 21q-55 30 -64 96q-12 97 31 195
q107 247 356 348q101 43 175 24q41 -10 81 -45q39 -36 13 -92q-15 -36 -39 -67q-127 -144 -264 -170q-23 -7 -64 -7zM586 555q6 22 0.5 28t-25.5 1q-36 -5 -86 -29q-89 -48 -164 -123q-19 -19 -51 -59q-11 -16 -8 -21q3 -4 20 -4q70 13 99 25q93 41 170 112q33 33 45 70z
M952 985q-11 -38 -57 -78q-48 -34 -72 -45q-25 -12 -75.5 -36.5t-75.5 -37.5q-44 -17 -72 -22q-44 -9 -57 29q-8 22 16 41q4 2 12.5 7t12.5 7q23 13 186 117q61 45 94 96q22 37 51 14q21 -18 31 -35q13 -27 6 -57z" />
    <glyph glyph-name="ecircumflex" unicode="&#xea;" horiz-adv-x="681" 
d="M305 276q-47 0 -72 11q-21 6 -32 -15q-51 -100 -51 -172q-2 -12 2 -30q7 -31 24 -40t51 -1q77 20 185 80q153 89 356 258q35 25 43 28q20 8 27 -2q8 -11 -2 -28q-14 -21 -31 -35q-191 -178 -377 -281q-128 -71 -229 -76q-66 -6 -119 21q-55 30 -64 96q-12 97 31 195
q107 247 356 348q101 43 175 24q41 -10 81 -45q39 -36 13 -92q-15 -36 -39 -67q-127 -144 -264 -170q-23 -7 -64 -7zM586 555q6 22 0.5 28t-25.5 1q-36 -5 -86 -29q-89 -48 -164 -123q-19 -19 -51 -59q-11 -16 -8 -21q3 -4 20 -4q70 13 99 25q93 41 170 112q33 33 45 70z
M920 895q-18 -58 -56 -162q-9 -26 -30 -14q-34 23 -27 74q1 13 5 40t5 41q1 17 2 25.5t0 15t-2 8t-6 0.5t-9 -3.5t-14 -9t-18 -11.5q-49 -29 -121 -82q-21 -18 -45 -33q-43 -29 -76 7q-15 18 -14 33.5t16 37.5q32 37 76 70q99 68 154 98q50 28 74.5 26t56.5 -34
q47 -47 29 -127z" />
    <glyph glyph-name="edieresis" unicode="&#xeb;" horiz-adv-x="681" 
d="M305 276q-47 0 -72 11q-21 6 -32 -15q-51 -100 -51 -172q-2 -12 2 -30q7 -31 24 -40t51 -1q77 20 185 80q153 89 356 258q35 25 43 28q20 8 27 -2q8 -11 -2 -28q-14 -21 -31 -35q-191 -178 -377 -281q-128 -71 -229 -76q-66 -6 -119 21q-55 30 -64 96q-12 97 31 195
q107 247 356 348q101 43 175 24q41 -10 81 -45q39 -36 13 -92q-15 -36 -39 -67q-127 -144 -264 -170q-23 -7 -64 -7zM586 555q6 22 0.5 28t-25.5 1q-36 -5 -86 -29q-89 -48 -164 -123q-19 -19 -51 -59q-11 -16 -8 -21q3 -4 20 -4q70 13 99 25q93 41 170 112q33 33 45 70z
M872 725q-38 0 -68.5 32t-27.5 66q2 32 22.5 59t55.5 40q31 12 59 4.5t43 -33.5q8 -14 27 -62q19 -56 -43 -86q-42 -20 -68 -20zM526 725q-38 0 -68.5 32t-27.5 66q2 32 22.5 59t55.5 40q31 12 59 4.5t43 -33.5q8 -14 27 -62q19 -56 -43 -86q-42 -20 -68 -20z" />
    <glyph glyph-name="igrave" unicode="&#xec;" horiz-adv-x="364" 
d="M-20 125q33 123 137 278q73 104 157 205q26 35 50 31q48 -12 55 -45q2 -13 -14 -37q-18 -29 -54 -88.5t-55 -89.5q-76 -117 -127 -221q-25 -48 -39 -92q-4 -13 2 -17q7 -3 14 4q42 25 101 80q42 40 125 119t125 119q18 18 37 26q18 4 24 -4q8 -8 -2 -24q-2 -5 -16 -23
q-161 -180 -273 -278q-86 -75 -157 -82q-53 -8 -80 17t-21 77q4 31 11 45zM369 965q7 30 34 57q13 13 48 35q20 12 30 8.5t13 -23.5q12 -57 51 -96q13 -11 40 -37t48.5 -45t42.5 -35q12 -8 18 -14q17 -20 -2 -41q-33 -38 -71 -29q-27 5 -60 23q-19 13 -59 37t-60 37
q-23 15 -49 45q-30 38 -24 78z" />
    <glyph glyph-name="iacute" unicode="&#xed;" horiz-adv-x="364" 
d="M-20 125q33 123 137 278q73 104 157 205q26 35 50 31q48 -12 55 -45q2 -13 -14 -37q-18 -29 -54 -88.5t-55 -89.5q-76 -117 -127 -221q-25 -48 -39 -92q-4 -13 2 -17q7 -3 14 4q42 25 101 80q42 40 125 119t125 119q18 18 37 26q18 4 24 -4q8 -8 -2 -24q-2 -5 -16 -23
q-161 -180 -273 -278q-86 -75 -157 -82q-53 -8 -80 17t-21 77q4 31 11 45zM735 989q-11 -38 -57 -78q-48 -34 -72 -45q-26 -12 -76 -36t-75 -37q-48 -19 -72 -23q-44 -9 -57 29q-8 22 16 41q4 2 12.5 7t12.5 7q23 13 186 117q61 45 94 96q22 37 51 14q22 -18 31 -34
q13 -27 6 -58z" />
    <glyph glyph-name="icircumflex" unicode="&#xee;" horiz-adv-x="364" 
d="M-20 125q33 123 137 278q73 104 157 205q26 35 50 31q48 -12 55 -45q2 -13 -14 -37q-18 -29 -54 -88.5t-55 -89.5q-76 -117 -127 -221q-25 -48 -39 -92q-4 -13 2 -17q7 -3 14 4q42 25 101 80q42 40 125 119t125 119q18 18 37 26q18 4 24 -4q8 -8 -2 -24q-2 -5 -16 -23
q-161 -180 -273 -278q-86 -75 -157 -82q-53 -8 -80 17t-21 77q4 31 11 45zM745 915q-22 -71 -55 -161q-9 -27 -31 -15q-33 23 -26 74q1 14 5 41t5 41q1 17 2 25.5t0 15t-2 8t-6 0.5t-9 -3.5t-14 -9t-18 -11.5q-49 -29 -121 -82q-21 -18 -45 -33q-43 -30 -76 6q-27 31 2 72
q29 34 76 69q106 73 154 99q50 27 74 25.5t57 -34.5q46 -46 28 -127z" />
    <glyph glyph-name="idieresis" unicode="&#xef;" horiz-adv-x="364" 
d="M-20 125q33 123 137 278q73 104 157 205q26 35 50 31q48 -12 55 -45q2 -13 -14 -37q-18 -29 -54 -88.5t-55 -89.5q-76 -117 -127 -221q-25 -48 -39 -92q-4 -13 2 -17q7 -3 14 4q42 25 101 80q42 40 125 119t125 119q18 18 37 26q18 4 24 -4q8 -8 -2 -24q-2 -5 -16 -23
q-161 -180 -273 -278q-86 -75 -157 -82q-53 -8 -80 17t-21 77q4 31 11 45zM723 784q-38 0 -68.5 32.5t-27.5 66.5q2 32 22.5 58.5t55.5 39.5q31 12 59 4.5t43 -33.5q9 -17 27 -61q19 -56 -43 -86q-44 -21 -68 -21zM377 784q-38 0 -68.5 32.5t-27.5 66.5q2 33 22 59t55 39
q31 12 59.5 4.5t43.5 -33.5q6 -10 26 -61q19 -56 -43 -86q-44 -21 -67 -21z" />
    <glyph glyph-name="eth" unicode="&#xf0;" horiz-adv-x="667" 
d="M123 76q6 2 18 10q2 2 6.5 6t6.5 6l4 4q40 38 102 111q34 38 47 55q79 95 172 191q21 21 21 47q0 37 -2 53q-4 19 -11 21q-6 3 -22 -7q-44 -17 -80 -53q-143 -137 -219 -293q-43 -70 -43 -151zM1004 834l-130 -9q-19 -28 -58 -86.5t-58 -87.5q-52 -82 -90 -149
q-38 -58 -50 -80l-110 -176q-51 -78 -80 -156q-10 -23 -10 -45q6 0 14 4l8 8l6 4q70 55 138 127q7 5 14 15l152 151q22 22 32 27l4 2q3 2 15 8q5 3 14 -2q4 -8 2 -14q-1 -3 -2.5 -5.5t-3 -5.5t-2.5 -4q-2 -2 -4 -2q-12 -18 -14 -20q-25 -25 -46 -49q-24 -25 -72 -78t-73 -78
q-31 -34 -76 -72q-8 -6 -41 -34q-55 -46 -118 -43q-68 0 -62 67q7 77 39 146q-2 -1 -6 -3.5t-6 -3.5q-1 -1 -3 -4t-3 -4t-3 -2t-2 -2q-75 -82 -124 -129q-62 -53 -129 -47q-35 3 -52 29q-42 75 -4 164q82 243 303 399q139 95 238 4q10 -13 16 -10t15 18q26 37 43 70
q4 7 20.5 32.5t24.5 39.5l45 65h-111h-4q-21 0 -31 2q-56 9 -59 66q0 29 29 32q35 7 63 7h184q42 59 154 202q16 25 37 35q17 7 45 -18q46 -30 10 -84q-25 -43 -65 -101q-4 -6 -12.5 -17t-12.5 -17q15 0 107 -5q39 -3 63 -24q25 -25 -14 -45q-11 -4 -33 -8z" />
    <glyph glyph-name="ntilde" unicode="&#xf1;" horiz-adv-x="665" 
d="M565 545q-14 -5 -27 -12.5t-32.5 -21.5t-24.5 -17q-141 -101 -301 -261q-25 -28 -51 -65q-5 -7 -38.5 -56.5t-51.5 -74.5q-56 -77 -133 -49q-16 5 -20 13.5t1 27.5q10 27 25 51q136 235 321 485q35 47 74 86q28 25 53 17q23 -6 41 -21q30 -33 9 -76q-18 -28 -23 -55
q7 6 21.5 17.5t21.5 17.5q65 54 109 82q49 30 73 37q69 23 115 -23q31 -33 -4 -98q-51 -90 -115 -178q-97 -138 -147 -240q-21 -34 -25 -55q20 6 41 28q43 40 128 120t128 120q25 25 53 39q16 8 27 8q9 0 12.5 -5.5t-2.5 -14.5q-9 -14 -14 -17q-138 -156 -291 -297
q-70 -64 -151 -73q-58 -5 -79 22t-3 90q22 78 100 203q17 28 41.5 62t37.5 51.5t49 63.5t42 54q7 8 10 15zM846 793q-25 0 -49 12q-31 10 -47 29q-41 41 -113 2q-32 -16 -47 -29q-18 -14 -35 -6q-20 12 -30 30.5t-3.5 43.5t35.5 47q71 54 141 26q25 -8 62 -41q32 -31 54 -31
t69 31q29 21 55 43q22 22 41 8q36 -25 16 -69q-19 -38 -63.5 -67t-85.5 -29z" />
    <glyph glyph-name="ograve" unicode="&#xf2;" horiz-adv-x="614" 
d="M498 264q15 0 55 15q57 22 133 73q40 30 51 35q23 8 31 0q12 -17 -8 -33q-25 -25 -37 -32q-128 -96 -244 -109q-22 -2 -41 -25q-47 -57 -82 -90q-99 -96 -192 -106q-67 -9 -117 18q-65 39 -49 125q24 142 115 264q38 53 80 101q49 49 83 71q28 17 43 35q25 25 54 31
q37 8 63.5 11.5t58 0t56.5 -17.5q46 -26 59 -61.5t-4 -100.5q-15 -51 -80 -158q-20 -35 -28 -47zM250 365q-33 -45 -57 -109q-41 -90 -43 -156q-2 -34 7 -39t40 15q68 43 141 127q14 17 14 22t-14 15q-56 38 -74 102q-4 17 -14 23zM414 297q32 54 44.5 77t30.5 66.5t25 79.5
q3 16 0 35q-2 14 -8 17t-21 -1q-32 -8 -71 -28q-30 -20 -35 -45q-19 -96 10 -172q11 -22 25 -29zM516 963q7 29 35 57q15 15 47 35q20 12 30 8.5t13 -23.5q12 -57 51 -96q13 -11 40 -37t48.5 -45t42.5 -35q15 -10 19 -14q17 -20 -2 -41q-33 -38 -72 -29q-26 4 -59 23
q-20 12 -60 36.5t-59 37.5q-23 15 -49 45q-30 39 -25 78z" />
    <glyph glyph-name="oacute" unicode="&#xf3;" horiz-adv-x="614" 
d="M498 264q15 0 55 15q57 22 133 73q40 30 51 35q23 8 31 0q12 -17 -8 -33q-25 -25 -37 -32q-128 -96 -244 -109q-22 -2 -41 -25q-47 -57 -82 -90q-99 -96 -192 -106q-67 -9 -117 18q-65 39 -49 125q24 142 115 264q38 53 80 101q49 49 83 71q28 17 43 35q25 25 54 31
q37 8 63.5 11.5t58 0t56.5 -17.5q46 -26 59 -61.5t-4 -100.5q-15 -51 -80 -158q-20 -35 -28 -47zM250 365q-33 -45 -57 -109q-41 -90 -43 -156q-2 -34 7 -39t40 15q68 43 141 127q14 17 14 22t-14 15q-56 38 -74 102q-4 17 -14 23zM414 297q32 54 44.5 77t30.5 66.5t25 79.5
q3 16 0 35q-2 14 -8 17t-21 -1q-32 -8 -71 -28q-30 -20 -35 -45q-19 -96 10 -172q11 -22 25 -29zM934 934q-11 -38 -57 -78q-48 -34 -72 -45q-26 -12 -76.5 -36.5t-75.5 -37.5q-44 -18 -71 -22q-45 -9 -58 28q-8 22 17 41q4 2 12 7.5t12 7.5q42 24 187 116q60 44 94 97
q22 37 51 14q21 -18 31 -35q13 -27 6 -57z" />
    <glyph glyph-name="ocircumflex" unicode="&#xf4;" horiz-adv-x="614" 
d="M498 264q15 0 55 15q57 22 133 73q40 30 51 35q23 8 31 0q12 -17 -8 -33q-25 -25 -37 -32q-128 -96 -244 -109q-22 -2 -41 -25q-47 -57 -82 -90q-99 -96 -192 -106q-67 -9 -117 18q-65 39 -49 125q24 142 115 264q38 53 80 101q49 49 83 71q28 17 43 35q25 25 54 31
q37 8 63.5 11.5t58 0t56.5 -17.5q46 -26 59 -61.5t-4 -100.5q-15 -51 -80 -158q-20 -35 -28 -47zM250 365q-33 -45 -57 -109q-41 -90 -43 -156q-2 -34 7 -39t40 15q68 43 141 127q14 17 14 22t-14 15q-56 38 -74 102q-4 17 -14 23zM414 297q32 54 44.5 77t30.5 66.5t25 79.5
q3 16 0 35q-2 14 -8 17t-21 -1q-32 -8 -71 -28q-30 -20 -35 -45q-19 -96 10 -172q11 -22 25 -29zM899 911q-22 -71 -55 -161q-9 -27 -31 -15q-34 23 -27 74q1 14 5.5 41.5t5.5 40.5q2 23 3 33t-3.5 13.5t-6 2.5t-17 -10.5t-23.5 -14.5q-55 -32 -121 -81q-21 -18 -45 -33
q-43 -30 -76 6q-27 31 2 72q29 34 76 69q110 75 153 99q50 27 74 25.5t57 -34.5q47 -47 29 -127z" />
    <glyph glyph-name="otilde" unicode="&#xf5;" horiz-adv-x="614" 
d="M498 264q15 0 55 15q57 22 133 73q40 30 51 35q23 8 31 0q12 -17 -8 -33q-25 -25 -37 -32q-128 -96 -244 -109q-22 -2 -41 -25q-47 -57 -82 -90q-99 -96 -192 -106q-67 -9 -117 18q-65 39 -49 125q24 142 115 264q38 53 80 101q49 49 83 71q28 17 43 35q25 25 54 31
q37 8 63.5 11.5t58 0t56.5 -17.5q46 -26 59 -61.5t-4 -100.5q-15 -51 -80 -158q-20 -35 -28 -47zM250 365q-33 -45 -57 -109q-41 -90 -43 -156q-2 -34 7 -39t40 15q68 43 141 127q14 17 14 22t-14 15q-56 38 -74 102q-4 17 -14 23zM414 297q32 54 44.5 77t30.5 66.5t25 79.5
q3 16 0 35q-2 14 -8 17t-21 -1q-32 -8 -71 -28q-30 -20 -35 -45q-19 -96 10 -172q11 -22 25 -29zM801 772q-25 0 -49 12q-31 10 -47 29q-41 41 -113 2q-32 -16 -47 -29q-18 -14 -35 -6q-20 12 -30 30.5t-3.5 43.5t35.5 47q72 55 141 27q25 -8 62 -41q32 -31 54 -31t69 31
q29 20 55 43q22 22 41 8q36 -25 16 -70q-19 -38 -63.5 -67t-85.5 -29z" />
    <glyph glyph-name="odieresis" unicode="&#xf6;" horiz-adv-x="614" 
d="M498 264q15 0 55 15q57 22 133 73q40 30 51 35q23 8 31 0q12 -17 -8 -33q-25 -25 -37 -32q-128 -96 -244 -109q-22 -2 -41 -25q-47 -57 -82 -90q-99 -96 -192 -106q-67 -9 -117 18q-65 39 -49 125q24 142 115 264q38 53 80 101q49 49 83 71q28 17 43 35q25 25 54 31
q37 8 63.5 11.5t58 0t56.5 -17.5q46 -26 59 -61.5t-4 -100.5q-15 -51 -80 -158q-20 -35 -28 -47zM250 365q-33 -45 -57 -109q-41 -90 -43 -156q-2 -34 7 -39t40 15q68 43 141 127q14 17 14 22t-14 15q-56 38 -74 102q-4 17 -14 23zM414 297q32 54 44.5 77t30.5 66.5t25 79.5
q3 16 0 35q-2 14 -8 17t-21 -1q-32 -8 -71 -28q-30 -20 -35 -45q-19 -96 10 -172q11 -22 25 -29zM858 770q-38 0 -68.5 32t-27.5 66q2 32 22.5 59t55.5 40q31 12 59 4.5t43 -33.5q9 -17 27 -61q19 -56 -43 -86q-44 -21 -68 -21zM512 770q-38 0 -68.5 32t-27.5 66
q2 32 22.5 59t55.5 40q31 12 59 4.5t43 -33.5q9 -17 27 -61q19 -56 -43 -86q-44 -21 -68 -21z" />
    <glyph glyph-name="divide" unicode="&#xf7;" horiz-adv-x="706" 
d="M428 395q172 4 256 -2q47 -4 68 -18q26 -20 -7 -43q-24 -15 -51 -15q-58 -2 -175.5 -10t-176.5 -10l-129 -6q-26 0 -72 8t-53 59q-3 25 29 33h12q19 0 102.5 4.5t102.5 -0.5h94zM303 74q-32 0 -54 22t-20 51q4 15 11 25q25 28 55 43q18 7 29 2q45 -15 59 -57
q9 -31 -6.5 -54t-50.5 -30q-10 -2 -23 -2zM504 637q10 0 14 -2q22 -7 30.5 -43.5t-5.5 -59.5q-9 -17 -29 -26.5t-41 -7.5q-26 3 -42.5 30.5t-10.5 55.5q6 27 37 41q14 8 47 12z" />
    <glyph glyph-name="oslash" unicode="&#xf8;" horiz-adv-x="614" 
d="M166 184q17 20 52.5 59.5t53.5 59.5l4 4q-11 26 -12 35q0 2 -2 4q0 2 -4 10q-8 8 -10 9q-32 -49 -55 -109q-19 -40 -27 -72zM373 410q3 4 10 12t10 12q72 72 121 125q-3 10 -8 12q-6 3 -21 0q-25 -6 -71 -28q-29 -16 -35 -45q-9 -46 -6 -88zM471 399l-43 -43l-37 -37
l6 -8q2 -5 15 -14q31 41 59 102zM324 250q-114 -118 -174 -178q5 -10 6 -11q10 -5 43 15q73 48 139 127q14 17 14 22q0 7 -14 15q-2 2 -7 5t-7 5zM78 -2q-15 -17 -46.5 -48.5l-47.5 -47.5l-2 -2q-10 -13 -27 -23q-20 -12 -33 -2q-6 3 -6 14q0 8 6 17q16 24 27 35l4 4l72 82
q-39 39 -27 108q23 133 115 264q47 65 80 101q49 49 83 71q28 17 43 35q25 25 54 31q97 28 178 -6l22 -13l31 33q125 125 248 228q27 27 43 -2q6 -9 6 -23q3 -10 -2 -20q-1 -1 -2 -3.5t-2 -3.5l-10 -12q-18 -21 -39 -39l-12 -12q-139 -139 -175 -176q-12 -14 -43 -45
q3 -28 -10 -74q-22 -66 -69 -143q-9 -9 -11 -15l-18 -28q-3 -8 -10 -19q30 3 51 15h2q72 28 135 73l6 6q30 21 47 29q6 3 15 6q7 0 16 -6q3 -9 0 -18q-2 -8 -10 -15q-11 -14 -37 -32q-118 -92 -244 -109q-27 -3 -43 -25q-40 -53 -80 -90q-82 -88 -192 -106q-46 -6 -86 6z
" />
    <glyph glyph-name="ugrave" unicode="&#xf9;" horiz-adv-x="673" 
d="M412 61q8 4 15 8.5t15.5 12.5t10.5 10q86 76 258 232q49 44 63 55l10 10l8 4t9 3.5t7.5 1.5t7.5 -0.5t5 -4.5q9 -12 -12 -33q-78 -88 -147 -157q-130 -124 -142 -135q-47 -44 -88 -66q-58 -34 -115 -22q-53 9 -53 65q0 17 4 53q-5 1 -8.5 -1t-8.5 -7t-7 -6
q-61 -48 -88 -64q-71 -39 -142 -20q-35 10 -48 41.5t1 69.5q13 42 47 112q78 159 236 365q7 9 21.5 28.5t21.5 28.5q18 22 27.5 26.5t33.5 -1.5q12 -3 21 -6q38 -15 43.5 -39.5t-19.5 -65.5q-34 -56 -101 -158t-87 -133q-71 -109 -107 -196q8 0 35 16q21 16 117 102
q4 3 12.5 11.5t12.5 11.5q65 48 129 143q52 75 135 172q17 20 52.5 60t53.5 61q22 22 43 17q18 -6 33 -15q40 -26 14 -76q-21 -49 -63 -104q-138 -185 -143 -192q-45 -60 -109 -175q-14 -28 -14 -43zM547 1008q7 29 35 57q15 15 47 35q20 12 30 8.5t13 -23.5q12 -57 51 -96
q13 -11 40 -37t48.5 -45t42.5 -35q12 -8 18 -14q17 -20 -2 -41q-33 -38 -71 -29q-27 5 -60 23q-20 12 -59 36.5t-59 37.5q-25 17 -50 45q-30 38 -24 78z" />
    <glyph glyph-name="uacute" unicode="&#xfa;" horiz-adv-x="673" 
d="M412 61q8 4 15 8.5t15.5 12.5t10.5 10q86 76 258 232q49 44 63 55l10 10l8 4t9 3.5t7.5 1.5t7.5 -0.5t5 -4.5q9 -12 -12 -33q-78 -88 -147 -157q-130 -124 -142 -135q-47 -44 -88 -66q-58 -34 -115 -22q-53 9 -53 65q0 17 4 53q-5 1 -8.5 -1t-8.5 -7t-7 -6
q-61 -48 -88 -64q-71 -39 -142 -20q-35 10 -48 41.5t1 69.5q13 42 47 112q78 159 236 365q7 9 21.5 28.5t21.5 28.5q18 22 27.5 26.5t33.5 -1.5q12 -3 21 -6q38 -15 43.5 -39.5t-19.5 -65.5q-34 -56 -101 -158t-87 -133q-71 -109 -107 -196q8 0 35 16q21 16 117 102
q4 3 12.5 11.5t12.5 11.5q65 48 129 143q52 75 135 172q17 20 52.5 60t53.5 61q22 22 43 17q18 -6 33 -15q40 -26 14 -76q-21 -49 -63 -104q-138 -185 -143 -192q-45 -60 -109 -175q-14 -28 -14 -43zM993 997q-10 -37 -57 -77q-53 -37 -72 -46q-25 -13 -75 -36.5t-76 -36.5
q-48 -19 -72 -23q-44 -9 -57 29q-8 22 16 41q4 2 12.5 7t12.5 7q23 13 186 117q61 45 94 96q22 38 51 15q21 -17 31 -35q13 -27 6 -58z" />
    <glyph glyph-name="ucircumflex" unicode="&#xfb;" horiz-adv-x="673" 
d="M412 61q8 4 15 8.5t15.5 12.5t10.5 10q86 76 258 232q49 44 63 55l10 10l8 4t9 3.5t7.5 1.5t7.5 -0.5t5 -4.5q9 -12 -12 -33q-78 -88 -147 -157q-130 -124 -142 -135q-47 -44 -88 -66q-58 -34 -115 -22q-53 9 -53 65q0 17 4 53q-5 1 -8.5 -1t-8.5 -7t-7 -6
q-61 -48 -88 -64q-71 -39 -142 -20q-35 10 -48 41.5t1 69.5q13 42 47 112q78 159 236 365q7 9 21.5 28.5t21.5 28.5q18 22 27.5 26.5t33.5 -1.5q12 -3 21 -6q38 -15 43.5 -39.5t-19.5 -65.5q-34 -56 -101 -158t-87 -133q-71 -109 -107 -196q8 0 35 16q21 16 117 102
q4 3 12.5 11.5t12.5 11.5q65 48 129 143q52 75 135 172q17 20 52.5 60t53.5 61q22 22 43 17q18 -6 33 -15q40 -26 14 -76q-21 -49 -63 -104q-138 -185 -143 -192q-45 -60 -109 -175q-14 -28 -14 -43zM963 963q-18 -58 -56 -162q-9 -27 -30 -15q-34 23 -27 74q1 14 5 41t5 41
q1 17 2 25.5t0 15t-2 8t-6 0.5t-9 -3.5t-14 -9t-18 -11.5q-49 -29 -121 -82q-21 -18 -45 -33q-43 -30 -76 6q-27 31 2 72q29 34 76 69q106 73 154 99q50 28 74.5 26t56.5 -34q47 -47 29 -127z" />
    <glyph glyph-name="udieresis" unicode="&#xfc;" horiz-adv-x="673" 
d="M412 61q8 4 15 8.5t15.5 12.5t10.5 10q86 76 258 232q49 44 63 55l10 10l8 4t9 3.5t7.5 1.5t7.5 -0.5t5 -4.5q9 -12 -12 -33q-78 -88 -147 -157q-130 -124 -142 -135q-47 -44 -88 -66q-58 -34 -115 -22q-53 9 -53 65q0 17 4 53q-5 1 -8.5 -1t-8.5 -7t-7 -6
q-61 -48 -88 -64q-71 -39 -142 -20q-35 10 -48 41.5t1 69.5q13 42 47 112q78 159 236 365q7 9 21.5 28.5t21.5 28.5q18 22 27.5 26.5t33.5 -1.5q12 -3 21 -6q38 -15 43.5 -39.5t-19.5 -65.5q-34 -56 -101 -158t-87 -133q-71 -109 -107 -196q8 0 35 16q21 16 117 102
q4 3 12.5 11.5t12.5 11.5q65 48 129 143q52 75 135 172q17 20 52.5 60t53.5 61q22 22 43 17q18 -6 33 -15q40 -26 14 -76q-21 -49 -63 -104q-138 -185 -143 -192q-45 -60 -109 -175q-14 -28 -14 -43zM936 825q-38 0 -68.5 32.5t-27.5 66.5q2 32 22.5 58.5t55.5 39.5
q31 12 59 4.5t43 -33.5q9 -17 27 -61q19 -56 -43 -86q-44 -21 -68 -21zM590 825q-38 0 -68.5 32.5t-27.5 66.5q2 33 22 59t55 39q31 12 59.5 4.5t43.5 -33.5q6 -10 26 -61q19 -56 -43 -86q-44 -21 -67 -21z" />
    <glyph glyph-name="yacute" unicode="&#xfd;" horiz-adv-x="710" 
d="M322 176q-14 -12 -42 -37.5t-42 -38.5q-43 -40 -99 -77q-58 -31 -108 -23q-47 6 -47 57q0 54 30 150q21 62 66 137q103 181 194 291q2 2 6 7t6 7l6 6t6.5 6t7 5t8 4t7.5 1.5t9 0.5q47 -6 65 -39q6 -13 -8 -41q-15 -35 -94 -166q-114 -187 -154 -274q-18 -36 -18 -64
q16 8 39 31q10 9 286 256q20 20 35 41q10 14 58 85t77 107q16 24 29 35q17 14 27.5 15.5t25.5 -7.5q62 -30 23 -102q-17 -29 -52 -87.5t-51 -88.5q-33 -55 -57 -101q-9 -14 -6 -18q6 0 11.5 2t9.5 4t10.5 6t9.5 6q125 80 184 109q36 16 54 16q15 4 20 -6q3 -11 -12 -22
q-12 -10 -31 -21q-127 -81 -311 -215q-36 -26 -60 -63q-177 -290 -286 -437q-129 -168 -236 -268q-111 -99 -217 -117q-42 -9 -82 0q-35 11 -41 50q-8 47 14 106q65 169 218 303q107 100 272 219q6 5 156 113q17 13 28 33q10 16 30 50t30 50zM154 -115q-7 4 -13 -2
q-139 -99 -229 -184q-132 -128 -186 -227q-33 -68 -33 -111q1 -5 0 -18t1.5 -20t10.5 -9q6 -1 12.5 2t11 6.5t13 11t10.5 9.5q16 14 30 28t32.5 36t24 29t30 38t25.5 32q22 26 42.5 53t44 61t36.5 53t41 62t36 56q56 88 60 94zM1012 1026q-10 -37 -58 -78q-51 -35 -71 -45
q-25 -13 -75.5 -37.5t-76.5 -36.5q-44 -17 -72 -22q-44 -9 -57 29q-8 22 16 41q4 2 12.5 7t12.5 7q23 13 186 117q63 46 95 96q22 37 51 14q21 -18 31 -35q13 -27 6 -57z" />
    <glyph glyph-name="thorn" unicode="&#xfe;" horiz-adv-x="622" 
d="M637 469q-18 -73 -45 -117q-9 -17 -7 -20.5t21 0.5q52 12 105 30q10 5 16 7q22 7 27 -9q7 -14 -17 -30q-6 -3 -19.5 -9.5t-19.5 -9.5q-87 -35 -133 -41q-30 -3 -51 -30q-75 -102 -176 -177q-116 -89 -250 -73q-33 3 -57 24q-12 11 -17.5 9.5t-17.5 -19.5
q-54 -84 -139 -207q-204 -306 -260 -385q-13 -19 -38.5 -56t-39.5 -56q-2 -4 -7.5 -12.5t-7.5 -12.5q-53 -75 -125 -43q-14 8 -15.5 15t7.5 24q30 51 72 113q50 74 163 249t177 269q82 123 284.5 431t356.5 541q6 7 16.5 23t12.5 18q15 18 26.5 22.5t30.5 -1.5q29 -8 39 -21
q-153 -275 -137 -275q2 0 6 3l4 2q41 29 84 29.5t73 -16t50 -42.5q16 -22 17.5 -55.5t-3.5 -62.5q0 -5 -6 -29zM266 326q-39 0 -55 -9.5t-41 -48.5q-9 -14 -27.5 -43.5t-27.5 -44.5q-23 -33 -9 -61q3 -5 11 -21.5t14 -25.5q8 -15 16 -17t27 8q8 5 21.5 14.5t15.5 10.5
q45 36 102 100q42 48 66 93q13 19 -6 22q-5 2 -24.5 7.5t-28.5 8t-24.5 5t-29.5 2.5zM530 553q2 4 2 8q6 24 1.5 27.5t-27.5 -6.5q-21 -9 -94 -56q-63 -42 -138 -114q-12 -12 -11 -18t16 -7q44 -9 114 -35q20 -6 26.5 -3t18.5 24q5 8 13.5 21.5t15.5 24.5t12 21
q43 84 51 113z" />
    <glyph glyph-name="ydieresis" unicode="&#xff;" horiz-adv-x="710" 
d="M322 176q-14 -12 -42 -37.5t-42 -38.5q-43 -40 -99 -77q-58 -31 -108 -23q-47 6 -47 57q0 54 30 150q21 62 66 137q103 181 194 291q2 2 6 7t6 7l6 6t6.5 6t7 5t8 4t7.5 1.5t9 0.5q47 -6 65 -39q6 -13 -8 -41q-15 -35 -94 -166q-114 -187 -154 -274q-18 -36 -18 -64
q16 8 39 31q10 9 286 256q20 20 35 41q10 14 58 85t77 107q16 24 29 35q17 14 27.5 15.5t25.5 -7.5q62 -30 23 -102q-17 -29 -52 -87.5t-51 -88.5q-33 -55 -57 -101q-9 -14 -6 -18q6 0 11.5 2t9.5 4t10.5 6t9.5 6q125 80 184 109q36 16 54 16q15 4 20 -6q3 -11 -12 -22
q-12 -10 -31 -21q-127 -81 -311 -215q-36 -26 -60 -63q-177 -290 -286 -437q-129 -168 -236 -268q-111 -99 -217 -117q-42 -9 -82 0q-35 11 -41 50q-8 47 14 106q65 169 218 303q107 100 272 219q6 5 156 113q17 13 28 33q10 16 30 50t30 50zM154 -115q-7 4 -13 -2
q-139 -99 -229 -184q-132 -128 -186 -227q-33 -68 -33 -111q1 -5 0 -18t1.5 -20t10.5 -9q6 -1 12.5 2t11 6.5t13 11t10.5 9.5q16 14 30 28t32.5 36t24 29t30 38t25.5 32q22 26 42.5 53t44 61t36.5 53t41 62t36 56q56 88 60 94zM915 803q-38 0 -68.5 32t-27.5 66
q2 32 22.5 58.5t55.5 39.5q30 12 58.5 5t43.5 -33q8 -14 27 -62q19 -56 -43 -86q-42 -20 -68 -20zM569 803q-38 0 -68.5 32t-27.5 66q2 32 22.5 58.5t55.5 39.5q30 12 58.5 5t43.5 -33q8 -14 27 -62q19 -56 -43 -86q-42 -20 -68 -20z" />
    <glyph glyph-name="idotless" unicode="&#x131;" horiz-adv-x="364" 
d="M-20 125q33 123 137 278q73 104 157 205q26 35 50 31q48 -12 55 -45q2 -13 -14 -37q-18 -29 -54 -88.5t-55 -89.5q-76 -117 -127 -221q-25 -48 -39 -92q-4 -13 2 -17q7 -3 14 4q42 25 101 80q42 40 125 119t125 119q18 18 37 26q18 4 24 -4q8 -8 -2 -24q-2 -5 -16 -23
q-161 -180 -273 -278q-86 -75 -157 -82q-53 -8 -80 17t-21 77q4 31 11 45z" />
    <glyph glyph-name="OE" unicode="&#x152;" horiz-adv-x="2940" 
d="M1161 -217q-28 72 15 156q66 118 180 200q137 96 286 154l13 4q6 2 14 6q2 1 7 3t7 3h3l8 6q-57 15 -103 43q-37 22 -69 62q-57 90 -4 205q56 120 143 221q150 173 326 303q131 98 231 162q-50 148 -231 209q-193 50 -408 10q-305 -46 -610 -199q-267 -129 -486 -342
q-138 -129 -196 -295q-43 -118 37 -192l6 -4q49 -39 123 -82q43 -24 96 -33q33 -9 43 -2q10 5 29 41q86 182 223 358q145 185 311 318q158 131 348 166h4q73 14 146 2q92 -22 110 -111q2 -6 2 -18q-3 -11 -12 -19q-11 -3 -16 0q-5 2 -8 12q0 1 -1.5 3.5t-1.5 3.5q-2 2 -6 10
q-9 21 -32 27q-37 4 -56 2q-204 -21 -379 -170q-90 -76 -180 -172q-104 -113 -170 -203q-76 -112 -135 -221q-111 -202 -162 -428l-6 -29q-8 -29 -14 -66q-20 -99 10 -188q19 -42 63 -51q69 -12 146 4q152 27 299 102zM2236 1143l-2 -2q-256 -178 -467 -418
q-73 -85 -122 -195q-16 -31 -19 -65q0 -24 6 -33q10 -13 31 -16q58 -12 125 -15h4q25 -2 72 -2q5 6 15 19.5t15 19.5q118 151 205 312q89 164 129 335q3 15 8 60zM1645 152q-74 -38 -129 -74q-114 -70 -193 -172q-4 -7 -12.5 -20.5t-12.5 -20.5q156 103 283 227q31 27 64 60
zM1313 -281q8 -4 14 -6q50 -15 103 -18q155 -9 317 31q448 103 842 364q89 55 176 139h2q3 3 8 10.5t8 10.5q8 8 15 22q4 15 10 17q8 3 18 0q54 -15 23 -72q-15 -22 -25 -35q-78 -78 -133 -119q-163 -123 -336 -206q-230 -120 -473 -187q-155 -41 -305 -53q-146 -12 -270 35
q-28 10 -60 31q-132 -70 -286 -119q-133 -44 -256 -17q-210 47 -234 260q-12 135 27 281q21 93 51 170q6 9 6 21q8 16 8 24q-5 5 -22 8q-56 9 -107 37q-94 46 -174 117q-30 30 -49 61q-75 125 -4 281q83 180 237 313q215 191 465 316q294 145 594 200q143 28 275 25
q126 -3 233 -43q165 -64 240 -223q15 -29 22 -49q17 9 46.5 27t41.5 24q185 105 379 176q160 56 320 59q166 9 252 -114q80 -133 -21 -287q-53 -70 -121 -135q-188 -162 -391 -273q-168 -94 -325 -145q-112 -40 -226 -31q-26 3 -47 12q-63 -127 -153 -262q28 -9 45 -32
q34 -40 -23 -56q-13 -4 -70 -24l-49 -17q-86 -102 -135 -151q-133 -145 -293 -271q-98 -75 -190 -127zM2312 1194q6 -67 0 -139q-12 -84 -39 -166q-28 -88 -65 -170q88 -6 174 33q326 126 616 333q161 108 232 267q24 53 24 104q3 42 -32 51q-79 26 -162 11
q-244 -38 -477 -166q-128 -65 -271 -158z" />
    <glyph glyph-name="oe" unicode="&#x153;" horiz-adv-x="1247" 
d="M248 365q-32 -49 -55 -109q-37 -75 -43 -156q-3 -33 6 -39q10 -5 43 15q73 48 139 127q14 17 14 22q0 7 -14 15q-56 38 -74 102q0 2 -2 4q0 2 -4 10q-8 8 -10 9zM1153 555q3 21 0 27q-5 5 -25 2q-40 -5 -86 -29q-94 -51 -163 -123q-15 -15 -43 -47l-11 -12q-1 -1 -3 -4
t-3 -4q-3 -7 0 -13q4 -4 8 -4q4 -4 11 0q6 0 6 2q39 3 92 23q93 41 170 112q32 32 47 70zM412 297q74 104 102 223q2 10 2 35q-7 15 -10 16q-6 3 -21 0q-25 -6 -71 -28q-29 -16 -35 -45q-18 -92 12 -172l-2 -2q1 -2 4 -6.5t4 -6.5q2 -5 15 -14zM598 246q-59 -24 -119 -33
q-27 -3 -43 -25q-40 -53 -80 -90q-82 -88 -192 -106q-66 -9 -119 18q-63 39 -47 125q23 133 115 264q47 65 80 101q49 49 83 71q28 17 43 35q25 25 54 31q97 28 178 -6q93 -41 55 -162q-22 -66 -69 -143q-9 -9 -11 -15l-18 -28q-3 -8 -10 -19q30 3 51 15h2q35 13 76 36
q110 224 342 318q87 40 174 24q46 -14 82 -45q38 -33 14 -92q-13 -31 -41 -67q-102 -129 -262 -170q-35 -7 -59 -7h-5q-34 -3 -73 11q-20 10 -31 -15q-47 -86 -53 -172q0 -20 4 -30q9 -60 74 -41q97 26 184 80q191 116 358 258l6 4q14 14 37 24q8 4 15 4t10 -6q8 -11 -2 -28
q-14 -21 -31 -35q-174 -165 -375 -281q-119 -68 -229 -76q-66 -6 -121 21q-54 29 -63 96q-10 81 16 156z" />
    <glyph glyph-name="Scaron" unicode="&#x160;" horiz-adv-x="1533" 
d="M1108 -49q28 123 39 293q1 24 4 69.5t4 69.5q1 28 -3.5 32.5t-33.5 4.5q-225 3 -350 125q-45 43 -72 100q-34 71 -13.5 147.5t91.5 147.5q55 55 141 104q128 70 338 127q154 39 162 41q29 9 53 33q199 214 480 326q177 70 354 61q25 0 65 -8q93 -21 115 -115
q15 -58 -41 -108q-38 -32 -84 -53q-217 -95 -356 -113q-22 -4 -35 -8q-55 -17 -112.5 -30.5t-142.5 -31.5t-112 -24q-38 -6 -61 -39q-136 -176 -186 -381q-34 -140 -37 -334q-5 -286 -12 -383q-6 -116 -48 -229q-43 -110 -127 -177.5t-200 -86.5q-140 -19 -285 22
q-374 103 -555 436q-56 100 -45 201q5 42 35 90q35 53 108 64q25 3 25 -21q4 -49 -8 -78q-45 -114 8 -219q81 -155 248 -276q122 -83 241 -101q76 -9 150 11q100 29 168 116q72 96 90 195zM1329 1069q-2 2 -12 2q-154 -39 -289 -104q-91 -48 -145 -95q-74 -67 -95 -124
q-43 -110 46 -179q56 -43 128 -62t168 -26q18 -1 23.5 4.5t7.5 24.5q5 123 47 276q36 137 111 258q11 22 10 25zM1731 1290q95 18 186 39q175 43 326 101q71 27 124 63q15 10 15 16q0 9 -17 9q-64 6 -135 -7q-158 -24 -274 -79q-88 -45 -131 -72q-42 -22 -94 -70zM1767 1864
q16 51 56 161q9 28 30 13q33 -23 27 -74q-1 -14 -5 -40.5t-5 -39.5q-4 -49 2 -50.5t45 24.5q37 21 121 84q43 31 45 32q43 27 76 -6q27 -31 -5 -74q-28 -38 -75 -67q-58 -44 -152 -101q-50 -26 -74 -24t-57 35q-47 47 -29 127z" />
    <glyph glyph-name="scaron" unicode="&#x161;" horiz-adv-x="663" 
d="M-96 -393q-80 -3 -133 47q-51 47 -17 119q30 64 115 131q37 26 147 96q21 12 25 19t4 28v115q7 151 66 256q55 103 184 186q52 35 121 62q76 28 137 8q67 -20 104 -62q28 -39 7 -88q-62 -125 -160 -184q-66 -39 -115 -23q-6 2 -16 7q-1 1 -4 3t-4 3l-3 3t-2.5 3.5t-0.5 4
t1 5.5q2 6 23 16q130 49 180 203q9 25 1 32t-34 -1q-71 -21 -147 -84q-71 -61 -113 -125q-42 -69 -53 -176q-4 -27 -4 -78q0 -15 4 -16.5t21 6.5q40 22 119.5 65t119.5 64q108 60 281 139q34 15 51 15q16 0 16 -11q0 -8 -12 -16q-6 -5 -25 -14q-360 -204 -540 -302
q-23 -11 -26.5 -16.5t-2.5 -26.5q7 -131 -37 -237q-50 -125 -178 -162q-69 -16 -100 -14zM33 -168q10 36 10 92q2 8 -2 11.5t-14 -1.5q-106 -66 -146 -116q-18 -21 -24 -43q-18 -62 41 -94q23 -14 38 -10t37 30q48 57 60 131zM559 911q25 78 55 162q9 28 31 12
q33 -23 27 -73q-1 -13 -5 -40t-5 -40q-2 -18 -2.5 -25.5t0.5 -15t1.5 -9t6 -1t9 3.5t14 9t18.5 11q32 19 120 84q3 2 19.5 14.5t25.5 18.5q43 27 76 -6q15 -17 14 -34t-18 -40q-29 -39 -76 -68q-56 -42 -151 -100q-50 -26 -74.5 -24t-56.5 34q-47 47 -29 127z" />
    <glyph glyph-name="Ydieresis" unicode="&#x178;" horiz-adv-x="1959" 
d="M1866 651q-23 -19 -67.5 -54t-51.5 -40q-296 -250 -553 -440q-12 -9 -61.5 -44t-70.5 -50t-59.5 -39.5t-70.5 -42.5q-82 -46 -137 -62q-98 -26 -168 10q-90 42 -72 154q11 81 55 174q29 63 105 199q8 16 14 24q6 12 7.5 16.5t3 9.5t-2 6.5t-8.5 2t-16 0.5q-198 3 -363 98
q-69 40 -114 109q-64 99 -9 240q44 105 138 202q144 153 329 269q292 178 568 258q87 25 161 28q136 6 191 -114q22 -51 -8 -123q-21 -56 -95 -172q-56 -84 -223 -303q-120 -161 -181.5 -245t-153 -223t-156.5 -257q-58 -103 -78 -166q-23 -67 -23 -103q0 -17 6 -19.5
t23 3.5q38 10 106 49q136 81 240 160q300 229 610 485q60 50 183.5 154.5t187.5 157.5q30 27 47 55q136 207 264 366q191 229 361 363q82 69 160 111q52 28 86 22t59 -49q29 -49 -8 -102q-56 -79 -146 -166q-246 -246 -454 -426q-61 -52 -121 -109q-17 -15 -41 -47
q-184 -276 -451 -729q-220 -373 -323 -522q-66 -93 -108 -150t-107 -135t-127 -139q-98 -98 -197 -160q-178 -109 -350 -80q-192 29 -283 156q-63 84 -34 196q25 80 86 115q25 15 33.5 11t7.5 -31q0 -2 -17 -78q-8 -40 -10 -60q-3 -71 29 -120q68 -99 196 -117q39 -5 98 20
q111 48 205 133q143 124 305 334q159 210 414 621q24 38 70.5 113.5t70.5 113.5q29 47 101 176q-2 0 -2 2zM705 528h53q26 0 39 25q8 13 23.5 37.5t23.5 36.5q117 181 407 551q14 18 45 58t49 63.5t42 58t43 63.5q48 69 63 123q6 22 1.5 28.5t-26.5 6.5q-65 -3 -114 -16
q-442 -116 -779 -412q-148 -132 -223 -287q-40 -83 -25.5 -149.5t81.5 -106.5q139 -77 297 -80zM2226 1708q-38 0 -68.5 32t-27.5 66q2 32 22.5 59t55.5 40q31 12 59 4.5t43 -33.5q9 -17 27 -61q19 -56 -43 -86q-44 -21 -68 -21zM1880 1708q-38 0 -68.5 32t-27.5 66
q2 32 22.5 59t55.5 40q31 12 59 4.5t43 -33.5q9 -17 27 -61q19 -56 -43 -86q-44 -21 -68 -21z" />
    </font>
</defs>
</svg>
